<?xml version='1.0' encoding='utf-8'?>
<svg xmlns="http://www.w3.org/2000/svg" width="236" height="180" viewBox="-37.87 -36.95 235.73 180.56" shape-rendering="crispEdges">
<defs>
    <pattern id="gridMinor" width="40" height="40" patternUnits="userSpaceOnUse">
      <path d="M 40 0 L 0 0 0 40" fill="none" stroke="#94a3b8" stroke-width="1.4" />
    </pattern>
    <pattern id="gridMajor" width="200" height="200" patternUnits="userSpaceOnUse">
      <path d="M 200 0 L 0 0 0 200" fill="none" stroke="#64748b" stroke-width="1.4" />
    </pattern></defs>
<rect width="235.73" height="180.56" fill="white" x="-37.87" y="-36.95" />
<rect width="235.73" height="180.56" fill="url(#gridMinor)" x="-37.87" y="-36.95" />
<rect width="235.73" height="180.56" fill="url(#gridMajor)" x="-37.87" y="-36.95" />
<line x1="53.33" y1="0" x2="106.67" y2="0" stroke="#111111" stroke-width="4.9" stroke-linecap="square" />
<line x1="106.67" y1="53.33" x2="106.67" y2="0" stroke="#111111" stroke-width="2.1" stroke-linecap="square" stroke-dasharray="6 4" />
<line x1="53.33" y1="53.33" x2="106.67" y2="53.33" stroke="#111111" stroke-width="2.1" stroke-linecap="square" stroke-dasharray="6 4" />
<line x1="53.33" y1="0" x2="53.33" y2="53.33" stroke="#111111" stroke-width="2.1" stroke-linecap="square" stroke-dasharray="6 4" />
<line x1="106.67" y1="0" x2="160" y2="0" stroke="#111111" stroke-width="4.9" stroke-linecap="square" />
<line x1="160" y1="0" x2="160" y2="53.33" stroke="#111111" stroke-width="4.9" stroke-linecap="square" />
<line x1="106.67" y1="53.33" x2="160" y2="53.33" stroke="#111111" stroke-width="2.1" stroke-linecap="square" stroke-dasharray="6 4" />
<line x1="0" y1="0" x2="53.33" y2="0" stroke="#111111" stroke-width="4.9" stroke-linecap="square" />
<line x1="0" y1="53.33" x2="53.33" y2="53.33" stroke="#111111" stroke-width="2.1" stroke-linecap="square" stroke-dasharray="6 4" />
<line x1="0" y1="53.33" x2="0" y2="0" stroke="#111111" stroke-width="4.9" stroke-linecap="square" />
<line x1="106.67" y1="106.67" x2="106.67" y2="53.33" stroke="#111111" stroke-width="2.1" stroke-linecap="square" stroke-dasharray="6 4" />
<line x1="106.67" y1="106.67" x2="53.33" y2="106.67" stroke="#111111" stroke-width="4.9" stroke-linecap="square" />
<line x1="53.33" y1="53.33" x2="53.33" y2="106.67" stroke="#111111" stroke-width="2.1" stroke-linecap="square" stroke-dasharray="6 4" />
<line x1="160" y1="53.33" x2="160" y2="106.67" stroke="#111111" stroke-width="4.9" stroke-linecap="square" />
<line x1="160" y1="106.67" x2="106.67" y2="106.67" stroke="#111111" stroke-width="4.9" stroke-linecap="square" />
<line x1="53.33" y1="106.67" x2="0" y2="106.67" stroke="#111111" stroke-width="4.9" stroke-linecap="square" />
<line x1="0" y1="106.67" x2="0" y2="53.33" stroke="#111111" stroke-width="4.9" stroke-linecap="square" />
<g data-point-labels="true" font-family="sans-serif" font-size="18.67" font-weight="700" fill="#111111" text-anchor="middle" dominant-baseline="middle"><text x="-11.32" y="-11.32">ㄱ</text><text x="38.25" y="-15.08">ㄴ</text><text x="121.75" y="-15.08">ㄷ</text><text x="171.32" y="-11.32">ㄹ</text><text x="176" y="53.33">ㅁ</text><text x="171.32" y="117.99">ㅂ</text><text x="121.75" y="121.75">ㅅ</text><text x="38.25" y="121.75">ㅇ</text><text x="-11.32" y="117.99">ㅈ</text><text x="-16" y="53.33">ㅊ</text><text x="121.75" y="38.25">ㅋ</text><text x="38.25" y="68.41">ㅌ</text></g></svg>