<?xml version='1.0' encoding='utf-8'?>
<svg xmlns="http://www.w3.org/2000/svg" width="440" height="360" viewBox="-76.00 -76.00 592.00 512.00" shape-rendering="crispEdges">
<defs>
    <pattern id="gridMinor" width="40" height="40" patternUnits="userSpaceOnUse">
      <path d="M 40 0 L 0 0 0 40" fill="none" stroke="#e2e8f0" stroke-width="1" />
    </pattern>
    <pattern id="gridMajor" width="200" height="200" patternUnits="userSpaceOnUse">
      <path d="M 200 0 L 0 0 0 200" fill="none" stroke="#cbd5e1" stroke-width="1" />
    </pattern></defs>
<rect width="488.00" height="408.00" fill="white" x="-24.00" y="-24.00" />
<rect width="488.00" height="408.00" fill="url(#gridMinor)" x="-24.00" y="-24.00" />
<rect width="488.00" height="408.00" fill="url(#gridMajor)" x="-24.00" y="-24.00" />
<line x1="0" y1="0" x2="80" y2="0" stroke="#111111" stroke-width="3.5" stroke-linecap="square" />
<line x1="80" y1="120" x2="80" y2="0" stroke="#111111" stroke-width="1.5" stroke-linecap="square" stroke-dasharray="6 4" />
<line x1="80" y1="120" x2="0" y2="120" stroke="#111111" stroke-width="3.5" stroke-linecap="square" />
<line x1="0" y1="120" x2="0" y2="0" stroke="#111111" stroke-width="3.5" stroke-linecap="square" />
<line x1="80" y1="0" x2="240" y2="0" stroke="#111111" stroke-width="3.5" stroke-linecap="square" />
<line x1="240" y1="0" x2="240" y2="120" stroke="#111111" stroke-width="3.5" stroke-linecap="square" />
<line x1="80" y1="120" x2="240" y2="120" stroke="#111111" stroke-width="1.5" stroke-linecap="square" stroke-dasharray="6 4" />
<line x1="240" y1="200" x2="240" y2="120" stroke="#111111" stroke-width="1.5" stroke-linecap="square" stroke-dasharray="6 4" />
<line x1="240" y1="200" x2="80" y2="200" stroke="#111111" stroke-width="3.5" stroke-linecap="square" />
<line x1="80" y1="200" x2="80" y2="120" stroke="#111111" stroke-width="3.5" stroke-linecap="square" />
<line x1="240" y1="120" x2="360" y2="120" stroke="#111111" stroke-width="3.5" stroke-linecap="square" />
<line x1="360" y1="120" x2="360" y2="200" stroke="#111111" stroke-width="3.5" stroke-linecap="square" />
<line x1="240" y1="200" x2="360" y2="200" stroke="#111111" stroke-width="1.5" stroke-linecap="square" stroke-dasharray="6 4" />
<line x1="360" y1="360" x2="360" y2="200" stroke="#111111" stroke-width="1.5" stroke-linecap="square" stroke-dasharray="6 4" />
<line x1="360" y1="360" x2="240" y2="360" stroke="#ef4444" stroke-width="3.5" stroke-linecap="square" />
<line x1="240" y1="360" x2="240" y2="200" stroke="#111111" stroke-width="3.5" stroke-linecap="square" />
<line x1="360" y1="200" x2="440" y2="200" stroke="#111111" stroke-width="3.5" stroke-linecap="square" />
<line x1="440" y1="200" x2="440" y2="360" stroke="#111111" stroke-width="3.5" stroke-linecap="square" />
<line x1="440" y1="360" x2="360" y2="360" stroke="#111111" stroke-width="3.5" stroke-linecap="square" />
<g data-point-labels="true" font-family="sans-serif" font-size="20" font-weight="700" fill="#111111" text-anchor="middle" dominant-baseline="middle"><text x="-7.07" y="-7.07">ㄱ</text><text x="71.51" y="-8.49">ㄴ</text><text x="240.00" y="-10.00">ㄷ</text><text x="248.49" y="111.51">ㄹ</text><text x="370.00" y="120.00">ㅁ</text><text x="450.00" y="200.00">ㅂ</text><text x="368.49" y="208.49">ㅅ</text><text x="447.07" y="367.07">ㅇ</text><text x="368.49" y="368.49">ㅈ</text><text x="248.49" y="208.49">ㅊ</text><text x="240.00" y="370.00">ㅋ</text><text x="70.00" y="200.00">ㅌ</text><text x="-10.00" y="120.00">ㅍ</text><text x="71.51" y="111.51">ㅎ</text></g></svg>