<?xml version='1.0' encoding='utf-8'?>
<svg xmlns="http://www.w3.org/2000/svg" width="600" height="240" viewBox="-48.00 -48.00 696.00 336.00" shape-rendering="crispEdges">
<defs>
    <pattern id="gridMinor" width="40" height="40" patternUnits="userSpaceOnUse">
      <path d="M 40 0 L 0 0 0 40" fill="none" stroke="#e2e8f0" stroke-width="1" />
    </pattern>
    <pattern id="gridMajor" width="200" height="200" patternUnits="userSpaceOnUse">
      <path d="M 200 0 L 0 0 0 200" fill="none" stroke="#cbd5e1" stroke-width="1" />
    </pattern></defs>
<rect width="648.00" height="288.00" fill="white" x="-24.00" y="-24.00" />
<rect width="648.00" height="288.00" fill="url(#gridMinor)" x="-24.00" y="-24.00" />
<rect width="648.00" height="288.00" fill="url(#gridMajor)" x="-24.00" y="-24.00" />
<line x1="240" y1="0" x2="360" y2="0" stroke="#111111" stroke-width="3.5" stroke-linecap="square" />
<line x1="360" y1="0" x2="360" y2="120" stroke="#111111" stroke-width="3.5" stroke-linecap="square" />
<line x1="360" y1="120" x2="240" y2="120" stroke="#111111" stroke-width="1.5" stroke-linecap="square" stroke-dasharray="6 4" />
<line x1="240" y1="120" x2="240" y2="0" stroke="#111111" stroke-width="1.5" stroke-linecap="square" stroke-dasharray="6 4" />
<line x1="120" y1="0" x2="240" y2="0" stroke="#111111" stroke-width="3.5" stroke-linecap="square" />
<line x1="240" y1="120" x2="120" y2="120" stroke="#111111" stroke-width="3.5" stroke-linecap="square" />
<line x1="120" y1="120" x2="120" y2="0" stroke="#111111" stroke-width="1.5" stroke-linecap="square" stroke-dasharray="6 4" />
<line x1="0" y1="0" x2="120" y2="0" stroke="#111111" stroke-width="3.5" stroke-linecap="square" />
<line x1="120" y1="120" x2="0" y2="120" stroke="#111111" stroke-width="3.5" stroke-linecap="square" />
<line x1="0" y1="120" x2="0" y2="0" stroke="#111111" stroke-width="3.5" stroke-linecap="square" />
<line x1="360" y1="120" x2="360" y2="240" stroke="#111111" stroke-width="1.5" stroke-linecap="square" stroke-dasharray="6 4" />
<line x1="360" y1="240" x2="240" y2="240" stroke="#111111" stroke-width="3.5" stroke-linecap="square" />
<line x1="240" y1="240" x2="240" y2="120" stroke="#111111" stroke-width="3.5" stroke-linecap="square" />
<line x1="360" y1="120" x2="480" y2="120" stroke="#111111" stroke-width="3.5" stroke-linecap="square" />
<line x1="480" y1="120" x2="480" y2="240" stroke="#111111" stroke-width="1.5" stroke-linecap="square" stroke-dasharray="6 4" />
<line x1="480" y1="240" x2="360" y2="240" stroke="#111111" stroke-width="3.5" stroke-linecap="square" />
<line x1="480" y1="120" x2="600" y2="120" stroke="#111111" stroke-width="3.5" stroke-linecap="square" />
<line x1="600" y1="120" x2="600" y2="240" stroke="#111111" stroke-width="3.5" stroke-linecap="square" />
<line x1="600" y1="240" x2="480" y2="240" stroke="#111111" stroke-width="3.5" stroke-linecap="square" />
<g data-point-labels="true" font-family="sans-serif" font-size="14" font-weight="700" fill="#111111" text-anchor="middle" dominant-baseline="middle"><text x="-8.00" y="0.00">ㄱ</text><text x="112.93" y="-7.07">ㄴ</text><text x="232.93" y="-7.07">ㄷ</text><text x="365.66" y="-5.66">ㄹ</text><text x="367.07" y="112.93">ㅁ</text><text x="487.07" y="112.93">ㅂ</text><text x="608.00" y="120.00">ㅅ</text><text x="608.00" y="240.00">ㅇ</text><text x="487.07" y="247.07">ㅈ</text><text x="367.07" y="247.07">ㅊ</text><text x="234.34" y="245.66">ㅋ</text><text x="232.93" y="127.07">ㅌ</text><text x="112.93" y="127.07">ㅍ</text><text x="-8.00" y="120.00">ㅎ</text></g></svg>