<?xml version='1.0' encoding='utf-8'?>
<svg xmlns="http://www.w3.org/2000/svg" width="600" height="480" viewBox="-196.00 -196.00 872.00 752.00" shape-rendering="crispEdges">
<defs>
    <pattern id="gridMinor" width="40" height="40" patternUnits="userSpaceOnUse">
      <path d="M 40 0 L 0 0 0 40" fill="none" stroke="#e2e8f0" stroke-width="1" />
    </pattern>
    <pattern id="gridMajor" width="200" height="200" patternUnits="userSpaceOnUse">
      <path d="M 200 0 L 0 0 0 200" fill="none" stroke="#cbd5e1" stroke-width="1" />
    </pattern></defs>
<rect x="-60" y="-60" width="600" height="480" fill="white" />
<rect x="-60" y="-60" width="600" height="480" fill="url(#gridMinor)" />
<rect x="-60" y="-60" width="600" height="480" fill="url(#gridMajor)" />
<line x1="0" y1="120" x2="120" y2="120" stroke="#111111" stroke-width="1.5" stroke-linecap="square" stroke-dasharray="6 4" />
<line x1="120" y1="120" x2="120" y2="240" stroke="#111111" stroke-width="1.5" stroke-linecap="square" stroke-dasharray="6 4" />
<line x1="120" y1="240" x2="0" y2="240" stroke="#111111" stroke-width="1.5" stroke-linecap="square" stroke-dasharray="6 4" />
<line x1="0" y1="240" x2="0" y2="120" stroke="#111111" stroke-width="3.5" stroke-linecap="square" />
<line x1="120" y1="120" x2="240" y2="120" stroke="#111111" stroke-width="3.5" stroke-linecap="square" />
<line x1="240" y1="120" x2="240" y2="240" stroke="#111111" stroke-width="1.5" stroke-linecap="square" stroke-dasharray="6 4" />
<line x1="240" y1="240" x2="120" y2="240" stroke="#111111" stroke-width="3.5" stroke-linecap="square" />
<line x1="240" y1="120" x2="360" y2="120" stroke="#111111" stroke-width="3.5" stroke-linecap="square" />
<line x1="360" y1="120" x2="360" y2="240" stroke="#111111" stroke-width="1.5" stroke-linecap="square" stroke-dasharray="6 4" />
<line x1="360" y1="240" x2="240" y2="240" stroke="#111111" stroke-width="3.5" stroke-linecap="square" />
<line x1="360" y1="120" x2="480" y2="120" stroke="#111111" stroke-width="3.5" stroke-linecap="square" />
<line x1="480" y1="120" x2="480" y2="240" stroke="#111111" stroke-width="3.5" stroke-linecap="square" />
<line x1="480" y1="240" x2="360" y2="240" stroke="#111111" stroke-width="3.5" stroke-linecap="square" />
<line x1="0" y1="0" x2="120" y2="0" stroke="#111111" stroke-width="3.5" stroke-linecap="square" />
<line x1="120" y1="0" x2="120" y2="120" stroke="#111111" stroke-width="3.5" stroke-linecap="square" />
<line x1="0" y1="120" x2="0" y2="0" stroke="#111111" stroke-width="3.5" stroke-linecap="square" />
<line x1="120" y1="240" x2="120" y2="360" stroke="#111111" stroke-width="3.5" stroke-linecap="square" />
<line x1="120" y1="360" x2="0" y2="360" stroke="#111111" stroke-width="3.5" stroke-linecap="square" />
<line x1="0" y1="360" x2="0" y2="240" stroke="#111111" stroke-width="3.5" stroke-linecap="square" />
<g font-family="sans-serif" font-size="14" font-weight="700" fill="#111111" text-anchor="middle" dominant-baseline="middle">
  </g>
<g data-point-labels="true" font-family="sans-serif" font-size="14" font-weight="700" fill="#111111" text-anchor="middle" dominant-baseline="middle"><text x="-8.49" y="-8.49">ㄱ</text><text x="120.00" y="-12.00">ㄴ</text><text x="108.69" y="108.69">ㄷ</text><text x="251.31" y="108.69">ㄹ</text><text x="371.31" y="108.69">ㅁ</text><text x="492.00" y="120.00">ㅂ</text><text x="492.00" y="240.00">ㅅ</text><text x="371.31" y="251.31">ㅇ</text><text x="251.31" y="251.31">ㅈ</text><text x="108.69" y="251.31">ㅊ</text><text x="120.00" y="372.00">ㅋ</text><text x="-8.49" y="368.49">ㅌ</text><text x="-12.00" y="240.00">ㅍ</text><text x="-12.00" y="120.00">ㅎ</text></g></svg>