<?xml version='1.0' encoding='utf-8'?>
<svg xmlns="http://www.w3.org/2000/svg" width="400" height="240" viewBox="-76.00 -76.00 552.00 392.00" shape-rendering="crispEdges">
<defs>
    <pattern id="gridMinor" width="40" height="40" patternUnits="userSpaceOnUse">
      <path d="M 40 0 L 0 0 0 40" fill="none" stroke="#e2e8f0" stroke-width="1" />
    </pattern>
    <pattern id="gridMajor" width="200" height="200" patternUnits="userSpaceOnUse">
      <path d="M 200 0 L 0 0 0 200" fill="none" stroke="#cbd5e1" stroke-width="1" />
    </pattern></defs>
<rect width="448.00" height="288.00" fill="white" x="-24.00" y="-24.00" />
<rect width="448.00" height="288.00" fill="url(#gridMinor)" x="-24.00" y="-24.00" />
<rect width="448.00" height="288.00" fill="url(#gridMajor)" x="-24.00" y="-24.00" />
<line x1="120" y1="80" x2="0" y2="80" stroke="#111111" stroke-width="1.5" stroke-linecap="square" stroke-dasharray="6 4" />
<line x1="120" y1="240" x2="120" y2="80" stroke="#111111" stroke-width="1.5" stroke-linecap="square" stroke-dasharray="6 4" />
<line x1="120" y1="240" x2="0" y2="240" stroke="#111111" stroke-width="3.5" stroke-linecap="square" />
<line x1="0" y1="240" x2="0" y2="80" stroke="#111111" stroke-width="3.5" stroke-linecap="square" />
<line x1="120" y1="80" x2="200" y2="80" stroke="#111111" stroke-width="3.5" stroke-linecap="square" />
<line x1="200" y1="240" x2="200" y2="80" stroke="#111111" stroke-width="1.5" stroke-linecap="square" stroke-dasharray="6 4" />
<line x1="200" y1="240" x2="120" y2="240" stroke="#111111" stroke-width="3.5" stroke-linecap="square" />
<line x1="320" y1="80" x2="200" y2="80" stroke="#111111" stroke-width="1.5" stroke-linecap="square" stroke-dasharray="6 4" />
<line x1="320" y1="240" x2="320" y2="80" stroke="#111111" stroke-width="1.5" stroke-linecap="square" stroke-dasharray="6 4" />
<line x1="320" y1="240" x2="200" y2="240" stroke="#111111" stroke-width="3.5" stroke-linecap="square" />
<line x1="320" y1="80" x2="400" y2="80" stroke="#111111" stroke-width="3.5" stroke-linecap="square" />
<line x1="400" y1="80" x2="400" y2="240" stroke="#111111" stroke-width="3.5" stroke-linecap="square" />
<line x1="400" y1="240" x2="320" y2="240" stroke="#111111" stroke-width="3.5" stroke-linecap="square" />
<line x1="0" y1="0" x2="120" y2="0" stroke="#111111" stroke-width="3.5" stroke-linecap="square" />
<line x1="120" y1="0" x2="120" y2="80" stroke="#111111" stroke-width="3.5" stroke-linecap="square" />
<line x1="0" y1="80" x2="0" y2="0" stroke="#111111" stroke-width="3.5" stroke-linecap="square" />
<line x1="200" y1="0" x2="320" y2="0" stroke="#111111" stroke-width="3.5" stroke-linecap="square" />
<line x1="320" y1="0" x2="320" y2="80" stroke="#111111" stroke-width="3.5" stroke-linecap="square" />
<line x1="200" y1="80" x2="200" y2="0" stroke="#111111" stroke-width="3.5" stroke-linecap="square" />
<g data-point-labels="true" font-family="sans-serif" font-size="20" font-weight="700" fill="#111111" text-anchor="middle" dominant-baseline="middle"><text x="-7.07" y="-7.07">ㄱ</text><text x="111.51" y="-8.49">ㄴ</text><text x="200.00" y="-10.00">ㄷ</text><text x="208.49" y="71.51">ㄹ</text><text x="327.07" y="-7.07">ㅁ</text><text x="328.49" y="71.51">ㅂ</text><text x="410.00" y="80.00">ㅅ</text><text x="407.07" y="247.07">ㅇ</text><text x="328.49" y="248.49">ㅈ</text><text x="200.00" y="250.00">ㅊ</text><text x="111.51" y="248.49">ㅋ</text><text x="-7.07" y="247.07">ㅌ</text><text x="-10.00" y="80.00">ㅍ</text><text x="111.51" y="71.51">ㅎ</text></g></svg>