<?xml version='1.0' encoding='utf-8'?>
<svg xmlns="http://www.w3.org/2000/svg" width="480" height="280" viewBox="-76.00 -76.00 632.00 432.00" shape-rendering="crispEdges">
<defs>
    <pattern id="gridMinor" width="40" height="40" patternUnits="userSpaceOnUse">
      <path d="M 40 0 L 0 0 0 40" fill="none" stroke="#e2e8f0" stroke-width="1" />
    </pattern>
    <pattern id="gridMajor" width="200" height="200" patternUnits="userSpaceOnUse">
      <path d="M 200 0 L 0 0 0 200" fill="none" stroke="#cbd5e1" stroke-width="1" />
    </pattern></defs>
<rect width="528.00" height="328.00" fill="white" x="-24.00" y="-24.00" />
<rect width="528.00" height="328.00" fill="url(#gridMinor)" x="-24.00" y="-24.00" />
<rect width="528.00" height="328.00" fill="url(#gridMajor)" x="-24.00" y="-24.00" />
<line x1="160" y1="120" x2="80" y2="120" stroke="#111111" stroke-width="1.5" stroke-linecap="square" stroke-dasharray="6 4" />
<line x1="160" y1="280" x2="160" y2="120" stroke="#111111" stroke-width="1.5" stroke-linecap="square" stroke-dasharray="6 4" />
<line x1="160" y1="280" x2="80" y2="280" stroke="#111111" stroke-width="3.5" stroke-linecap="square" />
<line x1="80" y1="280" x2="80" y2="120" stroke="#111111" stroke-width="3.5" stroke-linecap="square" />
<line x1="160" y1="120" x2="280" y2="120" stroke="#111111" stroke-width="3.5" stroke-linecap="square" />
<line x1="280" y1="280" x2="280" y2="120" stroke="#111111" stroke-width="1.5" stroke-linecap="square" stroke-dasharray="6 4" />
<line x1="280" y1="280" x2="160" y2="280" stroke="#111111" stroke-width="3.5" stroke-linecap="square" />
<line x1="280" y1="120" x2="360" y2="120" stroke="#111111" stroke-width="3.5" stroke-linecap="square" />
<line x1="360" y1="280" x2="360" y2="120" stroke="#111111" stroke-width="1.5" stroke-linecap="square" stroke-dasharray="6 4" />
<line x1="360" y1="280" x2="280" y2="280" stroke="#111111" stroke-width="3.5" stroke-linecap="square" />
<line x1="360" y1="120" x2="480" y2="120" stroke="#111111" stroke-width="3.5" stroke-linecap="square" />
<line x1="480" y1="120" x2="480" y2="280" stroke="#111111" stroke-width="3.5" stroke-linecap="square" />
<line x1="480" y1="280" x2="360" y2="280" stroke="#111111" stroke-width="3.5" stroke-linecap="square" />
<line x1="80" y1="0" x2="160" y2="0" stroke="#111111" stroke-width="3.5" stroke-linecap="square" />
<line x1="160" y1="0" x2="160" y2="120" stroke="#111111" stroke-width="3.5" stroke-linecap="square" />
<line x1="80" y1="0" x2="80" y2="120" stroke="#111111" stroke-width="1.5" stroke-linecap="square" stroke-dasharray="6 4" />
<line x1="0" y1="0" x2="80" y2="0" stroke="#111111" stroke-width="3.5" stroke-linecap="square" />
<line x1="80" y1="120" x2="0" y2="120" stroke="#111111" stroke-width="3.5" stroke-linecap="square" />
<line x1="0" y1="120" x2="0" y2="0" stroke="#111111" stroke-width="3.5" stroke-linecap="square" />
<g data-point-labels="true" font-family="sans-serif" font-size="20" font-weight="700" fill="#111111" text-anchor="middle" dominant-baseline="middle"><text x="-7.07" y="-7.07">ㄱ</text><text x="71.51" y="-8.49">ㄴ</text><text x="160.00" y="-10.00">ㄷ</text><text x="288.49" y="111.51">ㄹ</text><text x="368.49" y="111.51">ㅁ</text><text x="490.00" y="120.00">ㅂ</text><text x="487.07" y="287.07">ㅅ</text><text x="368.49" y="288.49">ㅇ</text><text x="288.49" y="288.49">ㅈ</text><text x="160.00" y="290.00">ㅊ</text><text x="72.93" y="287.07">ㅋ</text><text x="-10.00" y="120.00">ㅌ</text><text x="71.51" y="111.51">ㅍ</text><text x="151.51" y="111.51">ㅎ</text></g></svg>