<?xml version='1.0' encoding='utf-8'?>
<svg xmlns="http://www.w3.org/2000/svg" width="289.33" height="236" viewBox="-37.87 -37.87 289.07 235.73" shape-rendering="crispEdges">
<defs>
    <pattern id="gridMinor" width="40" height="40" patternUnits="userSpaceOnUse">
      <path d="M 40 0 L 0 0 0 40" fill="none" stroke="#94a3b8" stroke-width="1.4" />
    </pattern>
    <pattern id="gridMajor" width="200" height="200" patternUnits="userSpaceOnUse">
      <path d="M 200 0 L 0 0 0 200" fill="none" stroke="#64748b" stroke-width="1.4" />
    </pattern></defs>
<rect width="289.07" height="235.73" fill="white" x="-37.87" y="-37.87" />
<rect width="289.07" height="235.73" fill="url(#gridMinor)" x="-37.87" y="-37.87" />
<rect width="289.07" height="235.73" fill="url(#gridMajor)" x="-37.87" y="-37.87" />
<rect x="160" y="53.33" width="53.33" height="53.33" fill="#fecaca" fill-opacity="0.55" />
<line x1="0" y1="53.33" x2="53.33" y2="53.33" stroke="#111111" stroke-width="4.9" stroke-linecap="square" />
<line x1="53.33" y1="106.67" x2="53.33" y2="53.33" stroke="#111111" stroke-width="2.1" stroke-linecap="square" stroke-dasharray="6 4" />
<line x1="53.33" y1="106.67" x2="0" y2="106.67" stroke="#111111" stroke-width="4.9" stroke-linecap="square" />
<line x1="0" y1="106.67" x2="0" y2="53.33" stroke="#111111" stroke-width="4.9" stroke-linecap="square" />
<line x1="106.67" y1="53.33" x2="53.33" y2="53.33" stroke="#111111" stroke-width="2.1" stroke-linecap="square" stroke-dasharray="6 4" />
<line x1="106.67" y1="106.67" x2="106.67" y2="53.33" stroke="#111111" stroke-width="2.1" stroke-linecap="square" stroke-dasharray="6 4" />
<line x1="53.33" y1="106.67" x2="106.67" y2="106.67" stroke="#111111" stroke-width="2.1" stroke-linecap="square" stroke-dasharray="6 4" />
<line x1="106.67" y1="53.33" x2="160" y2="53.33" stroke="#111111" stroke-width="4.9" stroke-linecap="square" />
<line x1="160" y1="106.67" x2="160" y2="53.33" stroke="#111111" stroke-width="2.1" stroke-linecap="square" stroke-dasharray="6 4" />
<line x1="160" y1="106.67" x2="106.67" y2="106.67" stroke="#111111" stroke-width="4.9" stroke-linecap="square" />
<line x1="160" y1="53.33" x2="213.33" y2="53.33" stroke="#111111" stroke-width="4.9" stroke-linecap="square" />
<line x1="213.33" y1="53.33" x2="213.33" y2="106.67" stroke="#111111" stroke-width="4.9" stroke-linecap="square" />
<line x1="213.33" y1="106.67" x2="160" y2="106.67" stroke="#111111" stroke-width="4.9" stroke-linecap="square" />
<line x1="53.33" y1="0" x2="106.67" y2="0" stroke="#111111" stroke-width="4.9" stroke-linecap="square" />
<line x1="106.67" y1="0" x2="106.67" y2="53.33" stroke="#111111" stroke-width="4.9" stroke-linecap="square" />
<line x1="53.33" y1="53.33" x2="53.33" y2="0" stroke="#111111" stroke-width="4.9" stroke-linecap="square" />
<line x1="106.67" y1="106.67" x2="106.67" y2="160" stroke="#111111" stroke-width="4.9" stroke-linecap="square" />
<line x1="106.67" y1="160" x2="53.33" y2="160" stroke="#111111" stroke-width="4.9" stroke-linecap="square" />
<line x1="53.33" y1="160" x2="53.33" y2="106.67" stroke="#111111" stroke-width="4.9" stroke-linecap="square" />
<g data-point-labels="true" font-family="sans-serif" font-size="18.67" font-weight="700" fill="#111111" text-anchor="middle" dominant-baseline="middle"><text x="42.01" y="-11.32">ㄱ</text><text x="106.67" y="-16">ㄴ</text><text x="121.75" y="38.25">ㄷ</text><text x="175.08" y="38.25">ㄹ</text><text x="229.33" y="53.33">ㅁ</text><text x="229.33" y="106.67">ㅂ</text><text x="175.08" y="121.75">ㅅ</text><text x="121.75" y="121.75">ㅇ</text><text x="106.67" y="176">ㅈ</text><text x="42.01" y="171.32">ㅊ</text><text x="38.25" y="121.75">ㅋ</text><text x="-16" y="106.67">ㅌ</text><text x="-16" y="53.33">ㅍ</text><text x="38.25" y="38.25">ㅎ</text></g></svg>