<?xml version='1.0' encoding='utf-8'?>
<svg xmlns="http://www.w3.org/2000/svg" width="480" height="440" viewBox="-24.00 -24.00 528.00 488.00" shape-rendering="crispEdges">
<defs>
    <pattern id="gridMinor" width="40" height="40" patternUnits="userSpaceOnUse">
      <path d="M 40 0 L 0 0 0 40" fill="none" stroke="#e2e8f0" stroke-width="1" />
    </pattern>
    <pattern id="gridMajor" width="200" height="200" patternUnits="userSpaceOnUse">
      <path d="M 200 0 L 0 0 0 200" fill="none" stroke="#cbd5e1" stroke-width="1" />
    </pattern></defs>
<rect width="528.00" height="488.00" fill="white" x="-24.00" y="-24.00" />
<rect width="528.00" height="488.00" fill="url(#gridMinor)" x="-24.00" y="-24.00" />
<rect width="528.00" height="488.00" fill="url(#gridMajor)" x="-24.00" y="-24.00" />
<rect x="80" y="160" width="160" height="120" fill="#fecaca" fill-opacity="0.55" />
<line x1="80" y1="160" x2="0" y2="160" stroke="#111111" stroke-width="1.5" stroke-linecap="square" stroke-dasharray="6 4" />
<line x1="80" y1="280" x2="80" y2="160" stroke="#111111" stroke-width="1.5" stroke-linecap="square" stroke-dasharray="6 4" />
<line x1="80" y1="280" x2="0" y2="280" stroke="#111111" stroke-width="3.5" stroke-linecap="square" />
<line x1="0" y1="280" x2="0" y2="160" stroke="#111111" stroke-width="3.5" stroke-linecap="square" />
<line x1="80" y1="160" x2="240" y2="160" stroke="#111111" stroke-width="3.5" stroke-linecap="square" />
<line x1="240" y1="280" x2="240" y2="160" stroke="#111111" stroke-width="1.5" stroke-linecap="square" stroke-dasharray="6 4" />
<line x1="240" y1="280" x2="80" y2="280" stroke="#111111" stroke-width="3.5" stroke-linecap="square" />
<line x1="240" y1="160" x2="320" y2="160" stroke="#111111" stroke-width="3.5" stroke-linecap="square" />
<line x1="320" y1="280" x2="320" y2="160" stroke="#111111" stroke-width="1.5" stroke-linecap="square" stroke-dasharray="6 4" />
<line x1="240" y1="280" x2="320" y2="280" stroke="#111111" stroke-width="1.5" stroke-linecap="square" stroke-dasharray="6 4" />
<line x1="320" y1="160" x2="480" y2="160" stroke="#111111" stroke-width="3.5" stroke-linecap="square" />
<line x1="480" y1="160" x2="480" y2="280" stroke="#111111" stroke-width="3.5" stroke-linecap="square" />
<line x1="480" y1="280" x2="320" y2="280" stroke="#111111" stroke-width="3.5" stroke-linecap="square" />
<line x1="0" y1="0" x2="80" y2="0" stroke="#111111" stroke-width="3.5" stroke-linecap="square" />
<line x1="80" y1="0" x2="80" y2="160" stroke="#111111" stroke-width="3.5" stroke-linecap="square" />
<line x1="0" y1="160" x2="0" y2="0" stroke="#111111" stroke-width="3.5" stroke-linecap="square" />
<line x1="320" y1="280" x2="320" y2="440" stroke="#111111" stroke-width="3.5" stroke-linecap="square" />
<line x1="320" y1="440" x2="240" y2="440" stroke="#111111" stroke-width="3.5" stroke-linecap="square" />
<line x1="240" y1="440" x2="240" y2="280" stroke="#111111" stroke-width="3.5" stroke-linecap="square" />
<g data-point-labels="true" font-family="sans-serif" font-size="14" font-weight="700" fill="#111111" text-anchor="middle" dominant-baseline="middle"><text x="-6.83" y="-7.30">ㄱ</text><text x="75.04" y="-8.68">ㄴ</text><text x="244.96" y="151.32">ㄷ</text><text x="328.85" y="155.35">ㄹ</text><text x="489.77" y="157.86">ㅁ</text><text x="489.77" y="282.14">ㅂ</text><text x="328.85" y="284.65">ㅅ</text><text x="244.96" y="288.68">ㅇ</text><text x="324.61" y="448.87">ㅈ</text><text x="241.54" y="449.88">ㅊ</text><text x="70.98" y="284.31">ㅍ</text><text x="-9.60" y="282.80">ㅌ</text><text x="-9.60" y="157.20">ㅎ</text></g></svg>