<?xml version='1.0' encoding='utf-8'?>
<svg xmlns="http://www.w3.org/2000/svg" width="480" height="360" viewBox="-166.00 -166.00 812.00 692.00" shape-rendering="crispEdges">
<defs>
    <pattern id="gridMinor" width="40" height="40" patternUnits="userSpaceOnUse">
      <path d="M 40 0 L 0 0 0 40" fill="none" stroke="#e2e8f0" stroke-width="1" />
    </pattern>
    <pattern id="gridMajor" width="200" height="200" patternUnits="userSpaceOnUse">
      <path d="M 200 0 L 0 0 0 200" fill="none" stroke="#cbd5e1" stroke-width="1" />
    </pattern></defs>
<rect width="528.00" height="408.00" fill="white" x="-24.00" y="-24.00" />
<rect width="528.00" height="408.00" fill="url(#gridMinor)" x="-24.00" y="-24.00" />
<rect width="528.00" height="408.00" fill="url(#gridMajor)" x="-24.00" y="-24.00" />
<line x1="0" y1="120" x2="120" y2="120" stroke="#111111" stroke-width="1.5" stroke-linecap="square" stroke-dasharray="6 4" />
<line x1="120" y1="120" x2="120" y2="240" stroke="#111111" stroke-width="1.5" stroke-linecap="square" stroke-dasharray="6 4" />
<line x1="120" y1="240" x2="0" y2="240" stroke="#111111" stroke-width="3.5" stroke-linecap="square" />
<line x1="0" y1="240" x2="0" y2="120" stroke="#111111" stroke-width="3.5" stroke-linecap="square" />
<line x1="120" y1="120" x2="240" y2="120" stroke="#111111" stroke-width="3.5" stroke-linecap="square" />
<line x1="240" y1="120" x2="240" y2="240" stroke="#111111" stroke-width="1.5" stroke-linecap="square" stroke-dasharray="6 4" />
<line x1="240" y1="240" x2="120" y2="240" stroke="#111111" stroke-width="3.5" stroke-linecap="square" />
<line x1="240" y1="120" x2="360" y2="120" stroke="#111111" stroke-width="3.5" stroke-linecap="square" />
<line x1="360" y1="120" x2="360" y2="240" stroke="#111111" stroke-width="1.5" stroke-linecap="square" stroke-dasharray="6 4" />
<line x1="360" y1="240" x2="240" y2="240" stroke="#111111" stroke-width="3.5" stroke-linecap="square" />
<line x1="360" y1="120" x2="480" y2="120" stroke="#111111" stroke-width="3.5" stroke-linecap="square" />
<line x1="480" y1="120" x2="480" y2="240" stroke="#111111" stroke-width="3.5" stroke-linecap="square" />
<line x1="480" y1="240" x2="360" y2="240" stroke="#111111" stroke-width="1.5" stroke-linecap="square" stroke-dasharray="6 4" />
<line x1="0" y1="0" x2="120" y2="0" stroke="#111111" stroke-width="3.5" stroke-linecap="square" />
<line x1="120" y1="0" x2="120" y2="120" stroke="#111111" stroke-width="3.5" stroke-linecap="square" />
<line x1="0" y1="120" x2="0" y2="0" stroke="#111111" stroke-width="3.5" stroke-linecap="square" />
<line x1="480" y1="240" x2="480" y2="360" stroke="#111111" stroke-width="3.5" stroke-linecap="square" />
<line x1="480" y1="360" x2="360" y2="360" stroke="#111111" stroke-width="3.5" stroke-linecap="square" />
<line x1="360" y1="360" x2="360" y2="240" stroke="#111111" stroke-width="3.5" stroke-linecap="square" />
<g data-point-labels="true" font-family="sans-serif" font-size="14" font-weight="700" fill="#111111" text-anchor="middle" dominant-baseline="middle"><text x="-8.49" y="-8.49">ㄱ</text><text x="-12.00" y="120.00">ㄴ</text><text x="-12.00" y="240.00">ㄷ</text><text x="108.69" y="251.31">ㄹ</text><text x="240.00" y="252.00">ㅁ</text><text x="371.31" y="251.31">ㅂ</text><text x="371.31" y="371.31">ㅅ</text><text x="488.49" y="368.49">ㅇ</text><text x="492.00" y="240.00">ㅈ</text><text x="492.00" y="120.00">ㅊ</text><text x="371.31" y="108.69">ㅋ</text><text x="240.00" y="108.00">ㅌ</text><text x="108.69" y="108.69">ㅍ</text><text x="108.69" y="-11.31">ㅎ</text></g></svg>