<?xml version='1.0' encoding='utf-8'?>
<svg xmlns="http://www.w3.org/2000/svg" width="440" height="400" viewBox="-166.00 -166.00 772.00 732.00" shape-rendering="crispEdges">
<defs>
    <pattern id="gridMinor" width="40" height="40" patternUnits="userSpaceOnUse">
      <path d="M 40 0 L 0 0 0 40" fill="none" stroke="#e2e8f0" stroke-width="1" />
    </pattern>
    <pattern id="gridMajor" width="200" height="200" patternUnits="userSpaceOnUse">
      <path d="M 200 0 L 0 0 0 200" fill="none" stroke="#cbd5e1" stroke-width="1" />
    </pattern></defs>
<rect width="488.00" height="448.00" fill="white" x="-24.00" y="-24.00" />
<rect width="488.00" height="448.00" fill="url(#gridMinor)" x="-24.00" y="-24.00" />
<rect width="488.00" height="448.00" fill="url(#gridMajor)" x="-24.00" y="-24.00" />
<line x1="240" y1="120" x2="360" y2="120" stroke="#111111" stroke-width="3.5" stroke-linecap="square" />
<line x1="360" y1="120" x2="360" y2="280" stroke="#111111" stroke-width="1.5" stroke-linecap="square" stroke-dasharray="6 4" />
<line x1="360" y1="280" x2="240" y2="280" stroke="#111111" stroke-width="3.5" stroke-linecap="square" />
<line x1="240" y1="280" x2="240" y2="120" stroke="#111111" stroke-width="1.5" stroke-linecap="square" stroke-dasharray="6 4" />
<line x1="160" y1="120" x2="240" y2="120" stroke="#111111" stroke-width="1.5" stroke-linecap="square" stroke-dasharray="6 4" />
<line x1="240" y1="280" x2="160" y2="280" stroke="#111111" stroke-width="3.5" stroke-linecap="square" />
<line x1="160" y1="280" x2="160" y2="120" stroke="#111111" stroke-width="3.5" stroke-linecap="square" />
<line x1="360" y1="120" x2="440" y2="120" stroke="#111111" stroke-width="3.5" stroke-linecap="square" />
<line x1="440" y1="120" x2="440" y2="280" stroke="#111111" stroke-width="3.5" stroke-linecap="square" />
<line x1="440" y1="280" x2="360" y2="280" stroke="#111111" stroke-width="1.5" stroke-linecap="square" stroke-dasharray="6 4" />
<line x1="160" y1="0" x2="240" y2="0" stroke="#111111" stroke-width="3.5" stroke-linecap="square" />
<line x1="240" y1="0" x2="240" y2="120" stroke="#111111" stroke-width="3.5" stroke-linecap="square" />
<line x1="160" y1="120" x2="160" y2="0" stroke="#111111" stroke-width="1.5" stroke-linecap="square" stroke-dasharray="6 4" />
<line x1="0" y1="0" x2="160" y2="0" stroke="#111111" stroke-width="3.5" stroke-linecap="square" />
<line x1="160" y1="120" x2="0" y2="120" stroke="#111111" stroke-width="3.5" stroke-linecap="square" />
<line x1="0" y1="120" x2="0" y2="0" stroke="#111111" stroke-width="3.5" stroke-linecap="square" />
<line x1="440" y1="280" x2="440" y2="400" stroke="#111111" stroke-width="3.5" stroke-linecap="square" />
<line x1="440" y1="400" x2="360" y2="400" stroke="#111111" stroke-width="3.5" stroke-linecap="square" />
<line x1="360" y1="400" x2="360" y2="280" stroke="#111111" stroke-width="3.5" stroke-linecap="square" />
<g data-point-labels="true" font-family="sans-serif" font-size="20" font-weight="700" fill="#111111" text-anchor="middle" dominant-baseline="middle"><text x="-8.49" y="-8.49">ㄱ</text><text x="-12.00" y="120.00">ㄴ</text><text x="148.69" y="108.69">ㄷ</text><text x="151.51" y="288.49">ㄹ</text><text x="240.00" y="292.00">ㅁ</text><text x="371.31" y="291.31">ㅂ</text><text x="371.31" y="411.31">ㅅ</text><text x="448.49" y="408.49">ㅇ</text><text x="451.31" y="291.31">ㅈ</text><text x="452.00" y="120.00">ㅊ</text><text x="371.31" y="108.69">ㅋ</text><text x="228.69" y="108.69">ㅌ</text><text x="240.00" y="-12.00">ㅍ</text><text x="148.69" y="-11.31">ㅎ</text></g></svg>