<?xml version='1.0' encoding='utf-8'?>
<svg xmlns="http://www.w3.org/2000/svg" width="560" height="320" viewBox="-166.00 -166.00 892.00 652.00" shape-rendering="crispEdges">
<defs>
    <pattern id="gridMinor" width="40" height="40" patternUnits="userSpaceOnUse">
      <path d="M 40 0 L 0 0 0 40" fill="none" stroke="#e2e8f0" stroke-width="1" />
    </pattern>
    <pattern id="gridMajor" width="200" height="200" patternUnits="userSpaceOnUse">
      <path d="M 200 0 L 0 0 0 200" fill="none" stroke="#cbd5e1" stroke-width="1" />
    </pattern></defs>
<rect width="608.00" height="368.00" fill="white" x="-24.00" y="-24.00" />
<rect width="608.00" height="368.00" fill="url(#gridMinor)" x="-24.00" y="-24.00" />
<rect width="608.00" height="368.00" fill="url(#gridMajor)" x="-24.00" y="-24.00" />
<line x1="0" y1="120" x2="120" y2="120" stroke="#111111" stroke-width="3.5" stroke-linecap="square" />
<line x1="120" y1="120" x2="120" y2="200" stroke="#111111" stroke-width="1.5" stroke-linecap="square" stroke-dasharray="6 4" />
<line x1="120" y1="200" x2="0" y2="200" stroke="#111111" stroke-width="3.5" stroke-linecap="square" />
<line x1="0" y1="200" x2="0" y2="120" stroke="#111111" stroke-width="3.5" stroke-linecap="square" />
<line x1="120" y1="120" x2="280" y2="120" stroke="#111111" stroke-width="1.5" stroke-linecap="square" stroke-dasharray="6 4" />
<line x1="280" y1="120" x2="280" y2="200" stroke="#111111" stroke-width="1.5" stroke-linecap="square" stroke-dasharray="6 4" />
<line x1="280" y1="200" x2="120" y2="200" stroke="#111111" stroke-width="1.5" stroke-linecap="square" stroke-dasharray="6 4" />
<line x1="280" y1="120" x2="400" y2="120" stroke="#111111" stroke-width="3.5" stroke-linecap="square" />
<line x1="400" y1="120" x2="400" y2="200" stroke="#111111" stroke-width="1.5" stroke-linecap="square" stroke-dasharray="6 4" />
<line x1="400" y1="200" x2="280" y2="200" stroke="#111111" stroke-width="3.5" stroke-linecap="square" />
<line x1="400" y1="120" x2="560" y2="120" stroke="#111111" stroke-width="3.5" stroke-linecap="square" />
<line x1="560" y1="120" x2="560" y2="200" stroke="#111111" stroke-width="3.5" stroke-linecap="square" />
<line x1="560" y1="200" x2="400" y2="200" stroke="#111111" stroke-width="3.5" stroke-linecap="square" />
<line x1="120" y1="0" x2="280" y2="0" stroke="#111111" stroke-width="3.5" stroke-linecap="square" />
<line x1="280" y1="0" x2="280" y2="120" stroke="#111111" stroke-width="3.5" stroke-linecap="square" />
<line x1="120" y1="120" x2="120" y2="0" stroke="#111111" stroke-width="3.5" stroke-linecap="square" />
<line x1="280" y1="200" x2="280" y2="320" stroke="#111111" stroke-width="3.5" stroke-linecap="square" />
<line x1="280" y1="320" x2="120" y2="320" stroke="#111111" stroke-width="3.5" stroke-linecap="square" />
<line x1="120" y1="320" x2="120" y2="200" stroke="#111111" stroke-width="3.5" stroke-linecap="square" />
<g data-point-labels="true" font-family="sans-serif" font-size="20" font-weight="700" fill="#111111" text-anchor="middle" dominant-baseline="middle"><text x="111.51" y="-8.49">ㄱ</text><text x="108.69" y="108.69">ㄴ</text><text x="-12.00" y="120.00">ㄷ</text><text x="-12.00" y="200.00">ㄹ</text><text x="108.69" y="211.31">ㅁ</text><text x="111.51" y="328.49">ㅂ</text><text x="280.00" y="332.00">ㅅ</text><text x="291.31" y="211.31">ㅇ</text><text x="411.31" y="211.31">ㅈ</text><text x="572.00" y="200.00">ㅊ</text><text x="572.00" y="120.00">ㅋ</text><text x="411.31" y="108.69">ㅌ</text><text x="291.31" y="108.69">ㅍ</text><text x="280.00" y="-12.00">ㅎ</text></g></svg>