<?xml version='1.0' encoding='utf-8'?>
<svg xmlns="http://www.w3.org/2000/svg" width="160" height="80" viewBox="-24.00 -24.00 208.00 128.00" shape-rendering="crispEdges">
<defs>
    <pattern id="gridMinor" width="40" height="40" patternUnits="userSpaceOnUse">
      <path d="M 40 0 L 0 0 0 40" fill="none" stroke="#e2e8f0" stroke-width="1" />
    </pattern>
    <pattern id="gridMajor" width="200" height="200" patternUnits="userSpaceOnUse">
      <path d="M 200 0 L 0 0 0 200" fill="none" stroke="#cbd5e1" stroke-width="1" />
    </pattern></defs>
<rect width="208.00" height="128.00" fill="white" x="-24.00" y="-24.00" />
<rect width="208.00" height="128.00" fill="url(#gridMinor)" x="-24.00" y="-24.00" />
<rect width="208.00" height="128.00" fill="url(#gridMajor)" x="-24.00" y="-24.00" />
<line x1="40" y1="0" x2="80" y2="0" stroke="#111111" stroke-width="3.5" stroke-linecap="square" />
<line x1="80" y1="40" x2="80" y2="0" stroke="#111111" stroke-width="1.5" stroke-linecap="square" stroke-dasharray="6 4" />
<line x1="40" y1="40" x2="80" y2="40" stroke="#111111" stroke-width="1.5" stroke-linecap="square" stroke-dasharray="6 4" />
<line x1="40" y1="0" x2="40" y2="40" stroke="#111111" stroke-width="1.5" stroke-linecap="square" stroke-dasharray="6 4" />
<line x1="80" y1="0" x2="120" y2="0" stroke="#111111" stroke-width="3.5" stroke-linecap="square" />
<line x1="120" y1="40" x2="120" y2="0" stroke="#111111" stroke-width="1.5" stroke-linecap="square" stroke-dasharray="6 4" />
<line x1="120" y1="40" x2="80" y2="40" stroke="#111111" stroke-width="3.5" stroke-linecap="square" />
<line x1="0" y1="0" x2="40" y2="0" stroke="#111111" stroke-width="3.5" stroke-linecap="square" />
<line x1="40" y1="40" x2="0" y2="40" stroke="#111111" stroke-width="3.5" stroke-linecap="square" />
<line x1="0" y1="40" x2="0" y2="0" stroke="#111111" stroke-width="3.5" stroke-linecap="square" />
<line x1="80" y1="40" x2="80" y2="80" stroke="#111111" stroke-width="3.5" stroke-linecap="square" />
<line x1="80" y1="80" x2="40" y2="80" stroke="#111111" stroke-width="3.5" stroke-linecap="square" />
<line x1="40" y1="80" x2="40" y2="40" stroke="#111111" stroke-width="3.5" stroke-linecap="square" />
<line x1="120" y1="0" x2="160" y2="0" stroke="#111111" stroke-width="3.5" stroke-linecap="square" />
<line x1="160" y1="0" x2="160" y2="40" stroke="#111111" stroke-width="3.5" stroke-linecap="square" />
<line x1="120" y1="40" x2="160" y2="40" stroke="#111111" stroke-width="1.5" stroke-linecap="square" stroke-dasharray="6 4" />
<line x1="160" y1="40" x2="160" y2="80" stroke="#111111" stroke-width="3.5" stroke-linecap="square" />
<line x1="160" y1="80" x2="120" y2="80" stroke="#111111" stroke-width="3.5" stroke-linecap="square" />
<line x1="120" y1="80" x2="120" y2="40" stroke="#111111" stroke-width="3.5" stroke-linecap="square" />
<g data-point-labels="true" font-family="sans-serif" font-size="14" font-weight="700" fill="#111111" text-anchor="middle" dominant-baseline="middle"><text x="-9.18" y="-3.98">ㄱ</text><text x="32.24" y="-6.31">ㄴ</text><text x="78.48" y="-9.88">ㄷ</text><text x="126.78" y="-7.35">ㄹ</text><text x="168.94" y="-4.47">ㅁ</text><text x="169.99" y="40.38">ㅂ</text><text x="129.97" y="40.83">ㅅ</text><text x="168.66" y="85.00">ㅇ</text><text x="126.25" y="87.81">ㅈ</text><text x="78.68" y="89.91">ㅊ</text><text x="32.70" y="86.84">ㅍ</text><text x="71.06" y="44.47">ㅌ</text><text x="30.02" y="40.62">ㅎ</text></g></svg>