<?xml version='1.0' encoding='utf-8'?>
<svg xmlns="http://www.w3.org/2000/svg" width="280" height="400" viewBox="-24.00 -24.00 328.00 448.00" shape-rendering="crispEdges">
<defs>
    <pattern id="gridMinor" width="40" height="40" patternUnits="userSpaceOnUse">
      <path d="M 40 0 L 0 0 0 40" fill="none" stroke="#e2e8f0" stroke-width="1" />
    </pattern>
    <pattern id="gridMajor" width="200" height="200" patternUnits="userSpaceOnUse">
      <path d="M 200 0 L 0 0 0 200" fill="none" stroke="#cbd5e1" stroke-width="1" />
    </pattern></defs>
<rect width="328.00" height="448.00" fill="white" x="-24.00" y="-24.00" />
<rect width="328.00" height="448.00" fill="url(#gridMinor)" x="-24.00" y="-24.00" />
<rect width="328.00" height="448.00" fill="url(#gridMajor)" x="-24.00" y="-24.00" />
<line x1="80" y1="120" x2="0" y2="120" stroke="#111111" stroke-width="1.5" stroke-linecap="square" stroke-dasharray="6 4" />
<line x1="80" y1="280" x2="80" y2="120" stroke="#111111" stroke-width="1.5" stroke-linecap="square" stroke-dasharray="6 4" />
<line x1="0" y1="280" x2="80" y2="280" stroke="#111111" stroke-width="1.5" stroke-linecap="square" stroke-dasharray="6 4" />
<line x1="0" y1="280" x2="0" y2="120" stroke="#111111" stroke-width="3.5" stroke-linecap="square" />
<line x1="80" y1="120" x2="200" y2="120" stroke="#111111" stroke-width="3.5" stroke-linecap="square" />
<line x1="200" y1="280" x2="200" y2="120" stroke="#111111" stroke-width="1.5" stroke-linecap="square" stroke-dasharray="6 4" />
<line x1="200" y1="280" x2="80" y2="280" stroke="#111111" stroke-width="3.5" stroke-linecap="square" />
<line x1="200" y1="120" x2="280" y2="120" stroke="#111111" stroke-width="3.5" stroke-linecap="square" />
<line x1="280" y1="120" x2="280" y2="280" stroke="#111111" stroke-width="3.5" stroke-linecap="square" />
<line x1="280" y1="280" x2="200" y2="280" stroke="#111111" stroke-width="3.5" stroke-linecap="square" />
<line x1="0" y1="0" x2="80" y2="0" stroke="#111111" stroke-width="3.5" stroke-linecap="square" />
<line x1="80" y1="0" x2="80" y2="120" stroke="#111111" stroke-width="3.5" stroke-linecap="square" />
<line x1="0" y1="120" x2="0" y2="0" stroke="#111111" stroke-width="3.5" stroke-linecap="square" />
<line x1="80" y1="280" x2="80" y2="400" stroke="#111111" stroke-width="3.5" stroke-linecap="square" />
<line x1="80" y1="400" x2="0" y2="400" stroke="#111111" stroke-width="3.5" stroke-linecap="square" />
<line x1="0" y1="400" x2="0" y2="280" stroke="#111111" stroke-width="3.5" stroke-linecap="square" />
<g data-point-labels="true" font-family="sans-serif" font-size="14" font-weight="700" fill="#111111" text-anchor="middle" dominant-baseline="middle"><text x="-4.71" y="-8.82">ㄱ</text><text x="76.84" y="110.51">ㄴ</text><text x="78.68" y="-9.91">ㄷ</text><text x="207.59" y="113.49">ㄹ</text><text x="289.08" y="115.81">ㅁ</text><text x="289.08" y="284.19">ㅂ</text><text x="207.59" y="286.51">ㅅ</text><text x="78.68" y="409.91">ㅇ</text><text x="76.84" y="289.49">ㅈ</text><text x="-4.71" y="408.82">ㅊ</text><text x="-8.00" y="286.00">ㅍ</text><text x="-8.00" y="114.00">ㅌ</text></g></svg>