<?xml version='1.0' encoding='utf-8'?>
<svg xmlns="http://www.w3.org/2000/svg" width="480" height="480" viewBox="-24.00 -24.00 528.00 528.00" shape-rendering="crispEdges">
<defs>
    <pattern id="gridMinor" width="40" height="40" patternUnits="userSpaceOnUse">
      <path d="M 40 0 L 0 0 0 40" fill="none" stroke="#e2e8f0" stroke-width="1" />
    </pattern>
    <pattern id="gridMajor" width="200" height="200" patternUnits="userSpaceOnUse">
      <path d="M 200 0 L 0 0 0 200" fill="none" stroke="#cbd5e1" stroke-width="1" />
    </pattern></defs>
<rect width="528.00" height="528.00" fill="white" x="-24.00" y="-24.00" />
<rect width="528.00" height="528.00" fill="url(#gridMinor)" x="-24.00" y="-24.00" />
<rect width="528.00" height="528.00" fill="url(#gridMajor)" x="-24.00" y="-24.00" />
<line x1="80" y1="160" x2="0" y2="160" stroke="#111111" stroke-width="1.5" stroke-linecap="square" stroke-dasharray="6 4" />
<line x1="80" y1="280" x2="80" y2="160" stroke="#111111" stroke-width="1.5" stroke-linecap="square" stroke-dasharray="6 4" />
<line x1="0" y1="280" x2="80" y2="280" stroke="#111111" stroke-width="1.5" stroke-linecap="square" stroke-dasharray="6 4" />
<line x1="0" y1="280" x2="0" y2="160" stroke="#111111" stroke-width="3.5" stroke-linecap="square" />
<line x1="80" y1="160" x2="240" y2="160" stroke="#111111" stroke-width="3.5" stroke-linecap="square" />
<line x1="240" y1="280" x2="240" y2="160" stroke="#111111" stroke-width="1.5" stroke-linecap="square" stroke-dasharray="6 4" />
<line x1="240" y1="280" x2="80" y2="280" stroke="#111111" stroke-width="3.5" stroke-linecap="square" />
<line x1="240" y1="160" x2="320" y2="160" stroke="#111111" stroke-width="3.5" stroke-linecap="square" />
<line x1="320" y1="280" x2="320" y2="160" stroke="#111111" stroke-width="1.5" stroke-linecap="square" stroke-dasharray="6 4" />
<line x1="320" y1="280" x2="240" y2="280" stroke="#111111" stroke-width="3.5" stroke-linecap="square" />
<line x1="320" y1="160" x2="480" y2="160" stroke="#111111" stroke-width="3.5" stroke-linecap="square" />
<line x1="480" y1="160" x2="480" y2="280" stroke="#111111" stroke-width="3.5" stroke-linecap="square" />
<line x1="480" y1="280" x2="320" y2="280" stroke="#111111" stroke-width="3.5" stroke-linecap="square" />
<line x1="0" y1="0" x2="80" y2="0" stroke="#111111" stroke-width="3.5" stroke-linecap="square" />
<line x1="80" y1="0" x2="80" y2="160" stroke="#111111" stroke-width="3.5" stroke-linecap="square" />
<line x1="0" y1="160" x2="0" y2="0" stroke="#111111" stroke-width="3.5" stroke-linecap="square" />
<line x1="80" y1="280" x2="80" y2="480" stroke="#111111" stroke-width="3.5" stroke-linecap="square" />
<line x1="80" y1="480" x2="0" y2="480" stroke="#111111" stroke-width="3.5" stroke-linecap="square" />
<line x1="0" y1="480" x2="0" y2="280" stroke="#111111" stroke-width="3.5" stroke-linecap="square" />
<g data-point-labels="true" font-family="sans-serif" font-size="14" font-weight="700" fill="#111111" text-anchor="middle" dominant-baseline="middle"><text x="-6.05" y="-7.96">ㄱ</text><text x="76.25" y="-9.27">ㄴ</text><text x="247.22" y="153.08">ㄷ</text><text x="329.15" y="155.95">ㄹ</text><text x="489.78" y="157.92">ㅁ</text><text x="489.85" y="281.73">ㅂ</text><text x="329.39" y="283.43">ㅅ</text><text x="247.84" y="286.21">ㅇ</text><text x="76.62" y="489.41">ㅈ</text><text x="-5.59" y="488.29">ㅊ</text><text x="71.40" y="285.11">ㅍ</text><text x="-9.53" y="283.02">ㅌ</text><text x="-9.34" y="156.42">ㅎ</text></g></svg>