<?xml version='1.0' encoding='utf-8'?>
<svg xmlns="http://www.w3.org/2000/svg" width="480" height="480" viewBox="-24.00 -24.00 528.00 528.00" shape-rendering="crispEdges">
<defs>
    <pattern id="gridMinor" width="40" height="40" patternUnits="userSpaceOnUse">
      <path d="M 40 0 L 0 0 0 40" fill="none" stroke="#e2e8f0" stroke-width="1" />
    </pattern>
    <pattern id="gridMajor" width="200" height="200" patternUnits="userSpaceOnUse">
      <path d="M 200 0 L 0 0 0 200" fill="none" stroke="#cbd5e1" stroke-width="1" />
    </pattern></defs>
<rect width="528.00" height="528.00" fill="white" x="-24.00" y="-24.00" />
<rect width="528.00" height="528.00" fill="url(#gridMinor)" x="-24.00" y="-24.00" />
<rect width="528.00" height="528.00" fill="url(#gridMajor)" x="-24.00" y="-24.00" />
<line x1="80" y1="200" x2="0" y2="200" stroke="#111111" stroke-width="1.5" stroke-linecap="square" stroke-dasharray="6 4" />
<line x1="80" y1="320" x2="80" y2="200" stroke="#111111" stroke-width="1.5" stroke-linecap="square" stroke-dasharray="6 4" />
<line x1="0" y1="320" x2="80" y2="320" stroke="#111111" stroke-width="1.5" stroke-linecap="square" stroke-dasharray="6 4" />
<line x1="0" y1="320" x2="0" y2="200" stroke="#111111" stroke-width="3.5" stroke-linecap="square" />
<line x1="80" y1="200" x2="240" y2="200" stroke="#111111" stroke-width="3.5" stroke-linecap="square" />
<line x1="240" y1="320" x2="240" y2="200" stroke="#111111" stroke-width="1.5" stroke-linecap="square" stroke-dasharray="6 4" />
<line x1="240" y1="320" x2="80" y2="320" stroke="#111111" stroke-width="3.5" stroke-linecap="square" />
<line x1="240" y1="200" x2="320" y2="200" stroke="#111111" stroke-width="3.5" stroke-linecap="square" />
<line x1="320" y1="320" x2="320" y2="200" stroke="#111111" stroke-width="1.5" stroke-linecap="square" stroke-dasharray="6 4" />
<line x1="320" y1="320" x2="240" y2="320" stroke="#111111" stroke-width="3.5" stroke-linecap="square" />
<line x1="320" y1="200" x2="480" y2="200" stroke="#111111" stroke-width="3.5" stroke-linecap="square" />
<line x1="480" y1="200" x2="480" y2="320" stroke="#111111" stroke-width="3.5" stroke-linecap="square" />
<line x1="480" y1="320" x2="320" y2="320" stroke="#111111" stroke-width="3.5" stroke-linecap="square" />
<line x1="0" y1="0" x2="80" y2="0" stroke="#111111" stroke-width="3.5" stroke-linecap="square" />
<line x1="80" y1="0" x2="80" y2="200" stroke="#111111" stroke-width="3.5" stroke-linecap="square" />
<line x1="0" y1="200" x2="0" y2="0" stroke="#111111" stroke-width="3.5" stroke-linecap="square" />
<line x1="80" y1="320" x2="80" y2="480" stroke="#111111" stroke-width="3.5" stroke-linecap="square" />
<line x1="80" y1="480" x2="0" y2="480" stroke="#111111" stroke-width="3.5" stroke-linecap="square" />
<line x1="0" y1="480" x2="0" y2="320" stroke="#111111" stroke-width="3.5" stroke-linecap="square" />
<g data-point-labels="true" font-family="sans-serif" font-size="14" font-weight="700" fill="#111111" text-anchor="middle" dominant-baseline="middle"><text x="-5.59" y="-8.29">ㄱ</text><text x="76.62" y="-9.41">ㄴ</text><text x="247.84" y="193.79">ㄷ</text><text x="329.39" y="196.57">ㄹ</text><text x="489.85" y="198.27">ㅁ</text><text x="489.78" y="322.08">ㅂ</text><text x="329.15" y="324.05">ㅅ</text><text x="247.22" y="326.92">ㅇ</text><text x="76.25" y="489.27">ㅈ</text><text x="-6.05" y="487.96">ㅊ</text><text x="71.88" y="325.84">ㅍ</text><text x="-9.34" y="323.58">ㅌ</text><text x="-9.53" y="196.98">ㅎ</text></g></svg>