<?xml version='1.0' encoding='utf-8'?>
<svg xmlns="http://www.w3.org/2000/svg" width="480" height="440" viewBox="-24.00 -24.00 528.00 488.00" shape-rendering="crispEdges">
<defs>
    <pattern id="gridMinor" width="40" height="40" patternUnits="userSpaceOnUse">
      <path d="M 40 0 L 0 0 0 40" fill="none" stroke="#e2e8f0" stroke-width="1" />
    </pattern>
    <pattern id="gridMajor" width="200" height="200" patternUnits="userSpaceOnUse">
      <path d="M 200 0 L 0 0 0 200" fill="none" stroke="#cbd5e1" stroke-width="1" />
    </pattern></defs>
<rect width="528.00" height="488.00" fill="white" x="-24.00" y="-24.00" />
<rect width="528.00" height="488.00" fill="url(#gridMinor)" x="-24.00" y="-24.00" />
<rect width="528.00" height="488.00" fill="url(#gridMajor)" x="-24.00" y="-24.00" />
<line x1="0" y1="0" x2="80" y2="0" stroke="#111111" stroke-width="3.5" stroke-linecap="square" />
<line x1="80" y1="120" x2="80" y2="0" stroke="#111111" stroke-width="1.5" stroke-linecap="square" stroke-dasharray="6 4" />
<line x1="0" y1="120" x2="80" y2="120" stroke="#111111" stroke-width="1.5" stroke-linecap="square" stroke-dasharray="6 4" />
<line x1="0" y1="120" x2="0" y2="0" stroke="#111111" stroke-width="3.5" stroke-linecap="square" />
<line x1="80" y1="0" x2="240" y2="0" stroke="#111111" stroke-width="3.5" stroke-linecap="square" />
<line x1="240" y1="120" x2="240" y2="0" stroke="#111111" stroke-width="1.5" stroke-linecap="square" stroke-dasharray="6 4" />
<line x1="240" y1="120" x2="80" y2="120" stroke="#111111" stroke-width="3.5" stroke-linecap="square" />
<line x1="240" y1="0" x2="320" y2="0" stroke="#111111" stroke-width="3.5" stroke-linecap="square" />
<line x1="320" y1="120" x2="320" y2="0" stroke="#111111" stroke-width="1.5" stroke-linecap="square" stroke-dasharray="6 4" />
<line x1="320" y1="120" x2="240" y2="120" stroke="#111111" stroke-width="3.5" stroke-linecap="square" />
<line x1="320" y1="0" x2="480" y2="0" stroke="#111111" stroke-width="3.5" stroke-linecap="square" />
<line x1="480" y1="0" x2="480" y2="120" stroke="#111111" stroke-width="3.5" stroke-linecap="square" />
<line x1="480" y1="120" x2="320" y2="120" stroke="#111111" stroke-width="3.5" stroke-linecap="square" />
<line x1="80" y1="120" x2="80" y2="280" stroke="#111111" stroke-width="3.5" stroke-linecap="square" />
<line x1="0" y1="280" x2="80" y2="280" stroke="#111111" stroke-width="1.5" stroke-linecap="square" stroke-dasharray="6 4" />
<line x1="0" y1="280" x2="0" y2="120" stroke="#111111" stroke-width="3.5" stroke-linecap="square" />
<line x1="80" y1="280" x2="80" y2="440" stroke="#111111" stroke-width="3.5" stroke-linecap="square" />
<line x1="80" y1="440" x2="0" y2="440" stroke="#111111" stroke-width="3.5" stroke-linecap="square" />
<line x1="0" y1="440" x2="0" y2="280" stroke="#111111" stroke-width="3.5" stroke-linecap="square" />
<g data-point-labels="true" font-family="sans-serif" font-size="14" font-weight="700" fill="#111111" text-anchor="middle" dominant-baseline="middle"><text x="-7.62" y="-6.48">ㄱ</text><text x="74.69" y="-8.47">ㄴ</text><text x="244.26" y="-9.05">ㄷ</text><text x="327.14" y="-7.00">ㄹ</text><text x="489.04" y="-4.27">ㅁ</text><text x="249.36" y="116.49">ㅂ</text><text x="329.85" y="118.29">ㅅ</text><text x="489.97" y="119.17">ㅇ</text><text x="77.03" y="449.55">ㅈ</text><text x="-5.03" y="448.64">ㅊ</text><text x="74.37" y="288.27">ㅍ</text><text x="-7.87" y="286.17">ㅌ</text><text x="-9.89" y="118.52">ㅎ</text></g></svg>