<?xml version='1.0' encoding='utf-8'?>
<svg xmlns="http://www.w3.org/2000/svg" width="560" height="240" viewBox="-24.00 -24.00 608.00 288.00" shape-rendering="crispEdges">
<defs>
    <pattern id="gridMinor" width="40" height="40" patternUnits="userSpaceOnUse">
      <path d="M 40 0 L 0 0 0 40" fill="none" stroke="#e2e8f0" stroke-width="1" />
    </pattern>
    <pattern id="gridMajor" width="200" height="200" patternUnits="userSpaceOnUse">
      <path d="M 200 0 L 0 0 0 200" fill="none" stroke="#cbd5e1" stroke-width="1" />
    </pattern></defs>
<rect width="608.00" height="288.00" fill="white" x="-24.00" y="-24.00" />
<rect width="608.00" height="288.00" fill="url(#gridMinor)" x="-24.00" y="-24.00" />
<rect width="608.00" height="288.00" fill="url(#gridMajor)" x="-24.00" y="-24.00" />
<line x1="120" y1="160" x2="0" y2="160" stroke="#111111" stroke-width="1.5" stroke-linecap="square" stroke-dasharray="6 4" />
<line x1="120" y1="240" x2="120" y2="160" stroke="#111111" stroke-width="1.5" stroke-linecap="square" stroke-dasharray="6 4" />
<line x1="120" y1="240" x2="0" y2="240" stroke="#111111" stroke-width="3.5" stroke-linecap="square" />
<line x1="0" y1="240" x2="0" y2="160" stroke="#111111" stroke-width="3.5" stroke-linecap="square" />
<line x1="120" y1="160" x2="280" y2="160" stroke="#111111" stroke-width="3.5" stroke-linecap="square" />
<line x1="280" y1="240" x2="280" y2="160" stroke="#111111" stroke-width="1.5" stroke-linecap="square" stroke-dasharray="6 4" />
<line x1="280" y1="240" x2="120" y2="240" stroke="#111111" stroke-width="3.5" stroke-linecap="square" />
<line x1="400" y1="160" x2="280" y2="160" stroke="#111111" stroke-width="1.5" stroke-linecap="square" stroke-dasharray="6 4" />
<line x1="400" y1="240" x2="400" y2="160" stroke="#111111" stroke-width="1.5" stroke-linecap="square" stroke-dasharray="6 4" />
<line x1="400" y1="240" x2="280" y2="240" stroke="#111111" stroke-width="3.5" stroke-linecap="square" />
<line x1="400" y1="160" x2="560" y2="160" stroke="#111111" stroke-width="3.5" stroke-linecap="square" />
<line x1="560" y1="160" x2="560" y2="240" stroke="#111111" stroke-width="3.5" stroke-linecap="square" />
<line x1="560" y1="240" x2="400" y2="240" stroke="#111111" stroke-width="3.5" stroke-linecap="square" />
<line x1="0" y1="0" x2="120" y2="0" stroke="#111111" stroke-width="3.5" stroke-linecap="square" />
<line x1="120" y1="0" x2="120" y2="160" stroke="#111111" stroke-width="3.5" stroke-linecap="square" />
<line x1="0" y1="160" x2="0" y2="0" stroke="#111111" stroke-width="3.5" stroke-linecap="square" />
<line x1="280" y1="0" x2="400" y2="0" stroke="#111111" stroke-width="3.5" stroke-linecap="square" />
<line x1="400" y1="0" x2="400" y2="160" stroke="#111111" stroke-width="3.5" stroke-linecap="square" />
<line x1="280" y1="160" x2="280" y2="0" stroke="#111111" stroke-width="3.5" stroke-linecap="square" />
<g data-point-labels="true" font-family="sans-serif" font-size="14" font-weight="700" fill="#111111" text-anchor="middle" dominant-baseline="middle"><text x="-8.69" y="-4.94">ㄱ</text><text x="113.23" y="-7.36">ㄴ</text><text x="281.96" y="-9.81">ㄷ</text><text x="407.21" y="-6.93">ㄹ</text><text x="569.98" y="160.55">ㅁ</text><text x="409.93" y="161.15">ㅂ</text><text x="569.54" y="243.00">ㅅ</text><text x="288.57" y="165.14">ㅇ</text><text x="408.37" y="245.47">ㅈ</text><text x="282.82" y="249.59">ㅊ</text><text x="111.96" y="245.94">ㅍ</text><text x="-9.33" y="243.60">ㅌ</text><text x="110.08" y="161.29">ㅎ</text></g></svg>