<?xml version='1.0' encoding='utf-8'?>
<svg xmlns="http://www.w3.org/2000/svg" width="480" height="280" viewBox="-24.00 -24.00 528.00 328.00" shape-rendering="crispEdges">
<defs>
    <pattern id="gridMinor" width="40" height="40" patternUnits="userSpaceOnUse">
      <path d="M 40 0 L 0 0 0 40" fill="none" stroke="#e2e8f0" stroke-width="1" />
    </pattern>
    <pattern id="gridMajor" width="200" height="200" patternUnits="userSpaceOnUse">
      <path d="M 200 0 L 0 0 0 200" fill="none" stroke="#cbd5e1" stroke-width="1" />
    </pattern></defs>
<rect width="528.00" height="328.00" fill="white" x="-24.00" y="-24.00" />
<rect width="528.00" height="328.00" fill="url(#gridMinor)" x="-24.00" y="-24.00" />
<rect width="528.00" height="328.00" fill="url(#gridMajor)" x="-24.00" y="-24.00" />
<line x1="160" y1="120" x2="80" y2="120" stroke="#111111" stroke-width="1.5" stroke-linecap="square" stroke-dasharray="6 4" />
<line x1="160" y1="280" x2="160" y2="120" stroke="#111111" stroke-width="1.5" stroke-linecap="square" stroke-dasharray="6 4" />
<line x1="160" y1="280" x2="80" y2="280" stroke="#111111" stroke-width="3.5" stroke-linecap="square" />
<line x1="80" y1="280" x2="80" y2="120" stroke="#111111" stroke-width="3.5" stroke-linecap="square" />
<line x1="160" y1="120" x2="280" y2="120" stroke="#111111" stroke-width="3.5" stroke-linecap="square" />
<line x1="280" y1="280" x2="280" y2="120" stroke="#111111" stroke-width="1.5" stroke-linecap="square" stroke-dasharray="6 4" />
<line x1="280" y1="280" x2="160" y2="280" stroke="#111111" stroke-width="3.5" stroke-linecap="square" />
<line x1="280" y1="120" x2="360" y2="120" stroke="#111111" stroke-width="3.5" stroke-linecap="square" />
<line x1="360" y1="280" x2="360" y2="120" stroke="#111111" stroke-width="1.5" stroke-linecap="square" stroke-dasharray="6 4" />
<line x1="360" y1="280" x2="280" y2="280" stroke="#111111" stroke-width="3.5" stroke-linecap="square" />
<line x1="360" y1="120" x2="480" y2="120" stroke="#111111" stroke-width="3.5" stroke-linecap="square" />
<line x1="480" y1="120" x2="480" y2="280" stroke="#111111" stroke-width="3.5" stroke-linecap="square" />
<line x1="480" y1="280" x2="360" y2="280" stroke="#111111" stroke-width="3.5" stroke-linecap="square" />
<line x1="80" y1="0" x2="160" y2="0" stroke="#111111" stroke-width="3.5" stroke-linecap="square" />
<line x1="160" y1="0" x2="160" y2="120" stroke="#111111" stroke-width="3.5" stroke-linecap="square" />
<line x1="80" y1="0" x2="80" y2="120" stroke="#111111" stroke-width="1.5" stroke-linecap="square" stroke-dasharray="6 4" />
<line x1="0" y1="0" x2="80" y2="0" stroke="#111111" stroke-width="3.5" stroke-linecap="square" />
<line x1="80" y1="120" x2="0" y2="120" stroke="#111111" stroke-width="3.5" stroke-linecap="square" />
<line x1="0" y1="120" x2="0" y2="0" stroke="#111111" stroke-width="3.5" stroke-linecap="square" />
<g data-point-labels="true" font-family="sans-serif" font-size="14" font-weight="700" fill="#111111" text-anchor="middle" dominant-baseline="middle"><text x="-8.13" y="-5.82">ㄱ</text><text x="73.45" y="-7.55">ㄴ</text><text x="156.78" y="-9.47">ㄷ</text><text x="289.09" y="115.83">ㄹ</text><text x="369.78" y="117.93">ㅁ</text><text x="489.93" y="118.84">ㅂ</text><text x="489.02" y="284.32">ㅅ</text><text x="367.56" y="286.54">ㅇ</text><text x="284.71" y="288.82">ㅈ</text><text x="156.29" y="289.28">ㅊ</text><text x="72.85" y="286.99">ㅍ</text><text x="-9.89" y="118.53">ㅌ</text><text x="70.27" y="117.67">ㅎ</text></g></svg>