<?xml version='1.0' encoding='utf-8'?>
<svg xmlns="http://www.w3.org/2000/svg" width="560" height="200" viewBox="-24.00 -24.00 608.00 248.00" shape-rendering="crispEdges">
<defs>
    <pattern id="gridMinor" width="40" height="40" patternUnits="userSpaceOnUse">
      <path d="M 40 0 L 0 0 0 40" fill="none" stroke="#e2e8f0" stroke-width="1" />
    </pattern>
    <pattern id="gridMajor" width="200" height="200" patternUnits="userSpaceOnUse">
      <path d="M 200 0 L 0 0 0 200" fill="none" stroke="#cbd5e1" stroke-width="1" />
    </pattern></defs>
<rect width="608.00" height="248.00" fill="white" x="-24.00" y="-24.00" />
<rect width="608.00" height="248.00" fill="url(#gridMinor)" x="-24.00" y="-24.00" />
<rect width="608.00" height="248.00" fill="url(#gridMajor)" x="-24.00" y="-24.00" />
<line x1="0" y1="0" x2="160" y2="0" stroke="#111111" stroke-width="3.5" stroke-linecap="square" />
<line x1="160" y1="80" x2="160" y2="0" stroke="#111111" stroke-width="1.5" stroke-linecap="square" stroke-dasharray="6 4" />
<line x1="0" y1="80" x2="160" y2="80" stroke="#111111" stroke-width="1.5" stroke-linecap="square" stroke-dasharray="6 4" />
<line x1="0" y1="80" x2="0" y2="0" stroke="#111111" stroke-width="3.5" stroke-linecap="square" />
<line x1="160" y1="0" x2="280" y2="0" stroke="#111111" stroke-width="3.5" stroke-linecap="square" />
<line x1="280" y1="80" x2="280" y2="0" stroke="#111111" stroke-width="1.5" stroke-linecap="square" stroke-dasharray="6 4" />
<line x1="280" y1="80" x2="160" y2="80" stroke="#111111" stroke-width="3.5" stroke-linecap="square" />
<line x1="280" y1="0" x2="440" y2="0" stroke="#111111" stroke-width="3.5" stroke-linecap="square" />
<line x1="440" y1="80" x2="440" y2="0" stroke="#111111" stroke-width="1.5" stroke-linecap="square" stroke-dasharray="6 4" />
<line x1="280" y1="80" x2="440" y2="80" stroke="#111111" stroke-width="1.5" stroke-linecap="square" stroke-dasharray="6 4" />
<line x1="440" y1="0" x2="560" y2="0" stroke="#111111" stroke-width="3.5" stroke-linecap="square" />
<line x1="560" y1="0" x2="560" y2="80" stroke="#111111" stroke-width="3.5" stroke-linecap="square" />
<line x1="560" y1="80" x2="440" y2="80" stroke="#111111" stroke-width="3.5" stroke-linecap="square" />
<line x1="160" y1="80" x2="160" y2="200" stroke="#111111" stroke-width="3.5" stroke-linecap="square" />
<line x1="160" y1="200" x2="0" y2="200" stroke="#111111" stroke-width="3.5" stroke-linecap="square" />
<line x1="0" y1="200" x2="0" y2="80" stroke="#111111" stroke-width="3.5" stroke-linecap="square" />
<line x1="440" y1="80" x2="440" y2="200" stroke="#111111" stroke-width="3.5" stroke-linecap="square" />
<line x1="440" y1="200" x2="280" y2="200" stroke="#111111" stroke-width="3.5" stroke-linecap="square" />
<line x1="280" y1="200" x2="280" y2="80" stroke="#111111" stroke-width="3.5" stroke-linecap="square" />
<g data-point-labels="true" font-family="sans-serif" font-size="14" font-weight="700" fill="#111111" text-anchor="middle" dominant-baseline="middle"><text x="-9.53" y="-3.04">ㄱ</text><text x="152.15" y="-6.20">ㄴ</text><text x="281.32" y="-9.91">ㄷ</text><text x="448.94" y="-4.47">ㄹ</text><text x="288.94" y="75.53">ㅁ</text><text x="569.59" y="-2.82">ㅂ</text><text x="449.99" y="79.67">ㅅ</text><text x="570.00" y="79.80">ㅇ</text><text x="448.32" y="205.55">ㅈ</text><text x="281.00" y="209.95">ㅊ</text><text x="153.11" y="207.25">ㅍ</text><text x="-9.20" y="203.92">ㅌ</text><text x="-10.00" y="79.79">ㅎ</text></g></svg>