<?xml version='1.0' encoding='utf-8'?>
<svg xmlns="http://www.w3.org/2000/svg" width="320" height="400" viewBox="-24.00 -24.00 368.00 448.00" shape-rendering="crispEdges">
<defs>
    <pattern id="gridMinor" width="40" height="40" patternUnits="userSpaceOnUse">
      <path d="M 40 0 L 0 0 0 40" fill="none" stroke="#e2e8f0" stroke-width="1" />
    </pattern>
    <pattern id="gridMajor" width="200" height="200" patternUnits="userSpaceOnUse">
      <path d="M 200 0 L 0 0 0 200" fill="none" stroke="#cbd5e1" stroke-width="1" />
    </pattern></defs>
<rect width="368.00" height="448.00" fill="white" x="-24.00" y="-24.00" />
<rect width="368.00" height="448.00" fill="url(#gridMinor)" x="-24.00" y="-24.00" />
<rect width="368.00" height="448.00" fill="url(#gridMajor)" x="-24.00" y="-24.00" />
<line x1="80" y1="120" x2="0" y2="120" stroke="#111111" stroke-width="1.5" stroke-linecap="square" stroke-dasharray="6 4" />
<line x1="80" y1="280" x2="80" y2="120" stroke="#111111" stroke-width="1.5" stroke-linecap="square" stroke-dasharray="6 4" />
<line x1="0" y1="280" x2="80" y2="280" stroke="#111111" stroke-width="1.5" stroke-linecap="square" stroke-dasharray="6 4" />
<line x1="0" y1="280" x2="0" y2="120" stroke="#111111" stroke-width="3.5" stroke-linecap="square" />
<line x1="80" y1="120" x2="200" y2="120" stroke="#111111" stroke-width="3.5" stroke-linecap="square" />
<line x1="200" y1="280" x2="200" y2="120" stroke="#111111" stroke-width="1.5" stroke-linecap="square" stroke-dasharray="6 4" />
<line x1="200" y1="280" x2="80" y2="280" stroke="#111111" stroke-width="3.5" stroke-linecap="square" />
<line x1="200" y1="120" x2="280" y2="120" stroke="#111111" stroke-width="3.5" stroke-linecap="square" />
<line x1="280" y1="280" x2="280" y2="120" stroke="#111111" stroke-width="1.5" stroke-linecap="square" stroke-dasharray="6 4" />
<line x1="280" y1="280" x2="200" y2="280" stroke="#111111" stroke-width="3.5" stroke-linecap="square" />
<line x1="280" y1="120" x2="320" y2="120" stroke="#111111" stroke-width="3.5" stroke-linecap="square" />
<line x1="320" y1="120" x2="320" y2="280" stroke="#111111" stroke-width="3.5" stroke-linecap="square" />
<line x1="320" y1="280" x2="280" y2="280" stroke="#111111" stroke-width="3.5" stroke-linecap="square" />
<line x1="0" y1="0" x2="80" y2="0" stroke="#111111" stroke-width="3.5" stroke-linecap="square" />
<line x1="80" y1="0" x2="80" y2="120" stroke="#111111" stroke-width="3.5" stroke-linecap="square" />
<line x1="0" y1="120" x2="0" y2="0" stroke="#111111" stroke-width="3.5" stroke-linecap="square" />
<line x1="80" y1="280" x2="80" y2="400" stroke="#111111" stroke-width="3.5" stroke-linecap="square" />
<line x1="80" y1="400" x2="0" y2="400" stroke="#111111" stroke-width="3.5" stroke-linecap="square" />
<line x1="0" y1="400" x2="0" y2="280" stroke="#111111" stroke-width="3.5" stroke-linecap="square" />
<g data-point-labels="true" font-family="sans-serif" font-size="14" font-weight="700" fill="#111111" text-anchor="middle" dominant-baseline="middle"><text x="-5.66" y="-8.25">ㄱ</text><text x="77.25" y="-9.62">ㄴ</text><text x="206.18" y="112.14">ㄷ</text><text x="288.73" y="115.11">ㄹ</text><text x="329.16" y="115.99">ㅁ</text><text x="329.16" y="284.01">ㅂ</text><text x="288.73" y="284.89">ㅅ</text><text x="206.18" y="287.86">ㅇ</text><text x="77.25" y="409.62">ㅈ</text><text x="-5.66" y="408.25">ㅊ</text><text x="74.19" y="288.14">ㅍ</text><text x="-8.64" y="285.04">ㅌ</text><text x="-8.64" y="114.96">ㅎ</text></g></svg>