<?xml version='1.0' encoding='utf-8'?>
<svg xmlns="http://www.w3.org/2000/svg" width="400" height="400" viewBox="-24.00 -24.00 448.00 448.00" shape-rendering="crispEdges">
<defs>
    <pattern id="gridMinor" width="40" height="40" patternUnits="userSpaceOnUse">
      <path d="M 40 0 L 0 0 0 40" fill="none" stroke="#e2e8f0" stroke-width="1" />
    </pattern>
    <pattern id="gridMajor" width="200" height="200" patternUnits="userSpaceOnUse">
      <path d="M 200 0 L 0 0 0 200" fill="none" stroke="#cbd5e1" stroke-width="1" />
    </pattern></defs>
<rect width="448.00" height="448.00" fill="white" x="-24.00" y="-24.00" />
<rect width="448.00" height="448.00" fill="url(#gridMinor)" x="-24.00" y="-24.00" />
<rect width="448.00" height="448.00" fill="url(#gridMajor)" x="-24.00" y="-24.00" />
<line x1="80" y1="240" x2="0" y2="240" stroke="#111111" stroke-width="1.5" stroke-linecap="square" stroke-dasharray="6 4" />
<line x1="80" y1="400" x2="80" y2="240" stroke="#111111" stroke-width="1.5" stroke-linecap="square" stroke-dasharray="6 4" />
<line x1="80" y1="400" x2="0" y2="400" stroke="#111111" stroke-width="3.5" stroke-linecap="square" />
<line x1="0" y1="400" x2="0" y2="240" stroke="#111111" stroke-width="3.5" stroke-linecap="square" />
<line x1="80" y1="240" x2="200" y2="240" stroke="#111111" stroke-width="3.5" stroke-linecap="square" />
<line x1="200" y1="400" x2="200" y2="240" stroke="#111111" stroke-width="1.5" stroke-linecap="square" stroke-dasharray="6 4" />
<line x1="200" y1="400" x2="80" y2="400" stroke="#111111" stroke-width="3.5" stroke-linecap="square" />
<line x1="200" y1="240" x2="280" y2="240" stroke="#111111" stroke-width="3.5" stroke-linecap="square" />
<line x1="280" y1="400" x2="280" y2="240" stroke="#111111" stroke-width="1.5" stroke-linecap="square" stroke-dasharray="6 4" />
<line x1="280" y1="400" x2="200" y2="400" stroke="#111111" stroke-width="3.5" stroke-linecap="square" />
<line x1="280" y1="240" x2="400" y2="240" stroke="#111111" stroke-width="3.5" stroke-linecap="square" />
<line x1="400" y1="240" x2="400" y2="400" stroke="#111111" stroke-width="3.5" stroke-linecap="square" />
<line x1="400" y1="400" x2="280" y2="400" stroke="#111111" stroke-width="3.5" stroke-linecap="square" />
<line x1="80" y1="120" x2="0" y2="120" stroke="#111111" stroke-width="1.5" stroke-linecap="square" stroke-dasharray="6 4" />
<line x1="80" y1="120" x2="80" y2="240" stroke="#111111" stroke-width="3.5" stroke-linecap="square" />
<line x1="0" y1="240" x2="0" y2="120" stroke="#111111" stroke-width="3.5" stroke-linecap="square" />
<line x1="0" y1="0" x2="80" y2="0" stroke="#111111" stroke-width="3.5" stroke-linecap="square" />
<line x1="80" y1="0" x2="80" y2="120" stroke="#111111" stroke-width="3.5" stroke-linecap="square" />
<line x1="0" y1="120" x2="0" y2="0" stroke="#111111" stroke-width="3.5" stroke-linecap="square" />
<g data-point-labels="true" font-family="sans-serif" font-size="14" font-weight="700" fill="#111111" text-anchor="middle" dominant-baseline="middle"><text x="-5.17" y="-8.56">ㄱ</text><text x="75.21" y="111.22">ㄴ</text><text x="77.31" y="-9.63">ㄷ</text><text x="209.94" y="238.90">ㄹ</text><text x="289.99" y="239.57">ㅁ</text><text x="410.00" y="239.77">ㅂ</text><text x="408.52" y="405.23">ㅅ</text><text x="286.48" y="407.61">ㅇ</text><text x="203.16" y="409.49">ㅈ</text><text x="75.94" y="409.14">ㅊ</text><text x="-6.94" y="407.20">ㅍ</text><text x="-9.99" y="239.62">ㅌ</text><text x="70.03" y="239.17">ㅎ</text></g></svg>