<?xml version='1.0' encoding='utf-8'?>
<svg xmlns="http://www.w3.org/2000/svg" width="520" height="440" viewBox="-24.00 -24.00 568.00 488.00" shape-rendering="crispEdges">
<defs>
    <pattern id="gridMinor" width="40" height="40" patternUnits="userSpaceOnUse">
      <path d="M 40 0 L 0 0 0 40" fill="none" stroke="#e2e8f0" stroke-width="1" />
    </pattern>
    <pattern id="gridMajor" width="200" height="200" patternUnits="userSpaceOnUse">
      <path d="M 200 0 L 0 0 0 200" fill="none" stroke="#cbd5e1" stroke-width="1" />
    </pattern></defs>
<rect width="568.00" height="488.00" fill="white" x="-24.00" y="-24.00" />
<rect width="568.00" height="488.00" fill="url(#gridMinor)" x="-24.00" y="-24.00" />
<rect width="568.00" height="488.00" fill="url(#gridMajor)" x="-24.00" y="-24.00" />
<line x1="80" y1="160" x2="0" y2="160" stroke="#111111" stroke-width="1.5" stroke-linecap="square" stroke-dasharray="6 4" />
<line x1="80" y1="280" x2="80" y2="160" stroke="#111111" stroke-width="1.5" stroke-linecap="square" stroke-dasharray="6 4" />
<line x1="0" y1="280" x2="80" y2="280" stroke="#111111" stroke-width="1.5" stroke-linecap="square" stroke-dasharray="6 4" />
<line x1="0" y1="280" x2="0" y2="160" stroke="#111111" stroke-width="3.5" stroke-linecap="square" />
<line x1="80" y1="160" x2="240" y2="160" stroke="#111111" stroke-width="3.5" stroke-linecap="square" />
<line x1="240" y1="280" x2="240" y2="160" stroke="#111111" stroke-width="1.5" stroke-linecap="square" stroke-dasharray="6 4" />
<line x1="240" y1="280" x2="80" y2="280" stroke="#111111" stroke-width="3.5" stroke-linecap="square" />
<line x1="240" y1="160" x2="320" y2="160" stroke="#111111" stroke-width="3.5" stroke-linecap="square" />
<line x1="320" y1="280" x2="320" y2="160" stroke="#111111" stroke-width="1.5" stroke-linecap="square" stroke-dasharray="6 4" />
<line x1="320" y1="280" x2="240" y2="280" stroke="#111111" stroke-width="3.5" stroke-linecap="square" />
<line x1="320" y1="160" x2="520" y2="160" stroke="#111111" stroke-width="3.5" stroke-linecap="square" />
<line x1="520" y1="160" x2="520" y2="280" stroke="#111111" stroke-width="3.5" stroke-linecap="square" />
<line x1="520" y1="280" x2="320" y2="280" stroke="#111111" stroke-width="3.5" stroke-linecap="square" />
<line x1="0" y1="0" x2="80" y2="0" stroke="#111111" stroke-width="3.5" stroke-linecap="square" />
<line x1="80" y1="0" x2="80" y2="160" stroke="#111111" stroke-width="3.5" stroke-linecap="square" />
<line x1="0" y1="160" x2="0" y2="0" stroke="#111111" stroke-width="3.5" stroke-linecap="square" />
<line x1="80" y1="280" x2="80" y2="440" stroke="#111111" stroke-width="3.5" stroke-linecap="square" />
<line x1="80" y1="440" x2="0" y2="440" stroke="#111111" stroke-width="3.5" stroke-linecap="square" />
<line x1="0" y1="440" x2="0" y2="280" stroke="#111111" stroke-width="3.5" stroke-linecap="square" />
<g data-point-labels="true" font-family="sans-serif" font-size="14" font-weight="700" fill="#111111" text-anchor="middle" dominant-baseline="middle"><text x="-6.27" y="-7.79">ㄱ</text><text x="75.96" y="-9.15">ㄴ</text><text x="247.23" y="153.10">ㄷ</text><text x="329.22" y="156.13">ㄹ</text><text x="529.85" y="158.28">ㅁ</text><text x="529.85" y="281.72">ㅂ</text><text x="329.22" y="283.87">ㅅ</text><text x="247.23" y="286.90">ㅇ</text><text x="75.96" y="449.15">ㅈ</text><text x="-6.27" y="447.79">ㅊ</text><text x="71.49" y="285.25">ㅍ</text><text x="-9.47" y="283.21">ㅌ</text><text x="-9.47" y="156.79">ㅎ</text></g></svg>