<?xml version='1.0' encoding='utf-8'?>
<svg xmlns="http://www.w3.org/2000/svg" width="217" height="176" viewBox="-28.40 -28.40 216.80 176.11" shape-rendering="crispEdges">
<defs>
    <pattern id="gridMinor" width="40" height="40" patternUnits="userSpaceOnUse">
      <path d="M 40 0 L 0 0 0 40" fill="none" stroke="#94a3b8" stroke-width="1.4" />
    </pattern>
    <pattern id="gridMajor" width="200" height="200" patternUnits="userSpaceOnUse">
      <path d="M 200 0 L 0 0 0 200" fill="none" stroke="#64748b" stroke-width="1.4" />
    </pattern></defs>
<rect width="216.80" height="176.11" fill="white" x="-28.40" y="-28.40" />
<rect width="216.80" height="176.11" fill="url(#gridMinor)" x="-28.40" y="-28.40" />
<rect width="216.80" height="176.11" fill="url(#gridMajor)" x="-28.40" y="-28.40" />
<line x1="80" y1="40" x2="120" y2="40" stroke="#111111" stroke-width="4.9" stroke-linecap="square" />
<line x1="120" y1="80" x2="120" y2="40" stroke="#111111" stroke-width="2.1" stroke-linecap="square" stroke-dasharray="6 4" />
<line x1="120" y1="80" x2="80" y2="80" stroke="#111111" stroke-width="4.9" stroke-linecap="square" />
<line x1="80" y1="40" x2="80" y2="80" stroke="#111111" stroke-width="2.1" stroke-linecap="square" stroke-dasharray="6 4" />
<line x1="80" y1="40" x2="40" y2="40" stroke="#111111" stroke-width="2.1" stroke-linecap="square" stroke-dasharray="6 4" />
<line x1="80" y1="80" x2="40" y2="80" stroke="#111111" stroke-width="4.9" stroke-linecap="square" />
<line x1="40" y1="80" x2="40" y2="40" stroke="#111111" stroke-width="4.9" stroke-linecap="square" />
<line x1="120" y1="40" x2="160" y2="40" stroke="#111111" stroke-width="4.9" stroke-linecap="square" />
<line x1="160" y1="40" x2="160" y2="80" stroke="#111111" stroke-width="4.9" stroke-linecap="square" />
<line x1="120" y1="80" x2="160" y2="80" stroke="#111111" stroke-width="2.1" stroke-linecap="square" stroke-dasharray="6 4" />
<line x1="40" y1="0" x2="80" y2="0" stroke="#111111" stroke-width="4.9" stroke-linecap="square" />
<line x1="80" y1="0" x2="80" y2="40" stroke="#111111" stroke-width="4.9" stroke-linecap="square" />
<line x1="40" y1="0" x2="40" y2="40" stroke="#111111" stroke-width="2.1" stroke-linecap="square" stroke-dasharray="6 4" />
<line x1="0" y1="0" x2="40" y2="0" stroke="#111111" stroke-width="4.9" stroke-linecap="square" />
<line x1="40" y1="40" x2="0" y2="40" stroke="#ef4444" stroke-width="4.9" stroke-linecap="square" />
<line x1="0" y1="40" x2="0" y2="0" stroke="#111111" stroke-width="4.9" stroke-linecap="square" />
<line x1="160" y1="80" x2="160" y2="120" stroke="#111111" stroke-width="4.9" stroke-linecap="square" />
<line x1="160" y1="120" x2="120" y2="120" stroke="#111111" stroke-width="4.9" stroke-linecap="square" />
<line x1="120" y1="120" x2="120" y2="80" stroke="#111111" stroke-width="4.9" stroke-linecap="square" />
<g data-point-labels="true" font-family="sans-serif" font-size="14" font-weight="700" fill="#111111" text-anchor="middle" dominant-baseline="middle"><text x="-8.49" y="-8.49">ㄱ</text><text x="28.69" y="-11.31">ㄴ</text><text x="80.00" y="-12.00">ㄷ</text><text x="68.69" y="28.69">ㄹ</text><text x="131.31" y="28.69">ㅁ</text><text x="172.00" y="40.00">ㅂ</text><text x="172.00" y="80.00">ㅅ</text><text x="168.49" y="128.49">ㅇ</text><text x="131.31" y="131.31">ㅈ</text><text x="131.31" y="91.31">ㅊ</text><text x="80.00" y="92.00">ㅋ</text><text x="31.51" y="88.49">ㅌ</text><text x="28.69" y="28.69">ㅍ</text><text x="-12.00" y="40.00">ㅎ</text></g></svg>