<?xml version='1.0' encoding='utf-8'?>
<svg xmlns="http://www.w3.org/2000/svg" width="680" height="200" viewBox="-76.00 -76.00 832.00 352.00" shape-rendering="crispEdges">
<defs>
    <pattern id="gridMinor" width="40" height="40" patternUnits="userSpaceOnUse">
      <path d="M 40 0 L 0 0 0 40" fill="none" stroke="#e2e8f0" stroke-width="1" />
    </pattern>
    <pattern id="gridMajor" width="200" height="200" patternUnits="userSpaceOnUse">
      <path d="M 200 0 L 0 0 0 200" fill="none" stroke="#cbd5e1" stroke-width="1" />
    </pattern></defs>
<rect width="728.00" height="248.00" fill="white" x="-24.00" y="-24.00" />
<rect width="728.00" height="248.00" fill="url(#gridMinor)" x="-24.00" y="-24.00" />
<rect width="728.00" height="248.00" fill="url(#gridMajor)" x="-24.00" y="-24.00" />
<line x1="240" y1="0" x2="400" y2="0" stroke="#111111" stroke-width="3.5" stroke-linecap="square" />
<line x1="400" y1="0" x2="400" y2="120" stroke="#111111" stroke-width="3.5" stroke-linecap="square" />
<line x1="400" y1="120" x2="240" y2="120" stroke="#111111" stroke-width="1.5" stroke-linecap="square" stroke-dasharray="6 4" />
<line x1="240" y1="120" x2="240" y2="0" stroke="#111111" stroke-width="1.5" stroke-linecap="square" stroke-dasharray="6 4" />
<line x1="160" y1="0" x2="240" y2="0" stroke="#111111" stroke-width="3.5" stroke-linecap="square" />
<line x1="240" y1="120" x2="160" y2="120" stroke="#111111" stroke-width="3.5" stroke-linecap="square" />
<line x1="160" y1="120" x2="160" y2="0" stroke="#111111" stroke-width="1.5" stroke-linecap="square" stroke-dasharray="6 4" />
<line x1="0" y1="0" x2="160" y2="0" stroke="#111111" stroke-width="3.5" stroke-linecap="square" />
<line x1="160" y1="120" x2="0" y2="120" stroke="#111111" stroke-width="3.5" stroke-linecap="square" />
<line x1="0" y1="120" x2="0" y2="0" stroke="#111111" stroke-width="3.5" stroke-linecap="square" />
<line x1="400" y1="120" x2="400" y2="200" stroke="#111111" stroke-width="1.5" stroke-linecap="square" stroke-dasharray="6 4" />
<line x1="400" y1="200" x2="240" y2="200" stroke="#111111" stroke-width="3.5" stroke-linecap="square" />
<line x1="240" y1="200" x2="240" y2="120" stroke="#111111" stroke-width="3.5" stroke-linecap="square" />
<line x1="400" y1="120" x2="520" y2="120" stroke="#111111" stroke-width="3.5" stroke-linecap="square" />
<line x1="520" y1="120" x2="520" y2="200" stroke="#111111" stroke-width="1.5" stroke-linecap="square" stroke-dasharray="6 4" />
<line x1="520" y1="200" x2="400" y2="200" stroke="#111111" stroke-width="3.5" stroke-linecap="square" />
<line x1="520" y1="120" x2="680" y2="120" stroke="#111111" stroke-width="3.5" stroke-linecap="square" />
<line x1="680" y1="120" x2="680" y2="200" stroke="#111111" stroke-width="3.5" stroke-linecap="square" />
<line x1="680" y1="200" x2="520" y2="200" stroke="#111111" stroke-width="3.5" stroke-linecap="square" />
<g data-point-labels="true" font-family="sans-serif" font-size="20" font-weight="700" fill="#111111" text-anchor="middle" dominant-baseline="middle"><text x="-10.00" y="0.00">ㄱ</text><text x="151.51" y="-8.49">ㄴ</text><text x="231.51" y="-8.49">ㄷ</text><text x="407.07" y="-7.07">ㄹ</text><text x="690.00" y="120.00">ㅁ</text><text x="528.49" y="128.49">ㅂ</text><text x="408.49" y="128.49">ㅅ</text><text x="690.00" y="200.00">ㅇ</text><text x="528.49" y="208.49">ㅈ</text><text x="408.49" y="208.49">ㅊ</text><text x="232.93" y="207.07">ㅋ</text><text x="231.51" y="128.49">ㅌ</text><text x="151.51" y="128.49">ㅍ</text><text x="-10.00" y="120.00">ㅎ</text></g></svg>