<?xml version='1.0' encoding='utf-8'?>
<svg xmlns="http://www.w3.org/2000/svg" width="480" height="360" viewBox="-24.00 -24.00 528.00 408.00" shape-rendering="crispEdges">
<defs>
    <pattern id="gridMinor" width="40" height="40" patternUnits="userSpaceOnUse">
      <path d="M 40 0 L 0 0 0 40" fill="none" stroke="#e2e8f0" stroke-width="1" />
    </pattern>
    <pattern id="gridMajor" width="200" height="200" patternUnits="userSpaceOnUse">
      <path d="M 200 0 L 0 0 0 200" fill="none" stroke="#cbd5e1" stroke-width="1" />
    </pattern></defs>
<rect width="528.00" height="408.00" fill="white" x="-24.00" y="-24.00" />
<rect width="528.00" height="408.00" fill="url(#gridMinor)" x="-24.00" y="-24.00" />
<rect width="528.00" height="408.00" fill="url(#gridMajor)" x="-24.00" y="-24.00" />
<line x1="0" y1="120" x2="120" y2="120" stroke="#111111" stroke-width="1.5" stroke-linecap="square" stroke-dasharray="6 4" />
<line x1="120" y1="120" x2="120" y2="240" stroke="#111111" stroke-width="1.5" stroke-linecap="square" stroke-dasharray="6 4" />
<line x1="120" y1="240" x2="0" y2="240" stroke="#111111" stroke-width="3.5" stroke-linecap="square" />
<line x1="0" y1="240" x2="0" y2="120" stroke="#111111" stroke-width="3.5" stroke-linecap="square" />
<line x1="120" y1="120" x2="240" y2="120" stroke="#111111" stroke-width="3.5" stroke-linecap="square" />
<line x1="240" y1="120" x2="240" y2="240" stroke="#111111" stroke-width="1.5" stroke-linecap="square" stroke-dasharray="6 4" />
<line x1="240" y1="240" x2="120" y2="240" stroke="#111111" stroke-width="3.5" stroke-linecap="square" />
<line x1="240" y1="120" x2="360" y2="120" stroke="#111111" stroke-width="3.5" stroke-linecap="square" />
<line x1="360" y1="120" x2="360" y2="240" stroke="#111111" stroke-width="1.5" stroke-linecap="square" stroke-dasharray="6 4" />
<line x1="360" y1="240" x2="240" y2="240" stroke="#111111" stroke-width="3.5" stroke-linecap="square" />
<line x1="360" y1="120" x2="480" y2="120" stroke="#111111" stroke-width="3.5" stroke-linecap="square" />
<line x1="480" y1="120" x2="480" y2="240" stroke="#111111" stroke-width="3.5" stroke-linecap="square" />
<line x1="480" y1="240" x2="360" y2="240" stroke="#111111" stroke-width="1.5" stroke-linecap="square" stroke-dasharray="6 4" />
<line x1="0" y1="0" x2="120" y2="0" stroke="#111111" stroke-width="3.5" stroke-linecap="square" />
<line x1="120" y1="0" x2="120" y2="120" stroke="#111111" stroke-width="3.5" stroke-linecap="square" />
<line x1="0" y1="120" x2="0" y2="0" stroke="#111111" stroke-width="3.5" stroke-linecap="square" />
<line x1="480" y1="240" x2="480" y2="360" stroke="#111111" stroke-width="3.5" stroke-linecap="square" />
<line x1="480" y1="360" x2="360" y2="360" stroke="#111111" stroke-width="3.5" stroke-linecap="square" />
<line x1="360" y1="360" x2="360" y2="240" stroke="#111111" stroke-width="3.5" stroke-linecap="square" />
<g data-point-labels="true" font-family="sans-serif" font-size="14" font-weight="700" fill="#111111" text-anchor="middle" dominant-baseline="middle"><text x="-8.00" y="-6.00">ㄱ</text><text x="114.45" y="-8.32">ㄴ</text><text x="240.00" y="110.00">ㄷ</text><text x="368.94" y="115.53">ㄹ</text><text x="489.70" y="117.57">ㅁ</text><text x="489.70" y="242.43">ㅂ</text><text x="368.94" y="244.47">ㅅ</text><text x="488.00" y="366.00">ㅇ</text><text x="365.55" y="368.32">ㅈ</text><text x="240.00" y="250.00">ㅊ</text><text x="111.06" y="244.47">ㅍ</text><text x="-9.70" y="242.43">ㅌ</text><text x="-9.70" y="117.57">ㅎ</text></g></svg>