<?xml version='1.0' encoding='utf-8'?>
<svg xmlns="http://www.w3.org/2000/svg" width="560" height="360" viewBox="-24.00 -24.00 608.00 408.00" shape-rendering="crispEdges">
<defs>
    <pattern id="gridMinor" width="40" height="40" patternUnits="userSpaceOnUse">
      <path d="M 40 0 L 0 0 0 40" fill="none" stroke="#e2e8f0" stroke-width="1" />
    </pattern>
    <pattern id="gridMajor" width="200" height="200" patternUnits="userSpaceOnUse">
      <path d="M 200 0 L 0 0 0 200" fill="none" stroke="#cbd5e1" stroke-width="1" />
    </pattern></defs>
<rect width="608.00" height="408.00" fill="white" x="-24.00" y="-24.00" />
<rect width="608.00" height="408.00" fill="url(#gridMinor)" x="-24.00" y="-24.00" />
<rect width="608.00" height="408.00" fill="url(#gridMajor)" x="-24.00" y="-24.00" />
<line x1="0" y1="120" x2="120" y2="120" stroke="#111111" stroke-width="3.5" stroke-linecap="square" />
<line x1="120" y1="120" x2="120" y2="200" stroke="#111111" stroke-width="1.5" stroke-linecap="square" stroke-dasharray="6 4" />
<line x1="120" y1="200" x2="0" y2="200" stroke="#111111" stroke-width="3.5" stroke-linecap="square" />
<line x1="0" y1="200" x2="0" y2="120" stroke="#111111" stroke-width="3.5" stroke-linecap="square" />
<line x1="120" y1="120" x2="280" y2="120" stroke="#111111" stroke-width="1.5" stroke-linecap="square" stroke-dasharray="6 4" />
<line x1="280" y1="120" x2="280" y2="200" stroke="#111111" stroke-width="1.5" stroke-linecap="square" stroke-dasharray="6 4" />
<line x1="280" y1="200" x2="120" y2="200" stroke="#111111" stroke-width="3.5" stroke-linecap="square" />
<line x1="280" y1="120" x2="400" y2="120" stroke="#111111" stroke-width="3.5" stroke-linecap="square" />
<line x1="400" y1="120" x2="400" y2="200" stroke="#111111" stroke-width="1.5" stroke-linecap="square" stroke-dasharray="6 4" />
<line x1="400" y1="200" x2="280" y2="200" stroke="#111111" stroke-width="1.5" stroke-linecap="square" stroke-dasharray="6 4" />
<line x1="400" y1="120" x2="560" y2="120" stroke="#111111" stroke-width="3.5" stroke-linecap="square" />
<line x1="560" y1="120" x2="560" y2="200" stroke="#111111" stroke-width="3.5" stroke-linecap="square" />
<line x1="560" y1="200" x2="400" y2="200" stroke="#111111" stroke-width="3.5" stroke-linecap="square" />
<line x1="120" y1="0" x2="280" y2="0" stroke="#111111" stroke-width="3.5" stroke-linecap="square" />
<line x1="280" y1="0" x2="280" y2="120" stroke="#111111" stroke-width="3.5" stroke-linecap="square" />
<line x1="120" y1="120" x2="120" y2="0" stroke="#111111" stroke-width="3.5" stroke-linecap="square" />
<line x1="400" y1="200" x2="400" y2="360" stroke="#111111" stroke-width="3.5" stroke-linecap="square" />
<line x1="400" y1="360" x2="280" y2="360" stroke="#111111" stroke-width="3.5" stroke-linecap="square" />
<line x1="280" y1="360" x2="280" y2="200" stroke="#111111" stroke-width="3.5" stroke-linecap="square" />
<g data-point-labels="true" font-family="sans-serif" font-size="14" font-weight="700" fill="#111111" text-anchor="middle" dominant-baseline="middle"><text x="113.25" y="-7.38">ㄱ</text><text x="280.52" y="-9.99">ㄴ</text><text x="281.84" y="110.17">ㄷ</text><text x="409.42" y="116.65">ㄹ</text><text x="569.88" y="118.44">ㅁ</text><text x="569.93" y="201.18">ㅂ</text><text x="409.66" y="202.58">ㅅ</text><text x="405.52" y="368.34">ㅇ</text><text x="282.43" y="209.70">ㅈ</text><text x="280.44" y="369.99">ㅊ</text><text x="110.25" y="202.21">ㅍ</text><text x="-9.92" y="201.25">ㅌ</text><text x="-9.86" y="118.34">ㅎ</text></g></svg>