<?xml version='1.0' encoding='utf-8'?>
<svg xmlns="http://www.w3.org/2000/svg" width="520" height="360" viewBox="-24.00 -24.00 568.00 408.00" shape-rendering="crispEdges">
<defs>
    <pattern id="gridMinor" width="40" height="40" patternUnits="userSpaceOnUse">
      <path d="M 40 0 L 0 0 0 40" fill="none" stroke="#e2e8f0" stroke-width="1" />
    </pattern>
    <pattern id="gridMajor" width="200" height="200" patternUnits="userSpaceOnUse">
      <path d="M 200 0 L 0 0 0 200" fill="none" stroke="#cbd5e1" stroke-width="1" />
    </pattern></defs>
<rect width="568.00" height="408.00" fill="white" x="-24.00" y="-24.00" />
<rect width="568.00" height="408.00" fill="url(#gridMinor)" x="-24.00" y="-24.00" />
<rect width="568.00" height="408.00" fill="url(#gridMajor)" x="-24.00" y="-24.00" />
<line x1="80" y1="120" x2="240" y2="120" stroke="#111111" stroke-width="1.5" stroke-linecap="square" stroke-dasharray="6 4" />
<line x1="240" y1="120" x2="240" y2="200" stroke="#111111" stroke-width="1.5" stroke-linecap="square" stroke-dasharray="6 4" />
<line x1="240" y1="200" x2="80" y2="200" stroke="#111111" stroke-width="3.5" stroke-linecap="square" />
<line x1="80" y1="200" x2="80" y2="120" stroke="#111111" stroke-width="3.5" stroke-linecap="square" />
<line x1="240" y1="120" x2="360" y2="120" stroke="#111111" stroke-width="3.5" stroke-linecap="square" />
<line x1="360" y1="120" x2="360" y2="200" stroke="#111111" stroke-width="1.5" stroke-linecap="square" stroke-dasharray="6 4" />
<line x1="360" y1="200" x2="240" y2="200" stroke="#111111" stroke-width="1.5" stroke-linecap="square" stroke-dasharray="6 4" />
<line x1="360" y1="120" x2="520" y2="120" stroke="#111111" stroke-width="3.5" stroke-linecap="square" />
<line x1="520" y1="120" x2="520" y2="200" stroke="#111111" stroke-width="3.5" stroke-linecap="square" />
<line x1="520" y1="200" x2="360" y2="200" stroke="#111111" stroke-width="3.5" stroke-linecap="square" />
<line x1="80" y1="0" x2="240" y2="0" stroke="#111111" stroke-width="3.5" stroke-linecap="square" />
<line x1="240" y1="0" x2="240" y2="120" stroke="#111111" stroke-width="3.5" stroke-linecap="square" />
<line x1="80" y1="120" x2="80" y2="0" stroke="#111111" stroke-width="1.5" stroke-linecap="square" stroke-dasharray="6 4" />
<line x1="0" y1="0" x2="80" y2="0" stroke="#111111" stroke-width="3.5" stroke-linecap="square" />
<line x1="80" y1="120" x2="0" y2="120" stroke="#111111" stroke-width="3.5" stroke-linecap="square" />
<line x1="0" y1="120" x2="0" y2="0" stroke="#111111" stroke-width="3.5" stroke-linecap="square" />
<line x1="360" y1="200" x2="360" y2="360" stroke="#111111" stroke-width="3.5" stroke-linecap="square" />
<line x1="360" y1="360" x2="240" y2="360" stroke="#111111" stroke-width="3.5" stroke-linecap="square" />
<line x1="240" y1="360" x2="240" y2="200" stroke="#111111" stroke-width="3.5" stroke-linecap="square" />
<g data-point-labels="true" font-family="sans-serif" font-size="14" font-weight="700" fill="#111111" text-anchor="middle" dominant-baseline="middle"><text x="-8.43" y="-5.38">ㄱ</text><text x="72.80" y="-6.94">ㄴ</text><text x="240.19" y="-10.00">ㄷ</text><text x="240.91" y="110.04">ㄹ</text><text x="369.69" y="117.52">ㅁ</text><text x="529.94" y="118.90">ㅂ</text><text x="529.86" y="201.69">ㅅ</text><text x="369.30" y="203.68">ㅇ</text><text x="365.08" y="368.62">ㅈ</text><text x="240.59" y="209.98">ㅊ</text><text x="240.14" y="370.00">ㅍ</text><text x="70.45" y="202.95">ㅌ</text><text x="-9.91" y="118.69">ㅎ</text></g></svg>