<?xml version='1.0' encoding='utf-8'?>
<svg xmlns="http://www.w3.org/2000/svg" width="480" height="360" viewBox="-24.00 -24.00 528.00 408.00" shape-rendering="crispEdges">
<defs>
    <pattern id="gridMinor" width="40" height="40" patternUnits="userSpaceOnUse">
      <path d="M 40 0 L 0 0 0 40" fill="none" stroke="#e2e8f0" stroke-width="1" />
    </pattern>
    <pattern id="gridMajor" width="200" height="200" patternUnits="userSpaceOnUse">
      <path d="M 200 0 L 0 0 0 200" fill="none" stroke="#cbd5e1" stroke-width="1" />
    </pattern></defs>
<rect width="528.00" height="408.00" fill="white" x="-24.00" y="-24.00" />
<rect width="528.00" height="408.00" fill="url(#gridMinor)" x="-24.00" y="-24.00" />
<rect width="528.00" height="408.00" fill="url(#gridMajor)" x="-24.00" y="-24.00" />
<line x1="80" y1="160" x2="200" y2="160" stroke="#111111" stroke-width="1.5" stroke-linecap="square" stroke-dasharray="6 4" />
<line x1="200" y1="160" x2="200" y2="240" stroke="#111111" stroke-width="1.5" stroke-linecap="square" stroke-dasharray="6 4" />
<line x1="200" y1="240" x2="80" y2="240" stroke="#111111" stroke-width="3.5" stroke-linecap="square" />
<line x1="80" y1="240" x2="80" y2="160" stroke="#111111" stroke-width="3.5" stroke-linecap="square" />
<line x1="200" y1="160" x2="360" y2="160" stroke="#111111" stroke-width="3.5" stroke-linecap="square" />
<line x1="360" y1="160" x2="360" y2="240" stroke="#111111" stroke-width="1.5" stroke-linecap="square" stroke-dasharray="6 4" />
<line x1="360" y1="240" x2="200" y2="240" stroke="#111111" stroke-width="1.5" stroke-linecap="square" stroke-dasharray="6 4" />
<line x1="360" y1="160" x2="480" y2="160" stroke="#111111" stroke-width="3.5" stroke-linecap="square" />
<line x1="480" y1="160" x2="480" y2="240" stroke="#111111" stroke-width="3.5" stroke-linecap="square" />
<line x1="480" y1="240" x2="360" y2="240" stroke="#111111" stroke-width="3.5" stroke-linecap="square" />
<line x1="80" y1="0" x2="200" y2="0" stroke="#111111" stroke-width="3.5" stroke-linecap="square" />
<line x1="200" y1="0" x2="200" y2="160" stroke="#111111" stroke-width="3.5" stroke-linecap="square" />
<line x1="80" y1="160" x2="80" y2="0" stroke="#111111" stroke-width="1.5" stroke-linecap="square" stroke-dasharray="6 4" />
<line x1="0" y1="0" x2="80" y2="0" stroke="#111111" stroke-width="3.5" stroke-linecap="square" />
<line x1="80" y1="160" x2="0" y2="160" stroke="#111111" stroke-width="3.5" stroke-linecap="square" />
<line x1="0" y1="160" x2="0" y2="0" stroke="#111111" stroke-width="3.5" stroke-linecap="square" />
<line x1="360" y1="240" x2="360" y2="360" stroke="#111111" stroke-width="3.5" stroke-linecap="square" />
<line x1="360" y1="360" x2="200" y2="360" stroke="#111111" stroke-width="3.5" stroke-linecap="square" />
<line x1="200" y1="360" x2="200" y2="240" stroke="#111111" stroke-width="3.5" stroke-linecap="square" />
<g data-point-labels="true" font-family="sans-serif" font-size="14" font-weight="700" fill="#111111" text-anchor="middle" dominant-baseline="middle"><text x="-7.79" y="-6.27">ㄱ</text><text x="192.41" y="153.49">ㄴ</text><text x="73.80" y="-7.85">ㄷ</text><text x="198.88" y="-9.94">ㄹ</text><text x="369.93" y="158.78">ㅁ</text><text x="489.98" y="159.34">ㅂ</text><text x="489.72" y="242.35">ㅅ</text><text x="369.12" y="244.10">ㅇ</text><text x="366.08" y="367.94">ㅈ</text><text x="198.91" y="369.94">ㅊ</text><text x="196.97" y="249.53">ㅍ</text><text x="70.88" y="244.10">ㅌ</text><text x="-9.97" y="159.22">ㅎ</text></g></svg>