<?xml version='1.0' encoding='utf-8'?>
<svg xmlns="http://www.w3.org/2000/svg" width="680" height="200" viewBox="-24.00 -24.00 728.00 248.00" shape-rendering="crispEdges">
<defs>
    <pattern id="gridMinor" width="40" height="40" patternUnits="userSpaceOnUse">
      <path d="M 40 0 L 0 0 0 40" fill="none" stroke="#e2e8f0" stroke-width="1" />
    </pattern>
    <pattern id="gridMajor" width="200" height="200" patternUnits="userSpaceOnUse">
      <path d="M 200 0 L 0 0 0 200" fill="none" stroke="#cbd5e1" stroke-width="1" />
    </pattern></defs>
<rect width="728.00" height="248.00" fill="white" x="-24.00" y="-24.00" />
<rect width="728.00" height="248.00" fill="url(#gridMinor)" x="-24.00" y="-24.00" />
<rect width="728.00" height="248.00" fill="url(#gridMajor)" x="-24.00" y="-24.00" />
<line x1="240" y1="0" x2="400" y2="0" stroke="#111111" stroke-width="3.5" stroke-linecap="square" />
<line x1="400" y1="0" x2="400" y2="120" stroke="#111111" stroke-width="3.5" stroke-linecap="square" />
<line x1="400" y1="120" x2="240" y2="120" stroke="#111111" stroke-width="1.5" stroke-linecap="square" stroke-dasharray="6 4" />
<line x1="240" y1="120" x2="240" y2="0" stroke="#111111" stroke-width="1.5" stroke-linecap="square" stroke-dasharray="6 4" />
<line x1="160" y1="0" x2="240" y2="0" stroke="#111111" stroke-width="3.5" stroke-linecap="square" />
<line x1="240" y1="120" x2="160" y2="120" stroke="#111111" stroke-width="3.5" stroke-linecap="square" />
<line x1="160" y1="120" x2="160" y2="0" stroke="#111111" stroke-width="1.5" stroke-linecap="square" stroke-dasharray="6 4" />
<line x1="0" y1="0" x2="160" y2="0" stroke="#111111" stroke-width="3.5" stroke-linecap="square" />
<line x1="160" y1="120" x2="0" y2="120" stroke="#111111" stroke-width="3.5" stroke-linecap="square" />
<line x1="0" y1="120" x2="0" y2="0" stroke="#111111" stroke-width="3.5" stroke-linecap="square" />
<line x1="400" y1="120" x2="400" y2="200" stroke="#111111" stroke-width="1.5" stroke-linecap="square" stroke-dasharray="6 4" />
<line x1="400" y1="200" x2="240" y2="200" stroke="#111111" stroke-width="3.5" stroke-linecap="square" />
<line x1="240" y1="200" x2="240" y2="120" stroke="#111111" stroke-width="3.5" stroke-linecap="square" />
<line x1="400" y1="120" x2="520" y2="120" stroke="#111111" stroke-width="3.5" stroke-linecap="square" />
<line x1="520" y1="120" x2="520" y2="200" stroke="#111111" stroke-width="1.5" stroke-linecap="square" stroke-dasharray="6 4" />
<line x1="520" y1="200" x2="400" y2="200" stroke="#111111" stroke-width="3.5" stroke-linecap="square" />
<line x1="520" y1="120" x2="680" y2="120" stroke="#111111" stroke-width="3.5" stroke-linecap="square" />
<line x1="680" y1="120" x2="680" y2="200" stroke="#111111" stroke-width="3.5" stroke-linecap="square" />
<line x1="680" y1="200" x2="520" y2="200" stroke="#111111" stroke-width="3.5" stroke-linecap="square" />
<g data-point-labels="true" font-family="sans-serif" font-size="14" font-weight="700" fill="#111111" text-anchor="middle" dominant-baseline="middle"><text x="-9.50" y="-3.11">ㄱ</text><text x="151.55" y="-5.35">ㄴ</text><text x="233.56" y="-7.65">ㄷ</text><text x="405.34" y="-8.45">ㄹ</text><text x="689.99" y="120.33">ㅁ</text><text x="529.98" y="120.60">ㅂ</text><text x="409.86" y="121.64">ㅅ</text><text x="689.67" y="202.54">ㅇ</text><text x="529.00" y="204.36">ㅈ</text><text x="406.00" y="208.00">ㅊ</text><text x="232.93" y="207.07">ㅍ</text><text x="230.08" y="121.24">ㅌ</text><text x="150.02" y="120.67">ㅎ</text></g></svg>