<?xml version='1.0' encoding='utf-8'?>
<svg xmlns="http://www.w3.org/2000/svg" width="440" height="360" viewBox="-24.00 -24.00 488.00 408.00" shape-rendering="crispEdges">
<defs>
    <pattern id="gridMinor" width="40" height="40" patternUnits="userSpaceOnUse">
      <path d="M 40 0 L 0 0 0 40" fill="none" stroke="#e2e8f0" stroke-width="1" />
    </pattern>
    <pattern id="gridMajor" width="200" height="200" patternUnits="userSpaceOnUse">
      <path d="M 200 0 L 0 0 0 200" fill="none" stroke="#cbd5e1" stroke-width="1" />
    </pattern></defs>
<rect width="488.00" height="408.00" fill="white" x="-24.00" y="-24.00" />
<rect width="488.00" height="408.00" fill="url(#gridMinor)" x="-24.00" y="-24.00" />
<rect width="488.00" height="408.00" fill="url(#gridMajor)" x="-24.00" y="-24.00" />
<line x1="0" y1="0" x2="80" y2="0" stroke="#111111" stroke-width="3.5" stroke-linecap="square" />
<line x1="80" y1="0" x2="80" y2="160" stroke="#111111" stroke-width="1.5" stroke-linecap="square" stroke-dasharray="6 4" />
<line x1="80" y1="160" x2="0" y2="160" stroke="#111111" stroke-width="3.5" stroke-linecap="square" />
<line x1="0" y1="160" x2="0" y2="0" stroke="#111111" stroke-width="3.5" stroke-linecap="square" />
<line x1="80" y1="0" x2="200" y2="0" stroke="#111111" stroke-width="3.5" stroke-linecap="square" />
<line x1="200" y1="0" x2="200" y2="160" stroke="#111111" stroke-width="3.5" stroke-linecap="square" />
<line x1="200" y1="160" x2="80" y2="160" stroke="#111111" stroke-width="1.5" stroke-linecap="square" stroke-dasharray="6 4" />
<line x1="200" y1="160" x2="200" y2="240" stroke="#111111" stroke-width="1.5" stroke-linecap="square" stroke-dasharray="6 4" />
<line x1="200" y1="240" x2="80" y2="240" stroke="#111111" stroke-width="3.5" stroke-linecap="square" />
<line x1="80" y1="240" x2="80" y2="160" stroke="#111111" stroke-width="3.5" stroke-linecap="square" />
<line x1="200" y1="160" x2="360" y2="160" stroke="#111111" stroke-width="3.5" stroke-linecap="square" />
<line x1="360" y1="160" x2="360" y2="240" stroke="#111111" stroke-width="3.5" stroke-linecap="square" />
<line x1="360" y1="240" x2="200" y2="240" stroke="#111111" stroke-width="1.5" stroke-linecap="square" stroke-dasharray="6 4" />
<line x1="360" y1="240" x2="360" y2="360" stroke="#111111" stroke-width="1.5" stroke-linecap="square" stroke-dasharray="6 4" />
<line x1="360" y1="360" x2="200" y2="360" stroke="#111111" stroke-width="3.5" stroke-linecap="square" />
<line x1="200" y1="360" x2="200" y2="240" stroke="#111111" stroke-width="3.5" stroke-linecap="square" />
<line x1="360" y1="240" x2="440" y2="240" stroke="#111111" stroke-width="3.5" stroke-linecap="square" />
<line x1="440" y1="240" x2="440" y2="360" stroke="#111111" stroke-width="3.5" stroke-linecap="square" />
<line x1="440" y1="360" x2="360" y2="360" stroke="#111111" stroke-width="3.5" stroke-linecap="square" />
<g data-point-labels="true" font-family="sans-serif" font-size="14" font-weight="700" fill="#111111" text-anchor="middle" dominant-baseline="middle"><text x="-7.46" y="-6.66">ㄱ</text><text x="74.26" y="-8.19">ㄴ</text><text x="195.86" y="150.90">ㄷ</text><text x="199.26" y="-9.97">ㄹ</text><text x="369.78" y="157.89">ㅁ</text><text x="449.78" y="242.10">ㅂ</text><text x="369.49" y="243.16">ㅅ</text><text x="448.01" y="365.98">ㅇ</text><text x="366.54" y="367.57">ㅈ</text><text x="199.16" y="369.96">ㅊ</text><text x="197.18" y="249.59">ㅍ</text><text x="70.60" y="243.40">ㅌ</text><text x="-9.89" y="158.55">ㅎ</text></g></svg>