<?xml version='1.0' encoding='utf-8'?>
<svg xmlns="http://www.w3.org/2000/svg" width="560" height="400" viewBox="-24.00 -24.00 608.00 448.00" shape-rendering="crispEdges">
<defs>
    <pattern id="gridMinor" width="40" height="40" patternUnits="userSpaceOnUse">
      <path d="M 40 0 L 0 0 0 40" fill="none" stroke="#e2e8f0" stroke-width="1" />
    </pattern>
    <pattern id="gridMajor" width="200" height="200" patternUnits="userSpaceOnUse">
      <path d="M 200 0 L 0 0 0 200" fill="none" stroke="#cbd5e1" stroke-width="1" />
    </pattern></defs>
<rect width="608.00" height="448.00" fill="white" x="-24.00" y="-24.00" />
<rect width="608.00" height="448.00" fill="url(#gridMinor)" x="-24.00" y="-24.00" />
<rect width="608.00" height="448.00" fill="url(#gridMajor)" x="-24.00" y="-24.00" />
<line x1="0" y1="160" x2="160" y2="160" stroke="#111111" stroke-width="3.5" stroke-linecap="square" />
<line x1="160" y1="160" x2="160" y2="240" stroke="#111111" stroke-width="1.5" stroke-linecap="square" stroke-dasharray="6 4" />
<line x1="160" y1="240" x2="0" y2="240" stroke="#111111" stroke-width="3.5" stroke-linecap="square" />
<line x1="0" y1="240" x2="0" y2="160" stroke="#111111" stroke-width="3.5" stroke-linecap="square" />
<line x1="160" y1="160" x2="280" y2="160" stroke="#111111" stroke-width="1.5" stroke-linecap="square" stroke-dasharray="6 4" />
<line x1="280" y1="160" x2="280" y2="240" stroke="#111111" stroke-width="1.5" stroke-linecap="square" stroke-dasharray="6 4" />
<line x1="280" y1="240" x2="160" y2="240" stroke="#111111" stroke-width="1.5" stroke-linecap="square" stroke-dasharray="6 4" />
<line x1="280" y1="160" x2="440" y2="160" stroke="#111111" stroke-width="3.5" stroke-linecap="square" />
<line x1="440" y1="160" x2="440" y2="240" stroke="#111111" stroke-width="1.5" stroke-linecap="square" stroke-dasharray="6 4" />
<line x1="440" y1="240" x2="280" y2="240" stroke="#111111" stroke-width="3.5" stroke-linecap="square" />
<line x1="440" y1="160" x2="560" y2="160" stroke="#111111" stroke-width="3.5" stroke-linecap="square" />
<line x1="560" y1="160" x2="560" y2="240" stroke="#111111" stroke-width="3.5" stroke-linecap="square" />
<line x1="560" y1="240" x2="440" y2="240" stroke="#111111" stroke-width="3.5" stroke-linecap="square" />
<line x1="160" y1="0" x2="280" y2="0" stroke="#111111" stroke-width="3.5" stroke-linecap="square" />
<line x1="280" y1="0" x2="280" y2="160" stroke="#111111" stroke-width="3.5" stroke-linecap="square" />
<line x1="160" y1="160" x2="160" y2="0" stroke="#111111" stroke-width="3.5" stroke-linecap="square" />
<line x1="280" y1="240" x2="280" y2="400" stroke="#111111" stroke-width="3.5" stroke-linecap="square" />
<line x1="280" y1="400" x2="160" y2="400" stroke="#111111" stroke-width="3.5" stroke-linecap="square" />
<line x1="160" y1="400" x2="160" y2="240" stroke="#111111" stroke-width="3.5" stroke-linecap="square" />
<g data-point-labels="true" font-family="sans-serif" font-size="14" font-weight="700" fill="#111111" text-anchor="middle" dominant-baseline="middle"><text x="155.23" y="-8.79">ㄱ</text><text x="280.57" y="-9.98">ㄴ</text><text x="282.75" y="150.38">ㄷ</text><text x="449.74" y="157.73">ㄹ</text><text x="569.91" y="158.64">ㅁ</text><text x="569.91" y="241.36">ㅂ</text><text x="449.74" y="242.27">ㅅ</text><text x="282.75" y="249.62">ㅇ</text><text x="280.57" y="409.98">ㅈ</text><text x="155.23" y="408.79">ㅊ</text><text x="150.62" y="243.46">ㅍ</text><text x="-9.89" y="241.47">ㅌ</text><text x="-9.89" y="158.53">ㅎ</text></g></svg>