<?xml version='1.0' encoding='utf-8'?>
<svg xmlns="http://www.w3.org/2000/svg" width="520" height="360" viewBox="-24.00 -24.00 568.00 408.00" shape-rendering="crispEdges">
<defs>
    <pattern id="gridMinor" width="40" height="40" patternUnits="userSpaceOnUse">
      <path d="M 40 0 L 0 0 0 40" fill="none" stroke="#e2e8f0" stroke-width="1" />
    </pattern>
    <pattern id="gridMajor" width="200" height="200" patternUnits="userSpaceOnUse">
      <path d="M 200 0 L 0 0 0 200" fill="none" stroke="#cbd5e1" stroke-width="1" />
    </pattern></defs>
<rect width="568.00" height="408.00" fill="white" x="-24.00" y="-24.00" />
<rect width="568.00" height="408.00" fill="url(#gridMinor)" x="-24.00" y="-24.00" />
<rect width="568.00" height="408.00" fill="url(#gridMajor)" x="-24.00" y="-24.00" />
<line x1="0" y1="0" x2="160" y2="0" stroke="#111111" stroke-width="3.5" stroke-linecap="square" />
<line x1="160" y1="0" x2="160" y2="80" stroke="#111111" stroke-width="1.5" stroke-linecap="square" stroke-dasharray="6 4" />
<line x1="160" y1="80" x2="0" y2="80" stroke="#111111" stroke-width="3.5" stroke-linecap="square" />
<line x1="0" y1="80" x2="0" y2="0" stroke="#111111" stroke-width="3.5" stroke-linecap="square" />
<line x1="160" y1="0" x2="280" y2="0" stroke="#111111" stroke-width="3.5" stroke-linecap="square" />
<line x1="280" y1="0" x2="280" y2="80" stroke="#111111" stroke-width="3.5" stroke-linecap="square" />
<line x1="280" y1="80" x2="160" y2="80" stroke="#111111" stroke-width="1.5" stroke-linecap="square" stroke-dasharray="6 4" />
<line x1="280" y1="80" x2="280" y2="240" stroke="#111111" stroke-width="1.5" stroke-linecap="square" stroke-dasharray="6 4" />
<line x1="280" y1="240" x2="160" y2="240" stroke="#111111" stroke-width="3.5" stroke-linecap="square" />
<line x1="160" y1="240" x2="160" y2="80" stroke="#111111" stroke-width="3.5" stroke-linecap="square" />
<line x1="280" y1="80" x2="360" y2="80" stroke="#111111" stroke-width="3.5" stroke-linecap="square" />
<line x1="360" y1="80" x2="360" y2="240" stroke="#111111" stroke-width="3.5" stroke-linecap="square" />
<line x1="360" y1="240" x2="280" y2="240" stroke="#111111" stroke-width="1.5" stroke-linecap="square" stroke-dasharray="6 4" />
<line x1="360" y1="240" x2="360" y2="360" stroke="#111111" stroke-width="1.5" stroke-linecap="square" stroke-dasharray="6 4" />
<line x1="360" y1="360" x2="280" y2="360" stroke="#111111" stroke-width="3.5" stroke-linecap="square" />
<line x1="280" y1="360" x2="280" y2="240" stroke="#111111" stroke-width="3.5" stroke-linecap="square" />
<line x1="360" y1="240" x2="520" y2="240" stroke="#111111" stroke-width="3.5" stroke-linecap="square" />
<line x1="520" y1="240" x2="520" y2="360" stroke="#111111" stroke-width="3.5" stroke-linecap="square" />
<line x1="520" y1="360" x2="360" y2="360" stroke="#111111" stroke-width="3.5" stroke-linecap="square" />
<g data-point-labels="true" font-family="sans-serif" font-size="14" font-weight="700" fill="#111111" text-anchor="middle" dominant-baseline="middle"><text x="-8.44" y="-5.36">ㄱ</text><text x="152.33" y="73.58">ㄴ</text><text x="154.69" y="-8.47">ㄷ</text><text x="280.84" y="-9.96">ㄹ</text><text x="281.59" y="70.13">ㅁ</text><text x="367.29" y="73.15">ㅂ</text><text x="529.63" y="242.70">ㅅ</text><text x="527.99" y="366.01">ㅇ</text><text x="367.97" y="246.04">ㅈ</text><text x="364.42" y="368.97">ㅊ</text><text x="281.96" y="249.81">ㅍ</text><text x="280.74" y="369.97">ㅌ</text><text x="151.71" y="245.60">ㅎ</text></g></svg>