<?xml version='1.0' encoding='utf-8'?>
<svg xmlns="http://www.w3.org/2000/svg" width="560" height="400" viewBox="-24.00 -24.00 608.00 448.00" shape-rendering="crispEdges">
<defs>
    <pattern id="gridMinor" width="40" height="40" patternUnits="userSpaceOnUse">
      <path d="M 40 0 L 0 0 0 40" fill="none" stroke="#e2e8f0" stroke-width="1" />
    </pattern>
    <pattern id="gridMajor" width="200" height="200" patternUnits="userSpaceOnUse">
      <path d="M 200 0 L 0 0 0 200" fill="none" stroke="#cbd5e1" stroke-width="1" />
    </pattern></defs>
<rect width="608.00" height="448.00" fill="white" x="-24.00" y="-24.00" />
<rect width="608.00" height="448.00" fill="url(#gridMinor)" x="-24.00" y="-24.00" />
<rect width="608.00" height="448.00" fill="url(#gridMajor)" x="-24.00" y="-24.00" />
<line x1="0" y1="160" x2="120" y2="160" stroke="#111111" stroke-width="1.5" stroke-linecap="square" stroke-dasharray="6 4" />
<line x1="120" y1="160" x2="120" y2="240" stroke="#111111" stroke-width="1.5" stroke-linecap="square" stroke-dasharray="6 4" />
<line x1="120" y1="240" x2="0" y2="240" stroke="#111111" stroke-width="1.5" stroke-linecap="square" stroke-dasharray="6 4" />
<line x1="0" y1="240" x2="0" y2="160" stroke="#111111" stroke-width="3.5" stroke-linecap="square" />
<line x1="120" y1="160" x2="280" y2="160" stroke="#111111" stroke-width="3.5" stroke-linecap="square" />
<line x1="280" y1="160" x2="280" y2="240" stroke="#111111" stroke-width="1.5" stroke-linecap="square" stroke-dasharray="6 4" />
<line x1="280" y1="240" x2="120" y2="240" stroke="#111111" stroke-width="3.5" stroke-linecap="square" />
<line x1="280" y1="160" x2="400" y2="160" stroke="#111111" stroke-width="3.5" stroke-linecap="square" />
<line x1="400" y1="160" x2="400" y2="240" stroke="#111111" stroke-width="1.5" stroke-linecap="square" stroke-dasharray="6 4" />
<line x1="400" y1="240" x2="280" y2="240" stroke="#111111" stroke-width="3.5" stroke-linecap="square" />
<line x1="400" y1="160" x2="560" y2="160" stroke="#111111" stroke-width="3.5" stroke-linecap="square" />
<line x1="560" y1="160" x2="560" y2="240" stroke="#111111" stroke-width="3.5" stroke-linecap="square" />
<line x1="560" y1="240" x2="400" y2="240" stroke="#111111" stroke-width="3.5" stroke-linecap="square" />
<line x1="0" y1="0" x2="120" y2="0" stroke="#111111" stroke-width="3.5" stroke-linecap="square" />
<line x1="120" y1="0" x2="120" y2="160" stroke="#111111" stroke-width="3.5" stroke-linecap="square" />
<line x1="0" y1="160" x2="0" y2="0" stroke="#111111" stroke-width="3.5" stroke-linecap="square" />
<line x1="120" y1="240" x2="120" y2="400" stroke="#111111" stroke-width="3.5" stroke-linecap="square" />
<line x1="120" y1="400" x2="0" y2="400" stroke="#111111" stroke-width="3.5" stroke-linecap="square" />
<line x1="0" y1="400" x2="0" y2="240" stroke="#111111" stroke-width="3.5" stroke-linecap="square" />
<g data-point-labels="true" font-family="sans-serif" font-size="14" font-weight="700" fill="#111111" text-anchor="middle" dominant-baseline="middle"><text x="-7.26" y="-6.87">ㄱ</text><text x="115.84" y="-9.09">ㄴ</text><text x="288.64" y="154.96">ㄷ</text><text x="409.78" y="157.92">ㄹ</text><text x="569.93" y="158.86">ㅁ</text><text x="569.93" y="241.14">ㅂ</text><text x="409.78" y="242.08">ㅅ</text><text x="288.64" y="245.04">ㅇ</text><text x="115.84" y="409.09">ㅈ</text><text x="-7.26" y="406.87">ㅊ</text><text x="110.84" y="244.01">ㅍ</text><text x="-9.83" y="241.86">ㅌ</text><text x="-9.83" y="158.14">ㅎ</text></g></svg>