<?xml version='1.0' encoding='utf-8'?>
<svg xmlns="http://www.w3.org/2000/svg" width="480" height="280" viewBox="-24.00 -24.00 528.00 328.00" shape-rendering="crispEdges">
<defs>
    <pattern id="gridMinor" width="40" height="40" patternUnits="userSpaceOnUse">
      <path d="M 40 0 L 0 0 0 40" fill="none" stroke="#e2e8f0" stroke-width="1" />
    </pattern>
    <pattern id="gridMajor" width="200" height="200" patternUnits="userSpaceOnUse">
      <path d="M 200 0 L 0 0 0 200" fill="none" stroke="#cbd5e1" stroke-width="1" />
    </pattern></defs>
<rect width="528.00" height="328.00" fill="white" x="-24.00" y="-24.00" />
<rect width="528.00" height="328.00" fill="url(#gridMinor)" x="-24.00" y="-24.00" />
<rect width="528.00" height="328.00" fill="url(#gridMajor)" x="-24.00" y="-24.00" />
<line x1="0" y1="80" x2="160" y2="80" stroke="#111111" stroke-width="1.5" stroke-linecap="square" stroke-dasharray="6 4" />
<line x1="160" y1="80" x2="160" y2="200" stroke="#111111" stroke-width="1.5" stroke-linecap="square" stroke-dasharray="6 4" />
<line x1="160" y1="200" x2="0" y2="200" stroke="#111111" stroke-width="3.5" stroke-linecap="square" />
<line x1="0" y1="200" x2="0" y2="80" stroke="#111111" stroke-width="3.5" stroke-linecap="square" />
<line x1="160" y1="80" x2="240" y2="80" stroke="#111111" stroke-width="3.5" stroke-linecap="square" />
<line x1="240" y1="80" x2="240" y2="200" stroke="#111111" stroke-width="1.5" stroke-linecap="square" stroke-dasharray="6 4" />
<line x1="240" y1="200" x2="160" y2="200" stroke="#111111" stroke-width="3.5" stroke-linecap="square" />
<line x1="240" y1="80" x2="400" y2="80" stroke="#111111" stroke-width="3.5" stroke-linecap="square" />
<line x1="400" y1="80" x2="400" y2="200" stroke="#111111" stroke-width="1.5" stroke-linecap="square" stroke-dasharray="6 4" />
<line x1="400" y1="200" x2="240" y2="200" stroke="#111111" stroke-width="1.5" stroke-linecap="square" stroke-dasharray="6 4" />
<line x1="400" y1="80" x2="480" y2="80" stroke="#111111" stroke-width="3.5" stroke-linecap="square" />
<line x1="480" y1="80" x2="480" y2="200" stroke="#111111" stroke-width="3.5" stroke-linecap="square" />
<line x1="480" y1="200" x2="400" y2="200" stroke="#111111" stroke-width="3.5" stroke-linecap="square" />
<line x1="0" y1="0" x2="160" y2="0" stroke="#111111" stroke-width="3.5" stroke-linecap="square" />
<line x1="160" y1="0" x2="160" y2="80" stroke="#111111" stroke-width="3.5" stroke-linecap="square" />
<line x1="0" y1="80" x2="0" y2="0" stroke="#111111" stroke-width="3.5" stroke-linecap="square" />
<line x1="400" y1="200" x2="400" y2="280" stroke="#111111" stroke-width="3.5" stroke-linecap="square" />
<line x1="400" y1="280" x2="240" y2="280" stroke="#111111" stroke-width="3.5" stroke-linecap="square" />
<line x1="240" y1="280" x2="240" y2="200" stroke="#111111" stroke-width="3.5" stroke-linecap="square" />
<g data-point-labels="true" font-family="sans-serif" font-size="14" font-weight="700" fill="#111111" text-anchor="middle" dominant-baseline="middle"><text x="-8.64" y="-5.04">ㄱ</text><text x="152.00" y="74.00">ㄴ</text><text x="155.04" y="-8.68">ㄷ</text><text x="240.00" y="70.00">ㄹ</text><text x="409.36" y="76.49">ㅁ</text><text x="489.70" y="77.57">ㅂ</text><text x="489.70" y="202.43">ㅅ</text><text x="409.36" y="203.51">ㅇ</text><text x="407.53" y="286.59">ㅈ</text><text x="240.00" y="210.00">ㅊ</text><text x="240.00" y="290.00">ㅍ</text><text x="152.00" y="206.00">ㅌ</text><text x="-9.70" y="202.43">ㅎ</text></g></svg>