<?xml version='1.0' encoding='utf-8'?>
<svg xmlns="http://www.w3.org/2000/svg" width="520" height="280" viewBox="-24.00 -24.00 568.00 328.00" shape-rendering="crispEdges">
<defs>
    <pattern id="gridMinor" width="40" height="40" patternUnits="userSpaceOnUse">
      <path d="M 40 0 L 0 0 0 40" fill="none" stroke="#e2e8f0" stroke-width="1" />
    </pattern>
    <pattern id="gridMajor" width="200" height="200" patternUnits="userSpaceOnUse">
      <path d="M 200 0 L 0 0 0 200" fill="none" stroke="#cbd5e1" stroke-width="1" />
    </pattern></defs>
<rect width="568.00" height="328.00" fill="white" x="-24.00" y="-24.00" />
<rect width="568.00" height="328.00" fill="url(#gridMinor)" x="-24.00" y="-24.00" />
<rect width="568.00" height="328.00" fill="url(#gridMajor)" x="-24.00" y="-24.00" />
<line x1="120" y1="80" x2="280" y2="80" stroke="#111111" stroke-width="1.5" stroke-linecap="square" stroke-dasharray="6 4" />
<line x1="280" y1="80" x2="280" y2="200" stroke="#111111" stroke-width="1.5" stroke-linecap="square" stroke-dasharray="6 4" />
<line x1="280" y1="200" x2="120" y2="200" stroke="#111111" stroke-width="1.5" stroke-linecap="square" stroke-dasharray="6 4" />
<line x1="120" y1="200" x2="120" y2="80" stroke="#111111" stroke-width="3.5" stroke-linecap="square" />
<line x1="280" y1="80" x2="360" y2="80" stroke="#111111" stroke-width="3.5" stroke-linecap="square" />
<line x1="360" y1="80" x2="360" y2="200" stroke="#111111" stroke-width="1.5" stroke-linecap="square" stroke-dasharray="6 4" />
<line x1="360" y1="200" x2="280" y2="200" stroke="#111111" stroke-width="3.5" stroke-linecap="square" />
<line x1="360" y1="80" x2="520" y2="80" stroke="#111111" stroke-width="3.5" stroke-linecap="square" />
<line x1="520" y1="80" x2="520" y2="200" stroke="#111111" stroke-width="3.5" stroke-linecap="square" />
<line x1="520" y1="200" x2="360" y2="200" stroke="#111111" stroke-width="3.5" stroke-linecap="square" />
<line x1="120" y1="0" x2="280" y2="0" stroke="#111111" stroke-width="3.5" stroke-linecap="square" />
<line x1="280" y1="0" x2="280" y2="80" stroke="#111111" stroke-width="3.5" stroke-linecap="square" />
<line x1="120" y1="80" x2="120" y2="0" stroke="#111111" stroke-width="1.5" stroke-linecap="square" stroke-dasharray="6 4" />
<line x1="0" y1="0" x2="120" y2="0" stroke="#111111" stroke-width="3.5" stroke-linecap="square" />
<line x1="120" y1="80" x2="0" y2="80" stroke="#111111" stroke-width="3.5" stroke-linecap="square" />
<line x1="0" y1="80" x2="0" y2="0" stroke="#111111" stroke-width="3.5" stroke-linecap="square" />
<line x1="280" y1="200" x2="280" y2="280" stroke="#111111" stroke-width="3.5" stroke-linecap="square" />
<line x1="280" y1="280" x2="120" y2="280" stroke="#111111" stroke-width="3.5" stroke-linecap="square" />
<line x1="120" y1="280" x2="120" y2="200" stroke="#111111" stroke-width="3.5" stroke-linecap="square" />
<g data-point-labels="true" font-family="sans-serif" font-size="14" font-weight="700" fill="#111111" text-anchor="middle" dominant-baseline="middle"><text x="-8.86" y="-4.64">ㄱ</text><text x="113.10" y="-7.23">ㄴ</text><text x="283.03" y="-9.53">ㄷ</text><text x="286.59" y="72.47">ㄹ</text><text x="369.34" y="76.44">ㅁ</text><text x="529.87" y="78.39">ㅂ</text><text x="529.67" y="202.56">ㅅ</text><text x="368.50" y="205.26">ㅇ</text><text x="284.74" y="208.80">ㅈ</text><text x="282.51" y="289.68">ㅊ</text><text x="113.86" y="287.89">ㅍ</text><text x="111.50" y="205.26">ㅌ</text><text x="-9.82" y="78.13">ㅎ</text></g></svg>