<?xml version='1.0' encoding='utf-8'?>
<svg xmlns="http://www.w3.org/2000/svg" width="600" height="240" viewBox="-24.00 -24.00 648.00 288.00" shape-rendering="crispEdges">
<defs>
    <pattern id="gridMinor" width="40" height="40" patternUnits="userSpaceOnUse">
      <path d="M 40 0 L 0 0 0 40" fill="none" stroke="#e2e8f0" stroke-width="1" />
    </pattern>
    <pattern id="gridMajor" width="200" height="200" patternUnits="userSpaceOnUse">
      <path d="M 200 0 L 0 0 0 200" fill="none" stroke="#cbd5e1" stroke-width="1" />
    </pattern></defs>
<rect width="648.00" height="288.00" fill="white" x="-24.00" y="-24.00" />
<rect width="648.00" height="288.00" fill="url(#gridMinor)" x="-24.00" y="-24.00" />
<rect width="648.00" height="288.00" fill="url(#gridMajor)" x="-24.00" y="-24.00" />
<line x1="280" y1="0" x2="400" y2="0" stroke="#111111" stroke-width="3.5" stroke-linecap="square" />
<line x1="400" y1="0" x2="400" y2="80" stroke="#111111" stroke-width="3.5" stroke-linecap="square" />
<line x1="400" y1="80" x2="280" y2="80" stroke="#111111" stroke-width="1.5" stroke-linecap="square" stroke-dasharray="6 4" />
<line x1="280" y1="80" x2="280" y2="0" stroke="#111111" stroke-width="1.5" stroke-linecap="square" stroke-dasharray="6 4" />
<line x1="120" y1="0" x2="280" y2="0" stroke="#111111" stroke-width="3.5" stroke-linecap="square" />
<line x1="280" y1="80" x2="120" y2="80" stroke="#111111" stroke-width="3.5" stroke-linecap="square" />
<line x1="120" y1="80" x2="120" y2="0" stroke="#111111" stroke-width="1.5" stroke-linecap="square" stroke-dasharray="6 4" />
<line x1="0" y1="0" x2="120" y2="0" stroke="#111111" stroke-width="3.5" stroke-linecap="square" />
<line x1="120" y1="80" x2="0" y2="80" stroke="#111111" stroke-width="3.5" stroke-linecap="square" />
<line x1="0" y1="80" x2="0" y2="0" stroke="#111111" stroke-width="3.5" stroke-linecap="square" />
<line x1="400" y1="80" x2="400" y2="240" stroke="#111111" stroke-width="1.5" stroke-linecap="square" stroke-dasharray="6 4" />
<line x1="400" y1="240" x2="280" y2="240" stroke="#111111" stroke-width="3.5" stroke-linecap="square" />
<line x1="280" y1="240" x2="280" y2="80" stroke="#111111" stroke-width="3.5" stroke-linecap="square" />
<line x1="400" y1="80" x2="480" y2="80" stroke="#111111" stroke-width="3.5" stroke-linecap="square" />
<line x1="480" y1="80" x2="480" y2="240" stroke="#111111" stroke-width="1.5" stroke-linecap="square" stroke-dasharray="6 4" />
<line x1="480" y1="240" x2="400" y2="240" stroke="#111111" stroke-width="3.5" stroke-linecap="square" />
<line x1="480" y1="80" x2="600" y2="80" stroke="#111111" stroke-width="3.5" stroke-linecap="square" />
<line x1="600" y1="80" x2="600" y2="240" stroke="#111111" stroke-width="3.5" stroke-linecap="square" />
<line x1="600" y1="240" x2="480" y2="240" stroke="#111111" stroke-width="3.5" stroke-linecap="square" />
<g data-point-labels="true" font-family="sans-serif" font-size="14" font-weight="700" fill="#111111" text-anchor="middle" dominant-baseline="middle"><text x="-9.51" y="-3.09">ㄱ</text><text x="111.13" y="-4.63">ㄴ</text><text x="271.48" y="74.76">ㄷ</text><text x="276.60" y="-9.41">ㄹ</text><text x="406.27" y="-7.79">ㅁ</text><text x="409.64" y="77.34">ㅂ</text><text x="489.90" y="78.61">ㅅ</text><text x="609.97" y="79.19">ㅇ</text><text x="609.00" y="244.36">ㅈ</text><text x="487.65" y="246.44">ㅊ</text><text x="405.17" y="248.56">ㅍ</text><text x="277.39" y="249.65">ㅌ</text><text x="-9.97" y="79.28">ㅎ</text></g></svg>