<?xml version='1.0' encoding='utf-8'?>
<svg xmlns="http://www.w3.org/2000/svg" width="680" height="200" viewBox="-24.00 -24.00 728.00 248.00" shape-rendering="crispEdges">
<defs>
    <pattern id="gridMinor" width="40" height="40" patternUnits="userSpaceOnUse">
      <path d="M 40 0 L 0 0 0 40" fill="none" stroke="#e2e8f0" stroke-width="1" />
    </pattern>
    <pattern id="gridMajor" width="200" height="200" patternUnits="userSpaceOnUse">
      <path d="M 200 0 L 0 0 0 200" fill="none" stroke="#cbd5e1" stroke-width="1" />
    </pattern></defs>
<rect width="728.00" height="248.00" fill="white" x="-24.00" y="-24.00" />
<rect width="728.00" height="248.00" fill="url(#gridMinor)" x="-24.00" y="-24.00" />
<rect width="728.00" height="248.00" fill="url(#gridMajor)" x="-24.00" y="-24.00" />
<line x1="280" y1="0" x2="440" y2="0" stroke="#111111" stroke-width="3.5" stroke-linecap="square" />
<line x1="440" y1="0" x2="440" y2="80" stroke="#111111" stroke-width="3.5" stroke-linecap="square" />
<line x1="440" y1="80" x2="280" y2="80" stroke="#111111" stroke-width="1.5" stroke-linecap="square" stroke-dasharray="6 4" />
<line x1="280" y1="80" x2="280" y2="0" stroke="#111111" stroke-width="1.5" stroke-linecap="square" stroke-dasharray="6 4" />
<line x1="160" y1="0" x2="280" y2="0" stroke="#111111" stroke-width="3.5" stroke-linecap="square" />
<line x1="280" y1="80" x2="160" y2="80" stroke="#111111" stroke-width="3.5" stroke-linecap="square" />
<line x1="160" y1="80" x2="160" y2="0" stroke="#111111" stroke-width="1.5" stroke-linecap="square" stroke-dasharray="6 4" />
<line x1="0" y1="0" x2="160" y2="0" stroke="#111111" stroke-width="3.5" stroke-linecap="square" />
<line x1="160" y1="80" x2="0" y2="80" stroke="#111111" stroke-width="3.5" stroke-linecap="square" />
<line x1="0" y1="80" x2="0" y2="0" stroke="#111111" stroke-width="3.5" stroke-linecap="square" />
<line x1="440" y1="80" x2="440" y2="200" stroke="#111111" stroke-width="1.5" stroke-linecap="square" stroke-dasharray="6 4" />
<line x1="440" y1="200" x2="280" y2="200" stroke="#111111" stroke-width="3.5" stroke-linecap="square" />
<line x1="280" y1="200" x2="280" y2="80" stroke="#111111" stroke-width="3.5" stroke-linecap="square" />
<line x1="440" y1="80" x2="520" y2="80" stroke="#111111" stroke-width="3.5" stroke-linecap="square" />
<line x1="520" y1="80" x2="520" y2="200" stroke="#111111" stroke-width="1.5" stroke-linecap="square" stroke-dasharray="6 4" />
<line x1="520" y1="200" x2="440" y2="200" stroke="#111111" stroke-width="3.5" stroke-linecap="square" />
<line x1="520" y1="80" x2="680" y2="80" stroke="#111111" stroke-width="3.5" stroke-linecap="square" />
<line x1="680" y1="80" x2="680" y2="200" stroke="#111111" stroke-width="3.5" stroke-linecap="square" />
<line x1="680" y1="200" x2="520" y2="200" stroke="#111111" stroke-width="3.5" stroke-linecap="square" />
<g data-point-labels="true" font-family="sans-serif" font-size="14" font-weight="700" fill="#111111" text-anchor="middle" dominant-baseline="middle"><text x="-9.67" y="-2.54">ㄱ</text><text x="151.00" y="-4.36">ㄴ</text><text x="274.00" y="-8.00">ㄷ</text><text x="447.07" y="-7.07">ㄹ</text><text x="449.92" y="78.76">ㅁ</text><text x="529.98" y="79.33">ㅂ</text><text x="689.99" y="79.66">ㅅ</text><text x="689.50" y="203.11">ㅇ</text><text x="528.45" y="205.35">ㅈ</text><text x="446.44" y="207.65">ㅊ</text><text x="274.66" y="208.45">ㅍ</text><text x="-9.99" y="79.67">ㅌ</text><text x="150.02" y="79.40">ㅎ</text></g></svg>