<?xml version='1.0' encoding='utf-8'?>
<svg xmlns="http://www.w3.org/2000/svg" width="480" height="360" viewBox="-24.00 -24.00 528.00 408.00" shape-rendering="crispEdges">
<defs>
    <pattern id="gridMinor" width="40" height="40" patternUnits="userSpaceOnUse">
      <path d="M 40 0 L 0 0 0 40" fill="none" stroke="#e2e8f0" stroke-width="1" />
    </pattern>
    <pattern id="gridMajor" width="200" height="200" patternUnits="userSpaceOnUse">
      <path d="M 200 0 L 0 0 0 200" fill="none" stroke="#cbd5e1" stroke-width="1" />
    </pattern></defs>
<rect width="528.00" height="408.00" fill="white" x="-24.00" y="-24.00" />
<rect width="528.00" height="408.00" fill="url(#gridMinor)" x="-24.00" y="-24.00" />
<rect width="528.00" height="408.00" fill="url(#gridMajor)" x="-24.00" y="-24.00" />
<line x1="160" y1="80" x2="280" y2="80" stroke="#111111" stroke-width="1.5" stroke-linecap="square" stroke-dasharray="6 4" />
<line x1="280" y1="80" x2="280" y2="240" stroke="#111111" stroke-width="1.5" stroke-linecap="square" stroke-dasharray="6 4" />
<line x1="280" y1="240" x2="160" y2="240" stroke="#111111" stroke-width="3.5" stroke-linecap="square" />
<line x1="160" y1="240" x2="160" y2="80" stroke="#111111" stroke-width="3.5" stroke-linecap="square" />
<line x1="280" y1="80" x2="360" y2="80" stroke="#111111" stroke-width="3.5" stroke-linecap="square" />
<line x1="360" y1="80" x2="360" y2="240" stroke="#111111" stroke-width="1.5" stroke-linecap="square" stroke-dasharray="6 4" />
<line x1="360" y1="240" x2="280" y2="240" stroke="#111111" stroke-width="1.5" stroke-linecap="square" stroke-dasharray="6 4" />
<line x1="360" y1="80" x2="480" y2="80" stroke="#111111" stroke-width="3.5" stroke-linecap="square" />
<line x1="480" y1="80" x2="480" y2="240" stroke="#111111" stroke-width="3.5" stroke-linecap="square" />
<line x1="480" y1="240" x2="360" y2="240" stroke="#111111" stroke-width="3.5" stroke-linecap="square" />
<line x1="160" y1="0" x2="280" y2="0" stroke="#111111" stroke-width="3.5" stroke-linecap="square" />
<line x1="280" y1="0" x2="280" y2="80" stroke="#111111" stroke-width="3.5" stroke-linecap="square" />
<line x1="160" y1="80" x2="160" y2="0" stroke="#111111" stroke-width="1.5" stroke-linecap="square" stroke-dasharray="6 4" />
<line x1="0" y1="0" x2="160" y2="0" stroke="#111111" stroke-width="3.5" stroke-linecap="square" />
<line x1="160" y1="80" x2="0" y2="80" stroke="#111111" stroke-width="3.5" stroke-linecap="square" />
<line x1="0" y1="80" x2="0" y2="0" stroke="#111111" stroke-width="3.5" stroke-linecap="square" />
<line x1="360" y1="240" x2="360" y2="360" stroke="#111111" stroke-width="3.5" stroke-linecap="square" />
<line x1="360" y1="360" x2="280" y2="360" stroke="#111111" stroke-width="3.5" stroke-linecap="square" />
<line x1="280" y1="360" x2="280" y2="240" stroke="#111111" stroke-width="3.5" stroke-linecap="square" />
<g data-point-labels="true" font-family="sans-serif" font-size="14" font-weight="700" fill="#111111" text-anchor="middle" dominant-baseline="middle"><text x="-8.68" y="-4.96">ㄱ</text><text x="151.75" y="74.34">ㄴ</text><text x="154.42" y="-8.30">ㄷ</text><text x="281.33" y="-9.91">ㄹ</text><text x="282.80" y="70.40">ㅁ</text><text x="368.25" y="74.34">ㅂ</text><text x="489.55" y="77.02">ㅅ</text><text x="489.23" y="243.84">ㅇ</text><text x="367.38" y="246.75">ㅈ</text><text x="364.28" y="369.04">ㅊ</text><text x="282.14" y="249.77">ㅍ</text><text x="280.94" y="369.96">ㅌ</text><text x="152.62" y="246.75">ㅎ</text></g></svg>