<?xml version='1.0' encoding='utf-8'?>
<svg xmlns="http://www.w3.org/2000/svg" width="480" height="360" viewBox="-24.00 -24.00 528.00 408.00" shape-rendering="crispEdges">
<defs>
    <pattern id="gridMinor" width="40" height="40" patternUnits="userSpaceOnUse">
      <path d="M 40 0 L 0 0 0 40" fill="none" stroke="#e2e8f0" stroke-width="1" />
    </pattern>
    <pattern id="gridMajor" width="200" height="200" patternUnits="userSpaceOnUse">
      <path d="M 200 0 L 0 0 0 200" fill="none" stroke="#cbd5e1" stroke-width="1" />
    </pattern></defs>
<rect width="528.00" height="408.00" fill="white" x="-24.00" y="-24.00" />
<rect width="528.00" height="408.00" fill="url(#gridMinor)" x="-24.00" y="-24.00" />
<rect width="528.00" height="408.00" fill="url(#gridMajor)" x="-24.00" y="-24.00" />
<line x1="0" y1="0" x2="120" y2="0" stroke="#111111" stroke-width="3.5" stroke-linecap="square" />
<line x1="120" y1="0" x2="120" y2="80" stroke="#111111" stroke-width="1.5" stroke-linecap="square" stroke-dasharray="6 4" />
<line x1="120" y1="80" x2="0" y2="80" stroke="#111111" stroke-width="3.5" stroke-linecap="square" />
<line x1="0" y1="80" x2="0" y2="0" stroke="#111111" stroke-width="3.5" stroke-linecap="square" />
<line x1="120" y1="0" x2="280" y2="0" stroke="#111111" stroke-width="3.5" stroke-linecap="square" />
<line x1="280" y1="0" x2="280" y2="80" stroke="#111111" stroke-width="3.5" stroke-linecap="square" />
<line x1="280" y1="80" x2="120" y2="80" stroke="#111111" stroke-width="1.5" stroke-linecap="square" stroke-dasharray="6 4" />
<line x1="280" y1="80" x2="280" y2="200" stroke="#111111" stroke-width="1.5" stroke-linecap="square" stroke-dasharray="6 4" />
<line x1="280" y1="200" x2="120" y2="200" stroke="#111111" stroke-width="3.5" stroke-linecap="square" />
<line x1="120" y1="200" x2="120" y2="80" stroke="#111111" stroke-width="3.5" stroke-linecap="square" />
<line x1="280" y1="80" x2="360" y2="80" stroke="#111111" stroke-width="3.5" stroke-linecap="square" />
<line x1="360" y1="80" x2="360" y2="200" stroke="#111111" stroke-width="3.5" stroke-linecap="square" />
<line x1="360" y1="200" x2="280" y2="200" stroke="#111111" stroke-width="1.5" stroke-linecap="square" stroke-dasharray="6 4" />
<line x1="360" y1="200" x2="360" y2="360" stroke="#111111" stroke-width="1.5" stroke-linecap="square" stroke-dasharray="6 4" />
<line x1="360" y1="360" x2="280" y2="360" stroke="#111111" stroke-width="3.5" stroke-linecap="square" />
<line x1="280" y1="360" x2="280" y2="200" stroke="#111111" stroke-width="3.5" stroke-linecap="square" />
<line x1="360" y1="200" x2="480" y2="200" stroke="#111111" stroke-width="3.5" stroke-linecap="square" />
<line x1="480" y1="200" x2="480" y2="360" stroke="#111111" stroke-width="3.5" stroke-linecap="square" />
<line x1="480" y1="360" x2="360" y2="360" stroke="#111111" stroke-width="3.5" stroke-linecap="square" />
<g data-point-labels="true" font-family="sans-serif" font-size="14" font-weight="700" fill="#111111" text-anchor="middle" dominant-baseline="middle"><text x="-8.48" y="-5.30">ㄱ</text><text x="113.58" y="-7.67">ㄴ</text><text x="281.79" y="-9.84">ㄷ</text><text x="283.47" y="70.62">ㄹ</text><text x="368.15" y="74.21">ㅁ</text><text x="489.83" y="201.84">ㅂ</text><text x="369.30" y="203.67">ㅅ</text><text x="487.48" y="366.64">ㅇ</text><text x="285.55" y="208.32">ㅈ</text><text x="364.72" y="368.82">ㅊ</text><text x="281.39" y="369.90">ㅍ</text><text x="110.49" y="203.10">ㅌ</text><text x="-9.56" y="77.07">ㅎ</text></g></svg>