<?xml version='1.0' encoding='utf-8'?>
<svg xmlns="http://www.w3.org/2000/svg" width="560" height="360" viewBox="-24.00 -24.00 608.00 408.00" shape-rendering="crispEdges">
<defs>
    <pattern id="gridMinor" width="40" height="40" patternUnits="userSpaceOnUse">
      <path d="M 40 0 L 0 0 0 40" fill="none" stroke="#e2e8f0" stroke-width="1" />
    </pattern>
    <pattern id="gridMajor" width="200" height="200" patternUnits="userSpaceOnUse">
      <path d="M 200 0 L 0 0 0 200" fill="none" stroke="#cbd5e1" stroke-width="1" />
    </pattern></defs>
<rect width="608.00" height="408.00" fill="white" x="-24.00" y="-24.00" />
<rect width="608.00" height="408.00" fill="url(#gridMinor)" x="-24.00" y="-24.00" />
<rect width="608.00" height="408.00" fill="url(#gridMajor)" x="-24.00" y="-24.00" />
<line x1="0" y1="160" x2="160" y2="160" stroke="#111111" stroke-width="3.5" stroke-linecap="square" />
<line x1="160" y1="160" x2="160" y2="240" stroke="#111111" stroke-width="1.5" stroke-linecap="square" stroke-dasharray="6 4" />
<line x1="160" y1="240" x2="0" y2="240" stroke="#111111" stroke-width="3.5" stroke-linecap="square" />
<line x1="0" y1="240" x2="0" y2="160" stroke="#111111" stroke-width="3.5" stroke-linecap="square" />
<line x1="160" y1="160" x2="280" y2="160" stroke="#111111" stroke-width="1.5" stroke-linecap="square" stroke-dasharray="6 4" />
<line x1="280" y1="160" x2="280" y2="240" stroke="#111111" stroke-width="1.5" stroke-linecap="square" stroke-dasharray="6 4" />
<line x1="280" y1="240" x2="160" y2="240" stroke="#111111" stroke-width="3.5" stroke-linecap="square" />
<line x1="280" y1="160" x2="440" y2="160" stroke="#111111" stroke-width="3.5" stroke-linecap="square" />
<line x1="440" y1="160" x2="440" y2="240" stroke="#111111" stroke-width="1.5" stroke-linecap="square" stroke-dasharray="6 4" />
<line x1="440" y1="240" x2="280" y2="240" stroke="#111111" stroke-width="1.5" stroke-linecap="square" stroke-dasharray="6 4" />
<line x1="440" y1="160" x2="560" y2="160" stroke="#111111" stroke-width="3.5" stroke-linecap="square" />
<line x1="560" y1="160" x2="560" y2="240" stroke="#111111" stroke-width="3.5" stroke-linecap="square" />
<line x1="560" y1="240" x2="440" y2="240" stroke="#111111" stroke-width="3.5" stroke-linecap="square" />
<line x1="160" y1="0" x2="280" y2="0" stroke="#111111" stroke-width="3.5" stroke-linecap="square" />
<line x1="280" y1="0" x2="280" y2="160" stroke="#111111" stroke-width="3.5" stroke-linecap="square" />
<line x1="160" y1="160" x2="160" y2="0" stroke="#111111" stroke-width="3.5" stroke-linecap="square" />
<line x1="440" y1="240" x2="440" y2="360" stroke="#111111" stroke-width="3.5" stroke-linecap="square" />
<line x1="440" y1="360" x2="280" y2="360" stroke="#111111" stroke-width="3.5" stroke-linecap="square" />
<line x1="280" y1="360" x2="280" y2="240" stroke="#111111" stroke-width="3.5" stroke-linecap="square" />
<g data-point-labels="true" font-family="sans-serif" font-size="14" font-weight="700" fill="#111111" text-anchor="middle" dominant-baseline="middle"><text x="154.48" y="-8.34">ㄱ</text><text x="277.57" y="150.30">ㄴ</text><text x="279.56" y="-9.99">ㄷ</text><text x="449.75" y="157.79">ㄹ</text><text x="569.92" y="158.75">ㅁ</text><text x="569.86" y="241.66">ㅂ</text><text x="449.57" y="242.89">ㅅ</text><text x="446.75" y="367.38">ㅇ</text><text x="279.48" y="369.99">ㅈ</text><text x="278.16" y="249.83">ㅊ</text><text x="150.58" y="243.35">ㅍ</text><text x="-9.88" y="241.56">ㅌ</text><text x="-9.93" y="158.82">ㅎ</text></g></svg>