<?xml version='1.0' encoding='utf-8'?>
<svg xmlns="http://www.w3.org/2000/svg" width="560" height="320" viewBox="-24.00 -24.00 608.00 368.00" shape-rendering="crispEdges">
<defs>
    <pattern id="gridMinor" width="40" height="40" patternUnits="userSpaceOnUse">
      <path d="M 40 0 L 0 0 0 40" fill="none" stroke="#e2e8f0" stroke-width="1" />
    </pattern>
    <pattern id="gridMajor" width="200" height="200" patternUnits="userSpaceOnUse">
      <path d="M 200 0 L 0 0 0 200" fill="none" stroke="#cbd5e1" stroke-width="1" />
    </pattern></defs>
<rect width="608.00" height="368.00" fill="white" x="-24.00" y="-24.00" />
<rect width="608.00" height="368.00" fill="url(#gridMinor)" x="-24.00" y="-24.00" />
<rect width="608.00" height="368.00" fill="url(#gridMajor)" x="-24.00" y="-24.00" />
<line x1="0" y1="120" x2="160" y2="120" stroke="#111111" stroke-width="1.5" stroke-linecap="square" stroke-dasharray="6 4" />
<line x1="160" y1="120" x2="160" y2="200" stroke="#111111" stroke-width="1.5" stroke-linecap="square" stroke-dasharray="6 4" />
<line x1="160" y1="200" x2="0" y2="200" stroke="#111111" stroke-width="1.5" stroke-linecap="square" stroke-dasharray="6 4" />
<line x1="0" y1="200" x2="0" y2="120" stroke="#111111" stroke-width="3.5" stroke-linecap="square" />
<line x1="160" y1="120" x2="280" y2="120" stroke="#111111" stroke-width="3.5" stroke-linecap="square" />
<line x1="280" y1="120" x2="280" y2="200" stroke="#111111" stroke-width="1.5" stroke-linecap="square" stroke-dasharray="6 4" />
<line x1="280" y1="200" x2="160" y2="200" stroke="#111111" stroke-width="3.5" stroke-linecap="square" />
<line x1="280" y1="120" x2="440" y2="120" stroke="#111111" stroke-width="3.5" stroke-linecap="square" />
<line x1="440" y1="120" x2="440" y2="200" stroke="#111111" stroke-width="1.5" stroke-linecap="square" stroke-dasharray="6 4" />
<line x1="440" y1="200" x2="280" y2="200" stroke="#111111" stroke-width="3.5" stroke-linecap="square" />
<line x1="440" y1="120" x2="560" y2="120" stroke="#111111" stroke-width="3.5" stroke-linecap="square" />
<line x1="560" y1="120" x2="560" y2="200" stroke="#111111" stroke-width="3.5" stroke-linecap="square" />
<line x1="560" y1="200" x2="440" y2="200" stroke="#111111" stroke-width="3.5" stroke-linecap="square" />
<line x1="0" y1="0" x2="160" y2="0" stroke="#111111" stroke-width="3.5" stroke-linecap="square" />
<line x1="160" y1="0" x2="160" y2="120" stroke="#111111" stroke-width="3.5" stroke-linecap="square" />
<line x1="0" y1="120" x2="0" y2="0" stroke="#111111" stroke-width="3.5" stroke-linecap="square" />
<line x1="160" y1="200" x2="160" y2="320" stroke="#111111" stroke-width="3.5" stroke-linecap="square" />
<line x1="160" y1="320" x2="0" y2="320" stroke="#111111" stroke-width="3.5" stroke-linecap="square" />
<line x1="0" y1="320" x2="0" y2="200" stroke="#111111" stroke-width="3.5" stroke-linecap="square" />
<g data-point-labels="true" font-family="sans-serif" font-size="14" font-weight="700" fill="#111111" text-anchor="middle" dominant-baseline="middle"><text x="-8.19" y="-5.73">ㄱ</text><text x="156.06" y="-9.19">ㄴ</text><text x="287.89" y="113.86">ㄷ</text><text x="449.83" y="118.14">ㄹ</text><text x="569.93" y="118.80">ㅁ</text><text x="569.93" y="201.20">ㅂ</text><text x="449.83" y="201.86">ㅅ</text><text x="287.89" y="206.14">ㅇ</text><text x="156.06" y="329.19">ㅈ</text><text x="-8.19" y="325.73">ㅊ</text><text x="151.36" y="205.04">ㅍ</text><text x="-9.85" y="201.72">ㅌ</text><text x="-9.85" y="118.28">ㅎ</text></g></svg>