<?xml version='1.0' encoding='utf-8'?>
<svg xmlns="http://www.w3.org/2000/svg" width="480" height="320" viewBox="-24.00 -24.00 528.00 368.00" shape-rendering="crispEdges">
<defs>
    <pattern id="gridMinor" width="40" height="40" patternUnits="userSpaceOnUse">
      <path d="M 40 0 L 0 0 0 40" fill="none" stroke="#e2e8f0" stroke-width="1" />
    </pattern>
    <pattern id="gridMajor" width="200" height="200" patternUnits="userSpaceOnUse">
      <path d="M 200 0 L 0 0 0 200" fill="none" stroke="#cbd5e1" stroke-width="1" />
    </pattern></defs>
<rect width="528.00" height="368.00" fill="white" x="-24.00" y="-24.00" />
<rect width="528.00" height="368.00" fill="url(#gridMinor)" x="-24.00" y="-24.00" />
<rect width="528.00" height="368.00" fill="url(#gridMajor)" x="-24.00" y="-24.00" />
<line x1="280" y1="80" x2="360" y2="80" stroke="#111111" stroke-width="3.5" stroke-linecap="square" />
<line x1="360" y1="80" x2="360" y2="240" stroke="#111111" stroke-width="1.5" stroke-linecap="square" stroke-dasharray="6 4" />
<line x1="360" y1="240" x2="280" y2="240" stroke="#111111" stroke-width="3.5" stroke-linecap="square" />
<line x1="280" y1="240" x2="280" y2="80" stroke="#111111" stroke-width="1.5" stroke-linecap="square" stroke-dasharray="6 4" />
<line x1="160" y1="80" x2="280" y2="80" stroke="#111111" stroke-width="1.5" stroke-linecap="square" stroke-dasharray="6 4" />
<line x1="280" y1="240" x2="160" y2="240" stroke="#111111" stroke-width="3.5" stroke-linecap="square" />
<line x1="160" y1="240" x2="160" y2="80" stroke="#111111" stroke-width="3.5" stroke-linecap="square" />
<line x1="360" y1="80" x2="480" y2="80" stroke="#111111" stroke-width="3.5" stroke-linecap="square" />
<line x1="480" y1="80" x2="480" y2="240" stroke="#111111" stroke-width="3.5" stroke-linecap="square" />
<line x1="480" y1="240" x2="360" y2="240" stroke="#111111" stroke-width="1.5" stroke-linecap="square" stroke-dasharray="6 4" />
<line x1="160" y1="0" x2="280" y2="0" stroke="#111111" stroke-width="3.5" stroke-linecap="square" />
<line x1="280" y1="0" x2="280" y2="80" stroke="#111111" stroke-width="3.5" stroke-linecap="square" />
<line x1="160" y1="80" x2="160" y2="0" stroke="#111111" stroke-width="1.5" stroke-linecap="square" stroke-dasharray="6 4" />
<line x1="0" y1="0" x2="160" y2="0" stroke="#111111" stroke-width="3.5" stroke-linecap="square" />
<line x1="160" y1="80" x2="0" y2="80" stroke="#111111" stroke-width="3.5" stroke-linecap="square" />
<line x1="0" y1="80" x2="0" y2="0" stroke="#111111" stroke-width="3.5" stroke-linecap="square" />
<line x1="480" y1="240" x2="480" y2="320" stroke="#111111" stroke-width="3.5" stroke-linecap="square" />
<line x1="480" y1="320" x2="360" y2="320" stroke="#111111" stroke-width="3.5" stroke-linecap="square" />
<line x1="360" y1="320" x2="360" y2="240" stroke="#111111" stroke-width="3.5" stroke-linecap="square" />
<g data-point-labels="true" font-family="sans-serif" font-size="14" font-weight="700" fill="#111111" text-anchor="middle" dominant-baseline="middle"><text x="-8.87" y="-4.62">ㄱ</text><text x="151.24" y="75.18">ㄴ</text><text x="153.75" y="-7.81">ㄷ</text><text x="280.40" y="-9.99">ㄹ</text><text x="280.91" y="70.04">ㅁ</text><text x="368.06" y="74.09">ㅂ</text><text x="489.56" y="77.08">ㅅ</text><text x="489.04" y="244.27">ㅇ</text><text x="487.58" y="326.53">ㅈ</text><text x="366.62" y="247.50">ㅊ</text><text x="364.36" y="329.00">ㅍ</text><text x="280.59" y="249.98">ㅌ</text><text x="152.38" y="246.48">ㅎ</text></g></svg>