<?xml version='1.0' encoding='utf-8'?>
<svg xmlns="http://www.w3.org/2000/svg" width="400" height="240" viewBox="-106.00 -106.00 612.00 452.00" shape-rendering="crispEdges">
<defs>
    <pattern id="gridMinor" width="40" height="40" patternUnits="userSpaceOnUse">
      <path d="M 40 0 L 0 0 0 40" fill="none" stroke="#e2e8f0" stroke-width="1" />
    </pattern>
    <pattern id="gridMajor" width="200" height="200" patternUnits="userSpaceOnUse">
      <path d="M 200 0 L 0 0 0 200" fill="none" stroke="#cbd5e1" stroke-width="1" />
    </pattern></defs>
<rect width="448.00" height="288.00" fill="white" x="-24.00" y="-24.00" />
<rect width="448.00" height="288.00" fill="url(#gridMinor)" x="-24.00" y="-24.00" />
<rect width="448.00" height="288.00" fill="url(#gridMajor)" x="-24.00" y="-24.00" />
<line x1="120" y1="80" x2="0" y2="80" stroke="#111111" stroke-width="1.5" stroke-linecap="square" stroke-dasharray="6 4" />
<line x1="120" y1="240" x2="120" y2="80" stroke="#111111" stroke-width="1.5" stroke-linecap="square" stroke-dasharray="6 4" />
<line x1="120" y1="240" x2="0" y2="240" stroke="#111111" stroke-width="3.5" stroke-linecap="square" />
<line x1="0" y1="240" x2="0" y2="80" stroke="#111111" stroke-width="3.5" stroke-linecap="square" />
<line x1="120" y1="80" x2="200" y2="80" stroke="#111111" stroke-width="3.5" stroke-linecap="square" />
<line x1="200" y1="240" x2="200" y2="80" stroke="#111111" stroke-width="1.5" stroke-linecap="square" stroke-dasharray="6 4" />
<line x1="200" y1="240" x2="120" y2="240" stroke="#111111" stroke-width="3.5" stroke-linecap="square" />
<line x1="320" y1="80" x2="200" y2="80" stroke="#111111" stroke-width="1.5" stroke-linecap="square" stroke-dasharray="6 4" />
<line x1="320" y1="240" x2="320" y2="80" stroke="#111111" stroke-width="1.5" stroke-linecap="square" stroke-dasharray="6 4" />
<line x1="320" y1="240" x2="200" y2="240" stroke="#111111" stroke-width="3.5" stroke-linecap="square" />
<line x1="320" y1="80" x2="400" y2="80" stroke="#111111" stroke-width="3.5" stroke-linecap="square" />
<line x1="400" y1="80" x2="400" y2="240" stroke="#111111" stroke-width="3.5" stroke-linecap="square" />
<line x1="400" y1="240" x2="320" y2="240" stroke="#111111" stroke-width="3.5" stroke-linecap="square" />
<line x1="0" y1="0" x2="120" y2="0" stroke="#111111" stroke-width="3.5" stroke-linecap="square" />
<line x1="120" y1="0" x2="120" y2="80" stroke="#111111" stroke-width="3.5" stroke-linecap="square" />
<line x1="0" y1="80" x2="0" y2="0" stroke="#111111" stroke-width="3.5" stroke-linecap="square" />
<line x1="200" y1="0" x2="320" y2="0" stroke="#111111" stroke-width="3.5" stroke-linecap="square" />
<line x1="320" y1="0" x2="320" y2="80" stroke="#111111" stroke-width="3.5" stroke-linecap="square" />
<line x1="200" y1="80" x2="200" y2="0" stroke="#111111" stroke-width="3.5" stroke-linecap="square" />
<g data-point-labels="true" font-family="sans-serif" font-size="20" font-weight="700" fill="#111111" text-anchor="middle" dominant-baseline="middle"><text x="-8.49" y="-8.49">ㄱ</text><text x="108.69" y="-11.31">ㄴ</text><text x="200.00" y="-12.00">ㄷ</text><text x="211.31" y="68.69">ㄹ</text><text x="328.49" y="-8.49">ㅁ</text><text x="331.31" y="68.69">ㅂ</text><text x="412.00" y="80.00">ㅅ</text><text x="408.49" y="248.49">ㅇ</text><text x="331.31" y="251.31">ㅈ</text><text x="200.00" y="252.00">ㅊ</text><text x="108.69" y="251.31">ㅋ</text><text x="-8.49" y="248.49">ㅌ</text><text x="-12.00" y="80.00">ㅍ</text><text x="108.69" y="68.69">ㅎ</text></g></svg>