<?xml version='1.0' encoding='utf-8'?>
<svg xmlns="http://www.w3.org/2000/svg" width="200" height="80" viewBox="-136.00 -136.00 472.00 352.00" shape-rendering="crispEdges">
<defs>
    <pattern id="gridMinor" width="40" height="40" patternUnits="userSpaceOnUse">
      <path d="M 40 0 L 0 0 0 40" fill="none" stroke="#94a3b8" stroke-width="1.4" />
    </pattern>
    <pattern id="gridMajor" width="200" height="200" patternUnits="userSpaceOnUse">
      <path d="M 200 0 L 0 0 0 200" fill="none" stroke="#64748b" stroke-width="1.4" />
    </pattern></defs>
<rect width="248.00" height="128.00" fill="white" x="-24.00" y="-24.00" />
<rect width="248.00" height="128.00" fill="url(#gridMinor)" x="-24.00" y="-24.00" />
<rect width="248.00" height="128.00" fill="url(#gridMajor)" x="-24.00" y="-24.00" />
<line x1="80" y1="0" x2="120" y2="0" stroke="#111111" stroke-width="4.9" stroke-linecap="square" />
<line x1="120" y1="0" x2="120" y2="40" stroke="#111111" stroke-width="4.9" stroke-linecap="square" />
<line x1="80" y1="40" x2="120" y2="40" stroke="#111111" stroke-width="2.1" stroke-linecap="square" stroke-dasharray="6 4" />
<line x1="80" y1="0" x2="80" y2="40" stroke="#111111" stroke-width="2.1" stroke-linecap="square" stroke-dasharray="6 4" />
<line x1="40" y1="0" x2="80" y2="0" stroke="#111111" stroke-width="4.9" stroke-linecap="square" />
<line x1="80" y1="40" x2="40" y2="40" stroke="#111111" stroke-width="4.9" stroke-linecap="square" />
<line x1="40" y1="0" x2="40" y2="40" stroke="#111111" stroke-width="2.1" stroke-linecap="square" stroke-dasharray="6 4" />
<line x1="0" y1="0" x2="40" y2="0" stroke="#111111" stroke-width="4.9" stroke-linecap="square" />
<line x1="40" y1="40" x2="0" y2="40" stroke="#111111" stroke-width="4.9" stroke-linecap="square" />
<line x1="0" y1="40" x2="0" y2="0" stroke="#111111" stroke-width="4.9" stroke-linecap="square" />
<line x1="120" y1="80" x2="120" y2="40" stroke="#111111" stroke-width="2.1" stroke-linecap="square" stroke-dasharray="6 4" />
<line x1="120" y1="80" x2="80" y2="80" stroke="#111111" stroke-width="4.9" stroke-linecap="square" />
<line x1="80" y1="80" x2="80" y2="40" stroke="#111111" stroke-width="4.9" stroke-linecap="square" />
<line x1="120" y1="40" x2="160" y2="40" stroke="#111111" stroke-width="4.9" stroke-linecap="square" />
<line x1="160" y1="80" x2="160" y2="40" stroke="#111111" stroke-width="2.1" stroke-linecap="square" stroke-dasharray="6 4" />
<line x1="160" y1="80" x2="120" y2="80" stroke="#111111" stroke-width="4.9" stroke-linecap="square" />
<line x1="160" y1="40" x2="200" y2="40" stroke="#ef4444" stroke-width="4.9" stroke-linecap="square" />
<line x1="200" y1="40" x2="200" y2="80" stroke="#111111" stroke-width="4.9" stroke-linecap="square" />
<line x1="200" y1="80" x2="160" y2="80" stroke="#111111" stroke-width="4.9" stroke-linecap="square" />
<g data-point-labels="true" font-family="sans-serif" font-size="14" font-weight="700" fill="#111111" text-anchor="middle" dominant-baseline="middle"><text x="-12.00" y="0.00">ㄱ</text><text x="28.69" y="-11.31">ㄴ</text><text x="68.69" y="-11.31">ㄷ</text><text x="128.49" y="-8.49">ㄹ</text><text x="131.31" y="28.69">ㅁ</text><text x="171.31" y="28.69">ㅂ</text><text x="212.00" y="40.00">ㅅ</text><text x="212.00" y="80.00">ㅇ</text><text x="171.31" y="91.31">ㅈ</text><text x="131.31" y="91.31">ㅊ</text><text x="71.51" y="88.49">ㅋ</text><text x="68.69" y="51.31">ㅌ</text><text x="28.69" y="51.31">ㅍ</text><text x="-12.00" y="40.00">ㅎ</text></g></svg>