<?xml version='1.0' encoding='utf-8'?>
<svg xmlns="http://www.w3.org/2000/svg" width="480" height="360" viewBox="-48.00 -48.00 576.00 456.00" shape-rendering="crispEdges">
<defs>
    <pattern id="gridMinor" width="40" height="40" patternUnits="userSpaceOnUse">
      <path d="M 40 0 L 0 0 0 40" fill="none" stroke="#e2e8f0" stroke-width="1" />
    </pattern>
    <pattern id="gridMajor" width="200" height="200" patternUnits="userSpaceOnUse">
      <path d="M 200 0 L 0 0 0 200" fill="none" stroke="#cbd5e1" stroke-width="1" />
    </pattern></defs>
<rect width="528.00" height="408.00" fill="white" x="-24.00" y="-24.00" />
<rect width="528.00" height="408.00" fill="url(#gridMinor)" x="-24.00" y="-24.00" />
<rect width="528.00" height="408.00" fill="url(#gridMajor)" x="-24.00" y="-24.00" />
<line x1="0" y1="80" x2="80" y2="80" stroke="#ef4444" stroke-width="3.5" stroke-linecap="square" />
<line x1="80" y1="200" x2="80" y2="80" stroke="#111111" stroke-width="1.5" stroke-linecap="square" stroke-dasharray="6 4" />
<line x1="80" y1="200" x2="0" y2="200" stroke="#111111" stroke-width="3.5" stroke-linecap="square" />
<line x1="0" y1="200" x2="0" y2="80" stroke="#111111" stroke-width="3.5" stroke-linecap="square" />
<line x1="240" y1="80" x2="80" y2="80" stroke="#111111" stroke-width="1.5" stroke-linecap="square" stroke-dasharray="6 4" />
<line x1="240" y1="200" x2="240" y2="80" stroke="#111111" stroke-width="1.5" stroke-linecap="square" stroke-dasharray="6 4" />
<line x1="240" y1="200" x2="80" y2="200" stroke="#111111" stroke-width="3.5" stroke-linecap="square" />
<line x1="240" y1="80" x2="320" y2="80" stroke="#111111" stroke-width="3.5" stroke-linecap="square" />
<line x1="320" y1="200" x2="320" y2="80" stroke="#111111" stroke-width="1.5" stroke-linecap="square" stroke-dasharray="6 4" />
<line x1="240" y1="200" x2="320" y2="200" stroke="#111111" stroke-width="1.5" stroke-linecap="square" stroke-dasharray="6 4" />
<line x1="320" y1="80" x2="480" y2="80" stroke="#111111" stroke-width="3.5" stroke-linecap="square" />
<line x1="480" y1="80" x2="480" y2="200" stroke="#111111" stroke-width="3.5" stroke-linecap="square" />
<line x1="480" y1="200" x2="320" y2="200" stroke="#111111" stroke-width="3.5" stroke-linecap="square" />
<line x1="80" y1="0" x2="240" y2="0" stroke="#111111" stroke-width="3.5" stroke-linecap="square" />
<line x1="240" y1="0" x2="240" y2="80" stroke="#111111" stroke-width="3.5" stroke-linecap="square" />
<line x1="80" y1="80" x2="80" y2="0" stroke="#111111" stroke-width="3.5" stroke-linecap="square" />
<line x1="320" y1="200" x2="320" y2="360" stroke="#111111" stroke-width="3.5" stroke-linecap="square" />
<line x1="320" y1="360" x2="240" y2="360" stroke="#111111" stroke-width="3.5" stroke-linecap="square" />
<line x1="240" y1="360" x2="240" y2="200" stroke="#111111" stroke-width="3.5" stroke-linecap="square" />
<g data-point-labels="true" font-family="sans-serif" font-size="14" font-weight="700" fill="#111111" text-anchor="middle" dominant-baseline="middle"><text x="74.34" y="-5.66">ㄱ</text><text x="240.00" y="-8.00">ㄴ</text><text x="247.07" y="72.93">ㄷ</text><text x="327.07" y="72.93">ㄹ</text><text x="488.00" y="80.00">ㅁ</text><text x="488.00" y="200.00">ㅂ</text><text x="327.07" y="207.07">ㅅ</text><text x="325.66" y="365.66">ㅇ</text><text x="247.07" y="207.07">ㅈ</text><text x="240.00" y="368.00">ㅊ</text><text x="72.93" y="207.07">ㅋ</text><text x="-8.00" y="200.00">ㅌ</text><text x="-8.00" y="80.00">ㅍ</text><text x="72.93" y="72.93">ㅎ</text></g></svg>