<?xml version='1.0' encoding='utf-8'?>
<svg xmlns="http://www.w3.org/2000/svg" width="200" height="80" viewBox="-24.00 -24.00 248.00 128.00" shape-rendering="crispEdges">
<defs>
    <pattern id="gridMinor" width="40" height="40" patternUnits="userSpaceOnUse">
      <path d="M 40 0 L 0 0 0 40" fill="none" stroke="#e2e8f0" stroke-width="1" />
    </pattern>
    <pattern id="gridMajor" width="200" height="200" patternUnits="userSpaceOnUse">
      <path d="M 200 0 L 0 0 0 200" fill="none" stroke="#cbd5e1" stroke-width="1" />
    </pattern></defs>
<rect width="248.00" height="128.00" fill="white" x="-24.00" y="-24.00" />
<rect width="248.00" height="128.00" fill="url(#gridMinor)" x="-24.00" y="-24.00" />
<rect width="248.00" height="128.00" fill="url(#gridMajor)" x="-24.00" y="-24.00" />
<line x1="80" y1="0" x2="120" y2="0" stroke="#111111" stroke-width="3.5" stroke-linecap="square" />
<line x1="120" y1="0" x2="120" y2="40" stroke="#ef4444" stroke-width="3.5" stroke-linecap="square" />
<line x1="80" y1="40" x2="120" y2="40" stroke="#111111" stroke-width="1.5" stroke-linecap="square" stroke-dasharray="6 4" />
<line x1="80" y1="0" x2="80" y2="40" stroke="#111111" stroke-width="1.5" stroke-linecap="square" stroke-dasharray="6 4" />
<line x1="40" y1="0" x2="80" y2="0" stroke="#111111" stroke-width="3.5" stroke-linecap="square" />
<line x1="80" y1="40" x2="40" y2="40" stroke="#111111" stroke-width="3.5" stroke-linecap="square" />
<line x1="40" y1="0" x2="40" y2="40" stroke="#111111" stroke-width="1.5" stroke-linecap="square" stroke-dasharray="6 4" />
<line x1="0" y1="0" x2="40" y2="0" stroke="#111111" stroke-width="3.5" stroke-linecap="square" />
<line x1="40" y1="40" x2="0" y2="40" stroke="#111111" stroke-width="3.5" stroke-linecap="square" />
<line x1="0" y1="40" x2="0" y2="0" stroke="#111111" stroke-width="3.5" stroke-linecap="square" />
<line x1="120" y1="80" x2="120" y2="40" stroke="#111111" stroke-width="1.5" stroke-linecap="square" stroke-dasharray="6 4" />
<line x1="120" y1="80" x2="80" y2="80" stroke="#111111" stroke-width="3.5" stroke-linecap="square" />
<line x1="80" y1="80" x2="80" y2="40" stroke="#111111" stroke-width="3.5" stroke-linecap="square" />
<line x1="120" y1="40" x2="160" y2="40" stroke="#111111" stroke-width="3.5" stroke-linecap="square" />
<line x1="160" y1="80" x2="160" y2="40" stroke="#111111" stroke-width="1.5" stroke-linecap="square" stroke-dasharray="6 4" />
<line x1="160" y1="80" x2="120" y2="80" stroke="#111111" stroke-width="3.5" stroke-linecap="square" />
<line x1="160" y1="40" x2="200" y2="40" stroke="#111111" stroke-width="3.5" stroke-linecap="square" />
<line x1="200" y1="40" x2="200" y2="80" stroke="#111111" stroke-width="3.5" stroke-linecap="square" />
<line x1="200" y1="80" x2="160" y2="80" stroke="#111111" stroke-width="3.5" stroke-linecap="square" />
<g data-point-labels="true" font-family="sans-serif" font-size="14" font-weight="700" fill="#111111" text-anchor="middle" dominant-baseline="middle"><text x="-9.28" y="-3.71">ㄱ</text><text x="31.68" y="-5.55">ㄴ</text><text x="75.53" y="-8.94">ㄷ</text><text x="124.47" y="-8.94">ㄹ</text><text x="130.00" y="40.00">ㅁ</text><text x="170.00" y="40.00">ㅂ</text><text x="210.00" y="40.00">ㅅ</text><text x="209.28" y="83.71">ㅇ</text><text x="168.32" y="85.55">ㅈ</text><text x="124.47" y="88.94">ㅊ</text><text x="75.53" y="88.94">ㅍ</text><text x="70.00" y="40.00">ㅌ</text><text x="30.00" y="40.00">ㅎ</text></g></svg>