<?xml version='1.0' encoding='utf-8'?>
<svg xmlns="http://www.w3.org/2000/svg" width="480" height="280" viewBox="-24.00 -24.00 528.00 328.00" shape-rendering="crispEdges">
<defs>
    <pattern id="gridMinor" width="40" height="40" patternUnits="userSpaceOnUse">
      <path d="M 40 0 L 0 0 0 40" fill="none" stroke="#e2e8f0" stroke-width="1" />
    </pattern>
    <pattern id="gridMajor" width="200" height="200" patternUnits="userSpaceOnUse">
      <path d="M 200 0 L 0 0 0 200" fill="none" stroke="#cbd5e1" stroke-width="1" />
    </pattern></defs>
<rect width="528.00" height="328.00" fill="white" x="-24.00" y="-24.00" />
<rect width="528.00" height="328.00" fill="url(#gridMinor)" x="-24.00" y="-24.00" />
<rect width="528.00" height="328.00" fill="url(#gridMajor)" x="-24.00" y="-24.00" />
<line x1="0" y1="80" x2="80" y2="80" stroke="#111111" stroke-width="3.5" stroke-linecap="square" />
<line x1="80" y1="200" x2="80" y2="80" stroke="#111111" stroke-width="1.5" stroke-linecap="square" stroke-dasharray="6 4" />
<line x1="80" y1="200" x2="0" y2="200" stroke="#111111" stroke-width="3.5" stroke-linecap="square" />
<line x1="0" y1="200" x2="0" y2="80" stroke="#111111" stroke-width="3.5" stroke-linecap="square" />
<line x1="240" y1="80" x2="80" y2="80" stroke="#111111" stroke-width="1.5" stroke-linecap="square" stroke-dasharray="6 4" />
<line x1="240" y1="200" x2="240" y2="80" stroke="#111111" stroke-width="1.5" stroke-linecap="square" stroke-dasharray="6 4" />
<line x1="80" y1="200" x2="240" y2="200" stroke="#111111" stroke-width="1.5" stroke-linecap="square" stroke-dasharray="6 4" />
<line x1="240" y1="80" x2="320" y2="80" stroke="#ef4444" stroke-width="3.5" stroke-linecap="square" />
<line x1="320" y1="200" x2="320" y2="80" stroke="#111111" stroke-width="1.5" stroke-linecap="square" stroke-dasharray="6 4" />
<line x1="320" y1="200" x2="240" y2="200" stroke="#111111" stroke-width="3.5" stroke-linecap="square" />
<line x1="320" y1="80" x2="480" y2="80" stroke="#111111" stroke-width="3.5" stroke-linecap="square" />
<line x1="480" y1="80" x2="480" y2="200" stroke="#111111" stroke-width="3.5" stroke-linecap="square" />
<line x1="480" y1="200" x2="320" y2="200" stroke="#111111" stroke-width="3.5" stroke-linecap="square" />
<line x1="80" y1="0" x2="240" y2="0" stroke="#111111" stroke-width="3.5" stroke-linecap="square" />
<line x1="240" y1="0" x2="240" y2="80" stroke="#111111" stroke-width="3.5" stroke-linecap="square" />
<line x1="80" y1="80" x2="80" y2="0" stroke="#111111" stroke-width="3.5" stroke-linecap="square" />
<line x1="240" y1="200" x2="240" y2="280" stroke="#111111" stroke-width="3.5" stroke-linecap="square" />
<line x1="240" y1="280" x2="80" y2="280" stroke="#111111" stroke-width="3.5" stroke-linecap="square" />
<line x1="80" y1="280" x2="80" y2="200" stroke="#111111" stroke-width="3.5" stroke-linecap="square" />
<g data-point-labels="true" font-family="sans-serif" font-size="14" font-weight="700" fill="#111111" text-anchor="middle" dominant-baseline="middle"><text x="73.32" y="-7.44">ㄱ</text><text x="242.38" y="-9.71">ㄴ</text><text x="244.96" y="71.32">ㄷ</text><text x="328.85" y="75.35">ㄹ</text><text x="489.77" y="77.86">ㅁ</text><text x="489.77" y="202.14">ㅂ</text><text x="328.85" y="204.65">ㅅ</text><text x="244.96" y="208.68">ㅇ</text><text x="242.38" y="289.71">ㅈ</text><text x="73.32" y="287.44">ㅊ</text><text x="70.98" y="204.31">ㅍ</text><text x="-9.60" y="202.80">ㅌ</text><text x="-9.60" y="77.20">ㅎ</text></g></svg>