<?xml version='1.0' encoding='utf-8'?>
<svg xmlns="http://www.w3.org/2000/svg" width="440" height="360" viewBox="-24.00 -24.00 488.00 408.00" shape-rendering="crispEdges">
<defs>
    <pattern id="gridMinor" width="40" height="40" patternUnits="userSpaceOnUse">
      <path d="M 40 0 L 0 0 0 40" fill="none" stroke="#e2e8f0" stroke-width="1" />
    </pattern>
    <pattern id="gridMajor" width="200" height="200" patternUnits="userSpaceOnUse">
      <path d="M 200 0 L 0 0 0 200" fill="none" stroke="#cbd5e1" stroke-width="1" />
    </pattern></defs>
<rect width="488.00" height="408.00" fill="white" x="-24.00" y="-24.00" />
<rect width="488.00" height="408.00" fill="url(#gridMinor)" x="-24.00" y="-24.00" />
<rect width="488.00" height="408.00" fill="url(#gridMajor)" x="-24.00" y="-24.00" />
<line x1="200" y1="160" x2="120" y2="160" stroke="#111111" stroke-width="1.5" stroke-linecap="square" stroke-dasharray="6 4" />
<line x1="200" y1="280" x2="200" y2="160" stroke="#111111" stroke-width="1.5" stroke-linecap="square" stroke-dasharray="6 4" />
<line x1="200" y1="280" x2="120" y2="280" stroke="#111111" stroke-width="3.5" stroke-linecap="square" />
<line x1="120" y1="280" x2="120" y2="160" stroke="#111111" stroke-width="3.5" stroke-linecap="square" />
<line x1="200" y1="160" x2="360" y2="160" stroke="#111111" stroke-width="3.5" stroke-linecap="square" />
<line x1="360" y1="280" x2="360" y2="160" stroke="#111111" stroke-width="1.5" stroke-linecap="square" stroke-dasharray="6 4" />
<line x1="200" y1="280" x2="360" y2="280" stroke="#111111" stroke-width="1.5" stroke-linecap="square" stroke-dasharray="6 4" />
<line x1="360" y1="160" x2="440" y2="160" stroke="#111111" stroke-width="3.5" stroke-linecap="square" />
<line x1="440" y1="160" x2="440" y2="280" stroke="#111111" stroke-width="3.5" stroke-linecap="square" />
<line x1="440" y1="280" x2="360" y2="280" stroke="#111111" stroke-width="3.5" stroke-linecap="square" />
<line x1="120" y1="0" x2="200" y2="0" stroke="#ef4444" stroke-width="3.5" stroke-linecap="square" />
<line x1="200" y1="0" x2="200" y2="160" stroke="#111111" stroke-width="3.5" stroke-linecap="square" />
<line x1="120" y1="0" x2="120" y2="160" stroke="#111111" stroke-width="1.5" stroke-linecap="square" stroke-dasharray="6 4" />
<line x1="0" y1="0" x2="120" y2="0" stroke="#111111" stroke-width="3.5" stroke-linecap="square" />
<line x1="120" y1="160" x2="0" y2="160" stroke="#111111" stroke-width="3.5" stroke-linecap="square" />
<line x1="0" y1="160" x2="0" y2="0" stroke="#111111" stroke-width="3.5" stroke-linecap="square" />
<line x1="360" y1="280" x2="360" y2="360" stroke="#111111" stroke-width="3.5" stroke-linecap="square" />
<line x1="360" y1="360" x2="200" y2="360" stroke="#111111" stroke-width="3.5" stroke-linecap="square" />
<line x1="200" y1="360" x2="200" y2="280" stroke="#111111" stroke-width="3.5" stroke-linecap="square" />
<g data-point-labels="true" font-family="sans-serif" font-size="14" font-weight="700" fill="#111111" text-anchor="middle" dominant-baseline="middle"><text x="-7.63" y="-6.46">ㄱ</text><text x="193.75" y="152.19">ㄴ</text><text x="115.21" y="-8.78">ㄷ</text><text x="198.80" y="-9.93">ㄹ</text><text x="369.79" y="157.96">ㅁ</text><text x="449.91" y="158.70">ㅂ</text><text x="449.22" y="283.88">ㅅ</text><text x="368.32" y="285.55">ㅇ</text><text x="366.25" y="367.81">ㅈ</text><text x="198.68" y="369.91">ㅊ</text><text x="197.57" y="289.70">ㅍ</text><text x="112.53" y="286.64">ㅌ</text><text x="-9.92" y="158.73">ㅎ</text></g></svg>