<?xml version='1.0' encoding='utf-8'?>
<svg xmlns="http://www.w3.org/2000/svg" width="440" height="440" viewBox="-24.00 -24.00 488.00 488.00" shape-rendering="crispEdges">
<defs>
    <pattern id="gridMinor" width="40" height="40" patternUnits="userSpaceOnUse">
      <path d="M 40 0 L 0 0 0 40" fill="none" stroke="#e2e8f0" stroke-width="1" />
    </pattern>
    <pattern id="gridMajor" width="200" height="200" patternUnits="userSpaceOnUse">
      <path d="M 200 0 L 0 0 0 200" fill="none" stroke="#cbd5e1" stroke-width="1" />
    </pattern></defs>
<rect width="488.00" height="488.00" fill="white" x="-24.00" y="-24.00" />
<rect width="488.00" height="488.00" fill="url(#gridMinor)" x="-24.00" y="-24.00" />
<rect width="488.00" height="488.00" fill="url(#gridMajor)" x="-24.00" y="-24.00" />
<line x1="200" y1="160" x2="120" y2="160" stroke="#111111" stroke-width="1.5" stroke-linecap="square" stroke-dasharray="6 4" />
<line x1="200" y1="280" x2="200" y2="160" stroke="#111111" stroke-width="1.5" stroke-linecap="square" stroke-dasharray="6 4" />
<line x1="120" y1="280" x2="200" y2="280" stroke="#111111" stroke-width="1.5" stroke-linecap="square" stroke-dasharray="6 4" />
<line x1="120" y1="280" x2="120" y2="160" stroke="#ef4444" stroke-width="3.5" stroke-linecap="square" />
<line x1="200" y1="160" x2="360" y2="160" stroke="#111111" stroke-width="3.5" stroke-linecap="square" />
<line x1="360" y1="280" x2="360" y2="160" stroke="#111111" stroke-width="1.5" stroke-linecap="square" stroke-dasharray="6 4" />
<line x1="360" y1="280" x2="200" y2="280" stroke="#111111" stroke-width="3.5" stroke-linecap="square" />
<line x1="360" y1="160" x2="440" y2="160" stroke="#111111" stroke-width="3.5" stroke-linecap="square" />
<line x1="440" y1="160" x2="440" y2="280" stroke="#111111" stroke-width="3.5" stroke-linecap="square" />
<line x1="440" y1="280" x2="360" y2="280" stroke="#111111" stroke-width="3.5" stroke-linecap="square" />
<line x1="120" y1="0" x2="200" y2="0" stroke="#111111" stroke-width="3.5" stroke-linecap="square" />
<line x1="200" y1="0" x2="200" y2="160" stroke="#111111" stroke-width="3.5" stroke-linecap="square" />
<line x1="120" y1="0" x2="120" y2="160" stroke="#111111" stroke-width="1.5" stroke-linecap="square" stroke-dasharray="6 4" />
<line x1="0" y1="0" x2="120" y2="0" stroke="#111111" stroke-width="3.5" stroke-linecap="square" />
<line x1="120" y1="160" x2="0" y2="160" stroke="#111111" stroke-width="3.5" stroke-linecap="square" />
<line x1="0" y1="160" x2="0" y2="0" stroke="#111111" stroke-width="3.5" stroke-linecap="square" />
<line x1="200" y1="280" x2="200" y2="440" stroke="#111111" stroke-width="3.5" stroke-linecap="square" />
<line x1="200" y1="440" x2="120" y2="440" stroke="#111111" stroke-width="3.5" stroke-linecap="square" />
<line x1="120" y1="440" x2="120" y2="280" stroke="#111111" stroke-width="3.5" stroke-linecap="square" />
<g data-point-labels="true" font-family="sans-serif" font-size="14" font-weight="700" fill="#111111" text-anchor="middle" dominant-baseline="middle"><text x="-7.17" y="-6.97">ㄱ</text><text x="116.06" y="-9.19">ㄴ</text><text x="198.59" y="150.10">ㄷ</text><text x="199.71" y="-10.00">ㄹ</text><text x="369.68" y="157.49">ㅁ</text><text x="449.86" y="158.32">ㅂ</text><text x="449.46" y="283.23">ㅅ</text><text x="368.88" y="284.60">ㅇ</text><text x="199.76" y="450.00">ㅈ</text><text x="199.29" y="289.97">ㅊ</text><text x="116.64" y="449.42">ㅍ</text><text x="112.69" y="286.82">ㅌ</text><text x="-9.82" y="158.09">ㅎ</text></g></svg>