<?xml version='1.0' encoding='utf-8'?>
<svg xmlns="http://www.w3.org/2000/svg" width="440" height="360" viewBox="-24.00 -24.00 488.00 408.00" shape-rendering="crispEdges">
<defs>
    <pattern id="gridMinor" width="40" height="40" patternUnits="userSpaceOnUse">
      <path d="M 40 0 L 0 0 0 40" fill="none" stroke="#e2e8f0" stroke-width="1" />
    </pattern>
    <pattern id="gridMajor" width="200" height="200" patternUnits="userSpaceOnUse">
      <path d="M 200 0 L 0 0 0 200" fill="none" stroke="#cbd5e1" stroke-width="1" />
    </pattern></defs>
<rect width="488.00" height="408.00" fill="white" x="-24.00" y="-24.00" />
<rect width="488.00" height="408.00" fill="url(#gridMinor)" x="-24.00" y="-24.00" />
<rect width="488.00" height="408.00" fill="url(#gridMajor)" x="-24.00" y="-24.00" />
<line x1="0" y1="0" x2="80" y2="0" stroke="#111111" stroke-width="3.5" stroke-linecap="square" />
<line x1="80" y1="120" x2="80" y2="0" stroke="#111111" stroke-width="1.5" stroke-linecap="square" stroke-dasharray="6 4" />
<line x1="80" y1="120" x2="0" y2="120" stroke="#111111" stroke-width="3.5" stroke-linecap="square" />
<line x1="0" y1="120" x2="0" y2="0" stroke="#111111" stroke-width="3.5" stroke-linecap="square" />
<line x1="80" y1="0" x2="240" y2="0" stroke="#ef4444" stroke-width="3.5" stroke-linecap="square" />
<line x1="240" y1="0" x2="240" y2="120" stroke="#111111" stroke-width="3.5" stroke-linecap="square" />
<line x1="80" y1="120" x2="240" y2="120" stroke="#111111" stroke-width="1.5" stroke-linecap="square" stroke-dasharray="6 4" />
<line x1="240" y1="200" x2="240" y2="120" stroke="#111111" stroke-width="1.5" stroke-linecap="square" stroke-dasharray="6 4" />
<line x1="240" y1="200" x2="80" y2="200" stroke="#111111" stroke-width="3.5" stroke-linecap="square" />
<line x1="80" y1="200" x2="80" y2="120" stroke="#111111" stroke-width="3.5" stroke-linecap="square" />
<line x1="240" y1="120" x2="360" y2="120" stroke="#111111" stroke-width="3.5" stroke-linecap="square" />
<line x1="360" y1="120" x2="360" y2="200" stroke="#111111" stroke-width="3.5" stroke-linecap="square" />
<line x1="240" y1="200" x2="360" y2="200" stroke="#111111" stroke-width="1.5" stroke-linecap="square" stroke-dasharray="6 4" />
<line x1="360" y1="360" x2="360" y2="200" stroke="#111111" stroke-width="1.5" stroke-linecap="square" stroke-dasharray="6 4" />
<line x1="360" y1="360" x2="240" y2="360" stroke="#111111" stroke-width="3.5" stroke-linecap="square" />
<line x1="240" y1="360" x2="240" y2="200" stroke="#111111" stroke-width="3.5" stroke-linecap="square" />
<line x1="360" y1="200" x2="440" y2="200" stroke="#111111" stroke-width="3.5" stroke-linecap="square" />
<line x1="440" y1="200" x2="440" y2="360" stroke="#111111" stroke-width="3.5" stroke-linecap="square" />
<line x1="440" y1="360" x2="360" y2="360" stroke="#111111" stroke-width="3.5" stroke-linecap="square" />
<g data-point-labels="true" font-family="sans-serif" font-size="14" font-weight="700" fill="#111111" text-anchor="middle" dominant-baseline="middle"><text x="-8.01" y="-5.98">ㄱ</text><text x="73.46" y="-7.57">ㄴ</text><text x="240.84" y="-9.96">ㄷ</text><text x="242.82" y="110.41">ㄹ</text><text x="369.40" y="116.60">ㅁ</text><text x="449.89" y="201.45">ㅂ</text><text x="369.74" y="202.28">ㅅ</text><text x="447.46" y="366.66">ㅇ</text><text x="365.74" y="368.19">ㅈ</text><text x="244.14" y="209.10">ㅊ</text><text x="240.74" y="369.97">ㅍ</text><text x="70.22" y="202.11">ㅌ</text><text x="-9.78" y="117.90">ㅎ</text></g></svg>