<?xml version='1.0' encoding='utf-8'?>
<svg xmlns="http://www.w3.org/2000/svg" width="520" height="280" viewBox="-24.00 -24.00 568.00 328.00" shape-rendering="crispEdges">
<defs>
    <pattern id="gridMinor" width="40" height="40" patternUnits="userSpaceOnUse">
      <path d="M 40 0 L 0 0 0 40" fill="none" stroke="#e2e8f0" stroke-width="1" />
    </pattern>
    <pattern id="gridMajor" width="200" height="200" patternUnits="userSpaceOnUse">
      <path d="M 200 0 L 0 0 0 200" fill="none" stroke="#cbd5e1" stroke-width="1" />
    </pattern></defs>
<rect width="568.00" height="328.00" fill="white" x="-24.00" y="-24.00" />
<rect width="568.00" height="328.00" fill="url(#gridMinor)" x="-24.00" y="-24.00" />
<rect width="568.00" height="328.00" fill="url(#gridMajor)" x="-24.00" y="-24.00" />
<line x1="280" y1="80" x2="360" y2="80" stroke="#111111" stroke-width="3.5" stroke-linecap="square" />
<line x1="360" y1="200" x2="360" y2="80" stroke="#111111" stroke-width="1.5" stroke-linecap="square" stroke-dasharray="6 4" />
<line x1="360" y1="200" x2="280" y2="200" stroke="#111111" stroke-width="3.5" stroke-linecap="square" />
<line x1="280" y1="80" x2="280" y2="200" stroke="#111111" stroke-width="1.5" stroke-linecap="square" stroke-dasharray="6 4" />
<line x1="280" y1="80" x2="120" y2="80" stroke="#111111" stroke-width="1.5" stroke-linecap="square" stroke-dasharray="6 4" />
<line x1="280" y1="200" x2="120" y2="200" stroke="#111111" stroke-width="3.5" stroke-linecap="square" />
<line x1="120" y1="200" x2="120" y2="80" stroke="#111111" stroke-width="3.5" stroke-linecap="square" />
<line x1="360" y1="80" x2="520" y2="80" stroke="#111111" stroke-width="3.5" stroke-linecap="square" />
<line x1="520" y1="80" x2="520" y2="200" stroke="#111111" stroke-width="3.5" stroke-linecap="square" />
<line x1="360" y1="200" x2="520" y2="200" stroke="#111111" stroke-width="1.5" stroke-linecap="square" stroke-dasharray="6 4" />
<line x1="120" y1="0" x2="280" y2="0" stroke="#111111" stroke-width="3.5" stroke-linecap="square" />
<line x1="280" y1="0" x2="280" y2="80" stroke="#111111" stroke-width="3.5" stroke-linecap="square" />
<line x1="120" y1="0" x2="120" y2="80" stroke="#111111" stroke-width="1.5" stroke-linecap="square" stroke-dasharray="6 4" />
<line x1="0" y1="0" x2="120" y2="0" stroke="#111111" stroke-width="3.5" stroke-linecap="square" />
<line x1="120" y1="80" x2="0" y2="80" stroke="#111111" stroke-width="3.5" stroke-linecap="square" />
<line x1="0" y1="80" x2="0" y2="0" stroke="#111111" stroke-width="3.5" stroke-linecap="square" />
<line x1="520" y1="200" x2="520" y2="280" stroke="#111111" stroke-width="3.5" stroke-linecap="square" />
<line x1="520" y1="280" x2="360" y2="280" stroke="#ef4444" stroke-width="3.5" stroke-linecap="square" />
<line x1="360" y1="280" x2="360" y2="200" stroke="#111111" stroke-width="3.5" stroke-linecap="square" />
<g data-point-labels="true" font-family="sans-serif" font-size="14" font-weight="700" fill="#111111" text-anchor="middle" dominant-baseline="middle"><text x="-9.09" y="-4.17">ㄱ</text><text x="112.25" y="-6.32">ㄴ</text><text x="280.45" y="-9.99">ㄷ</text><text x="281.24" y="70.08">ㄹ</text><text x="368.82" y="75.29">ㅁ</text><text x="529.83" y="78.17">ㅂ</text><text x="529.57" y="202.89">ㅅ</text><text x="528.47" y="285.32">ㅇ</text><text x="367.56" y="206.55">ㅈ</text><text x="364.86" y="288.74">ㅊ</text><text x="280.77" y="209.97">ㅍ</text><text x="110.99" y="204.34">ㅌ</text><text x="-9.86" y="78.36">ㅎ</text></g></svg>